# This file uses meters as units for non-parametric coordinates.

mtllib Tow_WindowX8.mtl
g default
v -98.545143 -192.959564 -8.163836
v 98.545540 -192.959564 -8.163836
v -13.878063 192.959595 -8.163836
v 16.255552 192.959595 -8.163836
v -98.545143 -173.985474 -8.163836
v 98.545540 -173.985474 -8.163836
v 72.214592 -192.959564 -8.163836
v 72.214592 -173.985474 -8.163836
v 15.736545 170.181458 -8.163836
v -75.006165 -192.959564 -8.163836
v -75.006165 -173.985474 -8.163836
v -17.993526 170.181458 -8.163836
v -100.437416 15.430786 -8.163836
v -76.446655 15.430786 -8.163836
v 73.602104 15.430786 -8.163836
v 100.437782 15.430786 -8.163836
v -100.437416 55.673157 -8.163836
v -76.446655 55.673157 -8.163836
v 73.602104 55.673157 -8.163836
v 100.437782 55.673157 -8.163836
v -93.070244 95.915588 -8.163836
v -70.171486 95.915588 -8.163836
v 67.380249 95.915588 -8.163836
v 93.070251 95.915588 -8.163836
v -74.896614 143.953735 -8.163836
v -56.334534 139.253540 -8.163836
v 53.604012 139.253540 -8.163836
v 74.896599 143.953735 -8.163836
v -56.818111 169.329102 -8.163836
v -45.051666 156.795227 -8.163836
v 42.320770 156.795227 -8.163836
v 56.818489 169.329102 -8.163836
v -56.817757 169.329102 8.163836
v -45.051666 156.795227 8.163836
v -17.993526 170.181458 8.163836
v -13.878063 192.959595 8.163836
v -98.545143 -192.959564 8.163836
v -75.006165 -192.959564 8.163836
v -75.006165 -173.985474 8.163836
v -98.545143 -173.985474 8.163836
v 72.214592 -192.959564 8.163836
v 72.214592 -173.985474 8.163836
v 98.545540 -192.959564 8.163836
v 98.545540 -173.985474 8.163836
v 42.320770 156.795227 8.163836
v 15.736545 170.181458 8.163836
v 56.818123 169.329102 8.163836
v 16.255552 192.959595 8.163836
v -76.446655 15.430786 8.163836
v -100.437416 15.430786 8.163836
v 73.602104 15.430786 8.163836
v 100.437782 15.430786 8.163836
v -76.446655 55.673157 8.163836
v -100.437416 55.673157 8.163836
v 73.602104 55.673157 8.163836
v 100.437782 55.673157 8.163836
v -70.171844 95.915588 8.163836
v -93.070244 95.915588 8.163836
v 67.380249 95.915588 8.163836
v 93.070251 95.915588 8.163836
v -56.334534 139.253540 8.163836
v -74.896614 143.953735 8.163836
v 53.604012 139.253540 8.163836
v 74.896599 143.953735 8.163836
vt 0.139035 0.769123
vt 0.165569 0.734433
vt 0.241586 0.767347
vt 0.252355 0.829090
vt 0.048591 0.046738
vt 0.094747 0.046879
vt 0.094693 0.095325
vt 0.048726 0.095151
vt 0.482800 0.092106
vt 0.481917 0.043760
vt 0.534595 0.043580
vt 0.534542 0.091905
vt 0.336009 0.767193
vt 0.411515 0.736263
vt 0.444784 0.771910
vt 0.337203 0.828723
vt 0.746535 0.762924
vt 0.674773 0.723210
vt 0.910910 0.723194
vt 0.840503 0.762961
vt 0.086502 0.452940
vt 0.041588 0.451758
vt 0.952408 0.415300
vt 0.633040 0.415287
vt 0.637261 0.038205
vt 0.948298 0.038198
vt 0.541066 0.450838
vt 0.490480 0.452072
vt 0.081943 0.530997
vt 0.034279 0.528183
vt 0.959085 0.495802
vt 0.626373 0.495784
vt 0.548200 0.527756
vt 0.494546 0.530676
vt 0.091222 0.611311
vt 0.043622 0.611147
vt 0.953810 0.580051
vt 0.631748 0.580059
vt 0.538838 0.611411
vt 0.484820 0.611660
vt 0.125342 0.699153
vt 0.084657 0.714778
vt 0.934191 0.678031
vt 0.651477 0.678064
vt 0.498087 0.716254
vt 0.450740 0.700449
vt 0.724058 0.816511
vt 0.641789 0.770928
vt 0.235070 0.867885
vt 0.115804 0.807796
vt 0.048028 0.003521
vt 0.094137 0.003993
vt 0.481884 0.000998
vt 0.534727 0.000878
vt 0.944310 0.770941
vt 0.863617 0.816472
vt 0.467565 0.810564
vt 0.353348 0.867207
vt 0.636379 0.002287
vt 0.949177 0.002278
vt 0.599614 0.413902
vt 0.603651 0.038508
vt 0.011467 0.450653
vt 0.018794 0.095369
vt 0.981909 0.038509
vt 0.985831 0.413931
vt 0.564643 0.092123
vt 0.571364 0.449783
vt 0.588115 0.488126
vt 0.003571 0.525175
vt 0.997334 0.488154
vt 0.579098 0.524808
vt 0.592268 0.581006
vt 0.586434 0.500794
vt 0.011321 0.614977
vt 0.000998 0.532205
vt 0.999002 0.500775
vt 0.993290 0.580952
vt 0.581604 0.531773
vt 0.571445 0.615199
vt 0.609100 0.684786
vt 0.591112 0.591201
vt 0.053156 0.728028
vt 0.010117 0.624638
vt 0.994454 0.591185
vt 0.976611 0.684677
vt 0.572661 0.624849
vt 0.529846 0.729399
vt 0.623779 0.755681
vt 0.598440 0.710523
vt 0.117112 0.799013
vt 0.054333 0.746255
vt 0.987316 0.710464
vt 0.961960 0.755626
vt 0.529452 0.747010
vt 0.467842 0.801346
vt 0.847843 0.820449
vt 0.739072 0.820386
vt 0.344791 0.878130
vt 0.246428 0.878911
vt 0.564947 0.043145
vt 0.018197 0.047223
vn 0.000000 0.000000 1.000000
vn 0.000000 0.000000 1.000000
vn 0.000000 0.000000 1.000000
vn 0.000000 0.000000 1.000000
vn 0.000000 0.000000 1.000000
vn 0.000000 0.000000 1.000000
vn 0.000000 0.000000 1.000000
vn 0.000000 0.000000 1.000000
vn 0.000000 0.000000 1.000000
vn 0.000000 0.000000 1.000000
vn 0.000000 0.000000 1.000000
vn 0.000000 0.000000 1.000000
vn 0.000000 0.000000 1.000000
vn 0.000000 0.000000 1.000000
vn 0.000000 0.000000 1.000000
vn 0.000000 0.000000 1.000000
vn 0.000000 0.000000 1.000000
vn 0.000000 0.000000 1.000000
vn 0.000000 0.000000 1.000000
vn 0.000000 0.000000 1.000000
vn 0.000000 0.000000 1.000000
vn 0.000000 0.000000 1.000000
vn 0.000000 0.000000 1.000000
vn 0.000000 0.000000 1.000000
vn 0.000000 0.000000 1.000000
vn 0.000000 0.000000 1.000000
vn 0.000000 0.000000 1.000000
vn 0.000000 0.000000 1.000000
vn 0.000000 0.000000 1.000000
vn 0.000000 0.000000 1.000000
vn 0.000000 0.000000 1.000000
vn 0.000000 0.000000 1.000000
vn 0.000000 0.000000 1.000000
vn 0.000000 0.000000 1.000000
vn 0.000000 0.000000 1.000000
vn 0.000000 0.000000 1.000000
vn 0.000000 0.000000 1.000000
vn 0.000000 0.000000 1.000000
vn 0.000000 0.000000 1.000000
vn 0.000000 0.000000 1.000000
vn 0.000000 0.000000 1.000000
vn 0.000000 0.000000 1.000000
vn 0.000000 0.000000 1.000000
vn 0.000000 0.000000 1.000000
vn 0.000000 0.000000 1.000000
vn 0.000000 0.000000 1.000000
vn 0.000000 0.000000 1.000000
vn 0.000000 0.000000 1.000000
vn 0.000000 0.000000 1.000000
vn 0.000000 0.000000 1.000000
vn 0.000000 0.000000 1.000000
vn 0.000000 0.000000 1.000000
vn 0.000000 0.000000 1.000000
vn 0.000000 0.000000 1.000000
vn 0.000000 0.000000 1.000000
vn 0.000000 0.000000 1.000000
vn 0.000000 0.000000 1.000000
vn 0.000000 0.000000 1.000000
vn 0.000000 0.000000 1.000000
vn 0.000000 0.000000 1.000000
vn 0.000000 0.000000 1.000000
vn 0.000000 0.000000 1.000000
vn 0.000000 0.000000 1.000000
vn 0.000000 0.000000 1.000000
vn 0.000000 0.000000 1.000000
vn 0.000000 0.000000 1.000000
vn 0.000000 0.000000 1.000000
vn 0.000000 0.000000 1.000000
vn 0.000000 0.000000 1.000000
vn 0.000000 0.000000 1.000000
vn 0.000000 0.000000 1.000000
vn 0.000000 0.000000 1.000000
vn 0.000000 0.000000 1.000000
vn 0.000000 0.000000 1.000000
vn 0.000000 0.000000 1.000000
vn 0.000000 0.000000 1.000000
vn 0.000000 0.000000 1.000000
vn 0.000000 0.000000 1.000000
vn 0.000000 0.000000 1.000000
vn 0.000000 0.000000 1.000000
vn 0.000000 0.000000 1.000000
vn 0.000000 0.000000 1.000000
vn 0.000000 0.000000 1.000000
vn 0.000000 0.000000 1.000000
vn 0.000000 0.000000 1.000000
vn 0.000000 0.000000 1.000000
vn 0.000000 0.000000 1.000000
vn 0.000000 0.000000 1.000000
vn 0.627848 -0.778336 0.000000
vn 0.215058 -0.976601 0.000000
vn 0.215058 -0.976601 0.000000
vn 0.627848 -0.778336 0.000000
vn -0.307691 0.951486 0.000003
vn -0.626184 0.779676 0.000007
vn -0.626181 0.779678 0.000007
vn -0.307691 0.951486 0.000003
vn 0.000000 -1.000000 0.000000
vn 0.000000 -1.000000 0.000000
vn 0.000000 -1.000000 0.000000
vn 0.000000 -1.000000 0.000000
vn 0.000000 -1.000000 0.000000
vn 0.000000 -1.000000 0.000000
vn 0.000000 -1.000000 0.000000
vn 0.000000 -1.000000 0.000000
vn -0.216669 -0.976245 0.000000
vn -0.632569 -0.774504 0.000000
vn -0.632569 -0.774504 0.000000
vn -0.216669 -0.976245 0.000000
vn 0.641254 0.767329 0.000005
vn 0.317013 0.948421 0.000002
vn 0.317013 0.948421 0.000002
vn 0.641250 0.767332 0.000005
vn 0.000000 -1.000000 0.000000
vn 0.000000 -1.000000 0.000000
vn 0.000000 -1.000000 0.000000
vn 0.000000 -1.000000 0.000000
vn 0.000000 1.000000 0.000000
vn 0.000000 1.000000 0.000000
vn 0.000000 1.000000 0.000000
vn 0.000000 1.000000 0.000000
vn 0.999971 0.007605 0.000000
vn 0.999980 0.006272 0.000000
vn 0.999980 0.006272 0.000000
vn 0.999971 0.007605 0.000000
vn -0.999966 -0.008239 0.000000
vn -0.999950 -0.009990 0.000000
vn -0.999950 -0.009990 0.000000
vn -0.999966 -0.008239 0.000000
vn -0.999982 0.006042 0.000000
vn -0.999973 0.007325 0.000000
vn -0.999973 0.007325 0.000000
vn -0.999982 0.006042 0.000000
vn 0.999950 -0.009989 0.000000
vn 0.999966 -0.008239 0.000000
vn 0.999966 -0.008239 0.000000
vn 0.999950 -0.009989 0.000000
vn 0.999980 0.006272 0.000000
vn 0.996975 -0.077729 0.000005
vn 0.996975 -0.077729 0.000005
vn 0.999980 0.006272 0.000000
vn -0.995837 0.091154 0.000000
vn -0.999966 -0.008239 0.000000
vn -0.999966 -0.008239 0.000000
vn -0.995837 0.091154 0.000000
vn -0.997025 -0.077075 0.000000
vn -0.999982 0.006042 0.000000
vn -0.999982 0.006042 0.000000
vn -0.997025 -0.077075 0.000000
vn 0.999966 -0.008239 0.000000
vn 0.995836 0.091158 0.000000
vn 0.995836 0.091158 0.000000
vn 0.999966 -0.008239 0.000000
vn 0.996975 -0.077729 0.000005
vn 0.972248 -0.233954 0.000011
vn 0.972248 -0.233954 0.000011
vn 0.996975 -0.077729 0.000005
vn -0.960605 0.277916 0.000000
vn -0.995837 0.091154 0.000000
vn -0.995837 0.091154 0.000000
vn -0.960605 0.277916 0.000000
vn -0.972549 -0.232700 0.000000
vn -0.997025 -0.077075 0.000000
vn -0.997025 -0.077075 0.000000
vn -0.972549 -0.232700 0.000000
vn 0.995836 0.091158 0.000000
vn 0.960604 0.277920 0.000000
vn 0.960604 0.277920 0.000000
vn 0.995836 0.091158 0.000000
vn 0.972248 -0.233954 0.000011
vn 0.924400 -0.381424 0.000008
vn 0.924400 -0.381424 0.000008
vn 0.972248 -0.233954 0.000011
vn -0.896636 0.442768 0.000004
vn -0.960605 0.277916 0.000000
vn -0.960605 0.277916 0.000000
vn -0.896636 0.442768 0.000004
vn -0.924724 -0.380638 0.000000
vn -0.972549 -0.232700 0.000000
vn -0.972549 -0.232700 0.000000
vn -0.924724 -0.380638 0.000000
vn 0.960604 0.277920 0.000000
vn 0.896638 0.442764 0.000003
vn 0.896638 0.442764 0.000003
vn 0.960604 0.277920 0.000000
vn 0.924400 -0.381424 0.000008
vn 0.627848 -0.778336 0.000000
vn 0.627848 -0.778336 0.000000
vn 0.924400 -0.381424 0.000008
vn -0.626184 0.779676 0.000007
vn -0.896636 0.442768 0.000004
vn -0.896636 0.442768 0.000004
vn -0.626181 0.779678 0.000007
vn -0.632569 -0.774504 0.000000
vn -0.924724 -0.380638 0.000000
vn -0.924724 -0.380638 0.000000
vn -0.632569 -0.774504 0.000000
vn 0.896638 0.442764 0.000003
vn 0.641254 0.767329 0.000005
vn 0.641250 0.767332 0.000005
vn 0.896638 0.442764 0.000003
vn 0.215058 -0.976601 0.000000
vn -0.216669 -0.976245 0.000000
vn -0.216669 -0.976245 0.000000
vn 0.215058 -0.976601 0.000000
vn 0.317013 0.948421 0.000002
vn -0.307691 0.951486 0.000003
vn -0.307691 0.951486 0.000003
vn 0.317013 0.948421 0.000002
vn 1.000000 0.000000 0.000000
vn 1.000000 0.000000 0.000000
vn 1.000000 0.000000 0.000000
vn 1.000000 0.000000 0.000000
vn -1.000000 0.000000 0.000000
vn -1.000000 0.000000 0.000000
vn -1.000000 0.000000 0.000000
vn -1.000000 0.000000 0.000000
s off
g Town_WindowX8
usemtl initialShadingGroup
f 33/1/1 34/2/2 35/3/3 36/4/4
f 37/5/5 38/6/6 39/7/7 40/8/8
f 42/9/9 41/10/10 43/11/11 44/12/12
f 46/13/13 45/14/14 47/15/15 48/16/16
f 39/7/17 38/6/18 41/10/19 42/9/20
f 12/17/21 30/18/22 31/19/23 9/20/24
f 40/8/25 39/7/26 49/21/27 50/22/28
f 15/23/29 14/24/30 11/25/31 8/26/32
f 52/27/33 51/28/34 42/9/35 44/12/36
f 50/22/37 49/21/38 53/29/39 54/30/40
f 19/31/41 18/32/42 14/24/43 15/23/44
f 56/33/45 55/34/46 51/28/47 52/27/48
f 54/30/49 53/29/50 57/35/51 58/36/52
f 23/37/53 22/38/54 18/32/55 19/31/56
f 60/39/57 59/40/58 55/34/59 56/33/60
f 58/36/61 57/35/62 61/41/63 62/42/64
f 27/43/65 26/44/66 22/38/67 23/37/68
f 64/45/69 63/46/70 59/40/71 60/39/72
f 62/42/73 61/41/74 34/2/75 33/1/76
f 31/19/77 30/18/78 26/44/79 27/43/80
f 47/15/81 45/14/82 63/46/83 64/45/84
f 36/4/85 35/3/86 46/13/87 48/16/88
f 30/18/89 12/17/90 35/47/91 34/48/92
f 3/49/93 29/50/94 33/1/95 36/4/96
f 1/51/97 10/52/98 38/6/99 37/5/100
f 7/53/101 2/54/102 43/11/103 41/10/104
f 9/20/105 31/19/106 45/55/107 46/56/108
f 32/57/109 4/58/110 48/16/111 47/15/112
f 10/52/113 7/53/114 41/10/115 38/6/116
f 8/26/117 11/25/118 39/59/119 42/60/120
f 11/25/121 14/24/122 49/61/123 39/62/124
f 13/63/125 5/64/126 40/8/127 50/22/128
f 15/23/129 8/26/130 42/65/131 51/66/132
f 6/67/133 16/68/134 52/27/135 44/12/136
f 14/24/137 18/32/138 53/69/139 49/61/140
f 17/70/141 13/63/142 50/22/143 54/30/144
f 19/31/145 15/23/146 51/66/147 55/71/148
f 16/68/149 20/72/150 56/33/151 52/27/152
f 18/32/153 22/38/154 57/73/155 53/74/156
f 21/75/157 17/76/158 54/30/159 58/36/160
f 23/37/161 19/31/162 55/77/163 59/78/164
f 20/79/165 24/80/166 60/39/167 56/33/168
f 22/38/169 26/44/170 61/81/171 57/82/172
f 25/83/173 21/84/174 58/36/175 62/42/176
f 27/43/177 23/37/178 59/85/179 63/86/180
f 24/87/181 28/88/182 64/45/183 60/39/184
f 26/44/185 30/18/186 34/89/187 61/90/188
f 29/91/189 25/92/190 62/42/191 33/1/192
f 31/19/193 27/43/194 63/93/195 45/94/196
f 28/95/197 32/96/198 47/15/199 64/45/200
f 12/17/201 9/20/202 46/97/203 35/98/204
f 4/99/205 3/100/206 36/4/207 48/16/208
f 43/11/209 2/101/210 6/67/211 44/12/212
f 1/102/213 37/5/214 40/8/215 5/64/216
