# This file uses centimeters as units for non-parametric coordinates.

mtllib Town_HouseSHed.mtl
g default
v -0.986572 3.137268 1.395081
v 1.038773 2.408844 1.395081
v -0.957718 3.217468 1.395081
v 1.067627 2.489044 1.395081
v -0.957718 3.217468 -1.364426
v 1.067627 2.489044 -1.364426
v -0.986572 3.137268 -1.364426
v 1.038773 2.408844 -1.364426
v 0.863434 2.471893 1.281723
v 0.659752 2.549896 1.281723
v -0.986572 3.137268 1.281723
v -0.986572 3.137268 -1.255264
v 0.659752 2.549896 -1.255249
v 0.863434 2.471893 -1.255264
v -0.957703 3.164551 0.395821
v 0.863434 2.471893 1.007538
v 0.659752 2.549896 1.007538
v -0.986572 3.137268 1.007538
v -0.986572 3.137268 -0.991226
v 0.659752 2.549896 -0.991226
v 0.863434 2.471893 -0.991226
v -0.957703 3.164551 -0.379517
v 0.874008 -0.007208 1.281723
v 0.654350 -0.013297 1.281723
v 0.654350 -0.013297 1.007538
v 0.874008 -0.007208 1.007538
v 0.654358 -0.013294 -0.991226
v 0.874008 -0.007208 -0.991226
v 0.654358 -0.013294 -1.255264
v 0.874008 -0.007208 -1.255264
v -0.089363 2.437683 1.099167
v -0.089363 2.437683 1.190079
v 0.641907 2.159363 1.099167
v 0.641907 2.159363 1.190079
v -0.466560 2.404114 1.190079
v -0.466560 2.404114 1.099167
v -0.978592 2.078125 1.099167
v -0.978592 2.078125 1.190079
v -0.978592 2.078125 -1.166412
v -0.466560 2.404114 -1.166412
v -0.466560 2.404114 -1.080063
v -0.978592 2.078125 -1.080063
v -0.089361 2.437683 -1.080063
v -0.089361 2.437683 -1.166412
v 0.641907 2.159363 -1.080063
v 0.641907 2.159363 -1.166412
v -0.957718 3.166443 0.008152
v 1.067627 2.458130 0.008152
v 1.038773 2.377930 0.008152
v -0.986572 3.106384 0.008152
vt 0.252677 0.376177
vt 0.423584 0.306895
vt 0.423054 0.344595
vt 0.252607 0.390537
vt 0.484426 0.376536
vt 0.484803 0.391041
vt 0.016528 0.376795
vt 0.035214 0.306374
vt 0.035630 0.344379
vt 0.469356 0.349441
vt 0.470867 0.322324
vt 0.011159 0.003296
vt 0.030852 0.003008
vt 0.016325 0.757861
vt 0.001811 0.757865
vt 0.001827 0.391397
vt 0.016337 0.391394
vt 0.318683 0.754510
vt 0.252701 0.754794
vt 0.487335 0.091135
vt 0.498257 0.091267
vt 0.495346 0.376635
vt 0.473374 0.091010
vt 0.252752 0.008938
vt 0.424295 0.007434
vt 0.186690 0.754799
vt 0.082164 0.344041
vt 0.486380 0.756877
vt 0.587769 0.422279
vt 0.553305 0.435564
vt 0.551345 0.001992
vt 0.588473 0.002934
vt 0.506875 0.435772
vt 0.504957 0.002198
vt 0.668564 0.435730
vt 0.634191 0.422344
vt 0.634792 0.003015
vt 0.671906 0.002198
vt 0.756824 0.422280
vt 0.722363 0.435563
vt 0.720399 0.001992
vt 0.757524 0.002932
vt 0.677661 0.435764
vt 0.675735 0.002192
vt 0.835907 0.435730
vt 0.801529 0.422344
vt 0.802130 0.003008
vt 0.839249 0.002191
vt 0.907068 0.440541
vt 0.807316 0.718853
vt 0.739519 0.715065
vt 0.786673 0.591471
vt 0.631029 0.433749
vt 0.730781 0.712061
vt 0.610386 0.561131
vt 0.563232 0.437536
vt 0.781472 0.527645
vt 0.605185 0.624957
vt 0.727152 0.440467
vt 0.550865 0.712134
vt 0.673810 0.716670
vt 0.548307 0.803825
vt 0.493939 0.716680
vt 0.846424 0.998008
vt 0.666554 0.997999
vt 0.720921 0.910854
vt 0.726150 0.847028
vt 0.553536 0.867650
vt 0.746695 0.719687
vt 0.679001 0.723428
vt 0.574081 0.994992
vt 0.506387 0.991251
vt 0.081801 0.306462
vt 0.081308 0.007285
vn -0.337967 -0.941158 0.000000
vn -0.337846 -0.940680 -0.031340
vn -0.369271 -0.929063 -0.021925
vn 0.940997 -0.338414 0.000000
vn 0.940997 -0.338414 0.000001
vn 0.940968 -0.338410 -0.007617
vn 0.940968 -0.338410 -0.007617
vn -0.337967 -0.941158 0.000000
vn -0.369271 -0.929063 -0.021925
vn -0.356215 -0.934404 -0.000884
vn -0.355830 -0.934551 0.000253
vn -0.337382 -0.941124 -0.021437
vn -0.345562 -0.938312 0.012540
vn -0.345624 -0.938281 -0.013139
vn -0.337372 -0.941108 0.022274
vn -0.356215 -0.934404 -0.000884
vn -0.337272 -0.941156 -0.021730
vn -0.337272 -0.941156 -0.021730
vn -0.337382 -0.941124 -0.021437
vn -0.355830 -0.934551 0.000253
vn 0.000000 0.000000 1.000000
vn 0.000000 0.000000 1.000000
vn 0.000000 0.000000 1.000000
vn 0.000000 0.000000 1.000000
vn 0.328652 0.944202 0.021688
vn 0.329454 0.943863 0.024126
vn 0.326675 0.945137 0.000000
vn 0.326675 0.945137 0.000000
vn 0.000000 0.000000 -1.000000
vn 0.000000 0.000000 -1.000000
vn 0.000000 0.000000 -1.000000
vn 0.000000 0.000000 -1.000000
vn -0.337266 -0.941139 0.022567
vn -0.337266 -0.941139 0.022567
vn -0.356215 -0.934404 -0.000884
vn -0.337372 -0.941108 0.022274
vn -0.337967 -0.941158 0.000000
vn -0.337352 -0.941379 0.000000
vn -0.337184 -0.940910 -0.031551
vn -0.337846 -0.940680 -0.031340
vn 0.328711 0.944184 -0.021577
vn 0.329470 0.943865 -0.023844
vn 0.338014 0.939824 -0.049781
vn -0.355830 -0.934551 0.000253
vn -0.345562 -0.938312 0.012540
vn -0.370005 -0.928775 0.021773
vn -0.215603 -0.976481 0.000000
vn -0.215603 -0.976481 0.000000
vn -0.355713 -0.934595 0.000000
vn -0.355713 -0.934595 0.000000
vn 0.374872 -0.927077 0.000000
vn 0.374872 -0.927077 0.000000
vn -0.215603 -0.976481 0.000000
vn -0.215603 -0.976481 0.000000
vn 0.537049 -0.843551 0.000000
vn 0.374872 -0.927077 0.000000
vn 0.374872 -0.927077 0.000000
vn 0.537049 -0.843551 0.000000
vn 0.537048 -0.843552 0.000000
vn 0.374872 -0.927077 0.000000
vn 0.374872 -0.927077 0.000000
vn 0.537048 -0.843552 0.000000
vn -0.215603 -0.976481 0.000000
vn 0.374872 -0.927077 0.000000
vn 0.374872 -0.927077 0.000000
vn -0.215602 -0.976481 0.000000
vn -0.355714 -0.934595 0.000000
vn -0.215603 -0.976481 0.000000
vn -0.215602 -0.976481 0.000000
vn -0.355714 -0.934595 0.000000
vn -0.356215 -0.934404 -0.000884
vn -0.369271 -0.929063 -0.021925
vn -0.345624 -0.938281 -0.013139
vn 0.338002 0.939789 0.050506
vn 0.329454 0.943863 0.024126
vn 0.328652 0.944202 0.021688
vn 0.000000 -0.000001 1.000000
vn 0.000000 -0.000001 1.000000
vn 0.000000 -0.000001 1.000000
vn 0.000000 -0.000001 1.000000
vn -0.999998 0.002107 0.000000
vn -0.999998 0.002107 0.000000
vn -0.999998 0.002107 0.000000
vn -0.999998 0.002107 0.000000
vn 0.000000 0.000001 -1.000000
vn 0.000000 0.000001 -1.000000
vn 0.000000 0.000001 -1.000000
vn 0.000000 0.000001 -1.000000
vn 0.999991 0.004264 0.000000
vn 0.999991 0.004264 0.000000
vn 0.999991 0.004264 0.000000
vn 0.999991 0.004264 0.000000
vn 0.000005 0.000000 1.000000
vn 0.000005 0.000000 1.000000
vn 0.000005 0.000000 1.000000
vn 0.000005 0.000000 1.000000
vn -0.999998 0.002103 0.000000
vn -0.999998 0.002103 0.000000
vn -0.999998 0.002103 0.000000
vn -0.999998 0.002103 0.000000
vn -0.000004 0.000000 -1.000000
vn -0.000004 0.000000 -1.000000
vn -0.000004 0.000000 -1.000000
vn -0.000004 0.000000 -1.000000
vn 0.999991 0.004264 0.000000
vn 0.999991 0.004264 0.000000
vn 0.999991 0.004264 0.000000
vn 0.999991 0.004264 0.000000
vn -0.009766 -0.151861 -0.988354
vn -0.084013 -0.230742 -0.969381
vn -0.084013 -0.230742 -0.969381
vn -0.076798 -0.222134 -0.971987
vn -0.084013 -0.230742 0.969381
vn -0.009766 -0.151861 0.988354
vn -0.076798 -0.222134 0.971987
vn -0.084013 -0.230742 0.969381
vn -0.009766 -0.151861 -0.988354
vn -0.076798 -0.222134 -0.971987
vn 0.035707 -0.098968 -0.994450
vn -0.009766 -0.151861 0.988354
vn 0.035707 -0.098968 0.994450
vn -0.076798 -0.222134 0.971987
vn -0.009766 -0.151861 -0.988354
vn 0.035707 -0.098968 -0.994450
vn 0.054536 -0.085660 -0.994831
vn -0.009766 -0.151861 0.988354
vn 0.054536 -0.085661 0.994831
vn 0.035707 -0.098968 0.994450
vn -0.009413 -0.147266 -0.989052
vn 0.034629 -0.095981 -0.994781
vn 0.052889 -0.083073 -0.995139
vn -0.009414 -0.147265 0.989052
vn 0.052888 -0.083073 0.995139
vn 0.034628 -0.095981 0.994781
vn -0.009414 -0.147265 0.989052
vn 0.034628 -0.095981 0.994781
vn -0.074583 -0.215720 0.973603
vn -0.009413 -0.147266 -0.989052
vn -0.074583 -0.215720 -0.973603
vn 0.034629 -0.095981 -0.994781
vn -0.081599 -0.224110 0.971142
vn -0.009414 -0.147265 0.989052
vn -0.074583 -0.215720 0.973603
vn -0.081599 -0.224110 0.971142
vn -0.009413 -0.147266 -0.989052
vn -0.081599 -0.224110 -0.971142
vn -0.081599 -0.224110 -0.971142
vn -0.074583 -0.215720 -0.973603
vn 0.326675 0.945137 0.000000
vn 0.326675 0.945137 0.000000
vn 0.329470 0.943865 -0.023844
vn 0.328711 0.944184 -0.021577
vn 0.940973 -0.338398 0.007539
vn 0.940973 -0.338398 0.007539
vn 0.940997 -0.338414 0.000001
vn 0.940997 -0.338414 0.000000
vn -0.355830 -0.934551 0.000253
vn -0.370005 -0.928775 0.021773
vn -0.337967 -0.941158 0.000000
vn -0.370005 -0.928775 0.021773
vn -0.337846 -0.940680 0.031340
vn -0.337967 -0.941158 0.000000
vn -0.337846 -0.940680 0.031340
vn -0.337184 -0.940910 0.031551
vn -0.337352 -0.941379 0.000000
vn -0.337967 -0.941158 0.000000
s off
g Town_HouseShed
usemtl initialShadingGroup
f 49/1/1 20/2/2 21/3/3
f 48/4/4 49/1/5 8/5/6 6/6/7
f 49/1/8 21/3/9 8/5/10
f 2/7/11 10/8/12 9/9/13
f 14/10/14 13/11/15 8/5/16
f 1/12/17 11/13/18 10/8/19 2/7/20
f 3/14/21 1/15/22 2/16/23 4/17/24
f 6/6/25 22/18/26 47/19/27 48/4/28
f 7/20/29 5/21/30 6/22/31 8/5/32
f 12/23/33 7/20/34 8/5/35 13/11/36
f 49/1/37 50/24/38 19/25/39 20/2/40
f 4/17/41 15/26/42 3/14/43
f 2/7/44 9/9/45 16/27/46
f 32//47 31//48 33//49 34//50
f 35//51 36//52 31//53 32//54
f 37//55 36//56 35//57 38//58
f 39//59 40//60 41//61 42//62
f 43//63 41//64 40//65 44//66
f 45//67 43//68 44//69 46//70
f 8/5/71 21/3/72 14/10/73
f 5/28/74 22/18/75 6/6/76
f 9/29/77 10/30/78 24/31/79 23/32/80
f 10/30/81 17/33/82 25/34/83 24/31/84
f 17/35/85 16/36/86 26/37/87 25/38/88
f 16/36/89 9/29/90 23/32/91 26/37/92
f 21/39/93 20/40/94 27/41/95 28/42/96
f 20/40/97 13/43/98 29/44/99 27/41/100
f 13/45/101 14/46/102 30/47/103 29/48/104
f 14/46/105 21/39/106 28/42/107 30/47/108
f 18/49/109 17/50/110 33/51/111 31/52/112
f 10/53/113 11/54/114 32/55/115 34/56/116
f 18/49/117 31/52/118 36/57/119
f 11/54/120 35/58/121 32/55/122
f 18/49/123 36/57/124 37/59/125
f 11/54/126 38/60/127 35/58/128
f 12/61/129 40/62/130 39/63/131
f 19/64/132 42/65/133 41/66/134
f 19/64/135 41/66/136 43/67/137
f 12/61/138 44/68/139 40/62/140
f 20/69/141 19/64/142 43/67/143 45/70/144
f 12/61/145 13/71/146 46/72/147 44/68/148
f 48/4/149 47/19/150 15/26/151 4/17/152
f 4/17/153 2/7/154 49/1/155 48/4/156
f 2/7/157 16/27/158 49/1/159
f 16/27/160 17/73/161 49/1/162
f 17/73/163 18/74/164 50/24/165 49/1/166
