# This file uses centimeters as units for non-parametric coordinates.

mtllib Town_WIndowX7.mtl
g Town_WIndowX7_default1
v -0.723892 -0.492867 -0.035927
v 0.723892 -0.492867 -0.035927
v -0.723892 0.501961 -0.035927
v 0.706604 0.501961 -0.035927
v -0.665627 -0.492867 -0.035927
v -0.665627 0.501961 -0.035927
v 0.657845 -0.492867 -0.035927
v 0.643478 0.501961 -0.035927
v -0.723892 0.381454 -0.035927
v -0.665634 0.381454 -0.035927
v 0.643478 0.381454 -0.035927
v 0.706604 0.381454 -0.035927
v -0.723892 -0.417343 -0.035927
v -0.665634 -0.417343 -0.035927
v 0.657845 -0.417343 -0.035927
v 0.723892 -0.417343 -0.035927
v -0.723892 0.381454 0.025760
v -0.665627 0.381454 0.035927
v -0.665627 0.501961 0.035927
v -0.723892 0.501961 0.025760
v 0.643478 0.381454 0.035927
v 0.643478 0.501961 0.035927
v 0.706604 0.381454 0.025760
v 0.706604 0.501961 0.025760
v -0.723892 -0.417343 0.025760
v -0.665627 -0.417343 0.025760
v 0.657845 -0.417343 0.025760
v 0.723892 -0.417343 0.025760
v -0.723892 -0.492867 0.025760
v -0.665627 -0.492867 0.025760
v 0.657845 -0.492867 0.025760
v 0.723892 -0.492867 0.025760
v -0.723892 0.365013 -0.035927
v -0.723892 0.365013 -0.000244
v -0.665627 0.365013 -0.000244
v 0.643478 0.365013 -0.000244
v 0.706604 0.365013 -0.000244
v 0.706604 0.365013 -0.035927
v -0.723892 -0.402199 -0.035927
v -0.723892 -0.402199 -0.000244
v -0.665627 -0.402199 -0.000244
v 0.657845 -0.402199 -0.000244
v 0.723892 -0.402199 -0.000244
v 0.723892 -0.402199 -0.035927
v -0.038620 0.492867 -0.035927
v -0.038620 0.492867 0.035927
v -0.038620 0.372368 0.035927
v -0.038620 0.372368 -0.035927
v -0.074591 -0.501961 -0.035927
v -0.074591 -0.501961 0.025760
v -0.074591 -0.426437 0.025760
v -0.074591 -0.426437 -0.035927
vt 0.797539 0.426165
vt 0.798964 0.409780
vt 0.832741 0.410490
vt 0.833215 0.427866
vt 0.832028 0.233982
vt 0.798168 0.234203
vt 0.796556 0.043125
vt 0.830314 0.042060
vt 0.794956 0.025351
vt 0.706464 0.688365
vt 0.684634 0.688378
vt 0.830490 0.023319
vt 0.789155 0.430935
vt 0.687046 0.481145
vt 0.687459 0.459343
vt 0.788789 0.409594
vt 0.786254 0.043394
vt 0.786544 0.020734
vt 0.474221 0.426845
vt 0.473956 0.409681
vt 0.495145 0.409562
vt 0.495679 0.425694
vt 0.472549 0.244033
vt 0.493644 0.244206
vt 0.498847 0.020702
vt 0.498196 0.039283
vt 0.477002 0.038879
vt 0.477475 0.019422
vt 0.853046 0.410678
vt 0.852306 0.428685
vt 0.794522 0.444139
vt 0.850601 0.041624
vt 0.852288 0.233849
vt 0.791865 0.007663
vt 0.828901 0.004398
vt 0.789039 0.444180
vt 0.786640 0.007745
vt 0.476130 0.445444
vt 0.456592 0.409827
vt 0.498994 0.442983
vt 0.455295 0.243890
vt 0.459665 0.038499
vt 0.459628 0.019441
vt 0.502409 0.003696
vt 0.503511 0.443351
vt 0.503469 0.430159
vt 0.503849 0.408806
vt 0.682281 0.889747
vt 0.507130 0.040138
vt 0.506640 0.016444
vt 0.506917 0.003515
vt 0.687270 0.878903
vt 0.709069 0.878587
vt 0.682242 0.470221
vt 0.423194 0.699444
vt 0.441931 0.699435
vt 0.444560 0.878964
vt 0.444561 0.897702
vt 0.449162 0.889807
vt 0.444373 0.476973
vt 0.449161 0.466214
vt 0.425619 0.476759
vt 0.479640 0.000903
vt 0.456400 0.426643
vt 0.444700 0.458245
vt 0.425795 0.879240
vt 0.849496 0.022207
vt 0.708845 0.481408
vt 0.831852 0.446942
vt 0.687323 0.900697
vn -0.156589 -0.234517 0.959417
vn -0.015451 -0.019457 0.999691
vn -0.014964 0.000000 0.999888
vn -0.171895 0.000000 0.985115
vn 0.000000 0.000000 1.000000
vn 0.000000 0.000000 1.000000
vn 0.014224 -0.019550 0.999708
vn 0.013751 0.000000 0.999906
vn 0.013751 0.000000 0.999906
vn 0.014224 -0.019550 0.999708
vn 0.144905 -0.233757 0.961437
vn 0.159024 0.000000 0.987275
vn -0.001829 -0.039638 0.999213
vn -0.001829 -0.039638 0.999213
vn -0.015451 -0.019457 0.999691
vn -0.156589 -0.234517 0.959417
vn 0.144905 -0.233757 0.961437
vn 0.014224 -0.019550 0.999708
vn 0.001670 -0.039206 0.999230
vn 0.001629 -0.038234 0.999268
vn 0.000000 0.000000 1.000000
vn -0.000001 0.000000 1.000000
vn -0.000001 0.030611 0.999531
vn 0.000000 0.275678 0.961250
vn 0.000000 0.000000 1.000000
vn 0.000000 0.000000 1.000000
vn -0.000001 0.030611 0.999531
vn -0.000001 0.000000 1.000000
vn 0.000000 0.275684 0.961248
vn 0.000000 0.028211 0.999602
vn 0.000000 0.000000 1.000000
vn 0.000000 0.000000 1.000000
vn 0.013346 0.999911 0.000000
vn 0.000000 1.000000 0.000000
vn 0.000000 1.000000 0.000000
vn 0.013459 0.999909 0.000000
vn -1.000000 0.000000 0.000000
vn -1.000000 0.000000 0.000000
vn -1.000000 0.000000 0.000000
vn -1.000000 0.000000 0.000000
vn 0.000000 -1.000000 0.000000
vn 0.000000 -1.000000 0.000000
vn 0.013327 -0.999911 0.000000
vn 0.013327 -0.999911 0.000000
vn -0.012272 0.999925 0.000000
vn 0.000000 1.000000 0.000000
vn 0.000000 1.000000 0.000000
vn -0.012368 0.999924 0.000000
vn 1.000000 -0.000007 0.000000
vn 1.000000 0.000000 0.000000
vn 1.000000 0.000000 0.000000
vn 1.000000 -0.000003 0.000000
vn 0.000000 1.000000 0.000000
vn -0.012272 0.999925 0.000000
vn -0.012368 0.999924 0.000000
vn 0.000000 1.000000 0.000000
vn 1.000000 0.000002 -0.000052
vn 1.000000 0.000001 -0.000052
vn 1.000000 0.000100 -0.000026
vn -1.000000 0.000000 0.000000
vn -1.000000 0.000000 0.000000
vn -1.000000 0.000000 0.000000
vn -1.000000 0.000000 0.000000
vn -0.999835 -0.018182 -0.000279
vn -0.999839 -0.017920 -0.000275
vn -1.000000 0.000000 0.000000
vn 0.999769 0.021510 0.000000
vn 0.999760 0.021893 0.000000
vn 1.000000 -0.000007 0.000000
vn 1.000000 -0.000003 0.000000
vn 0.000000 -1.000000 0.000000
vn -0.014000 -0.999902 0.000000
vn -0.014000 -0.999902 0.000000
vn 0.000000 -1.000000 0.000000
vn -1.000000 0.000000 0.000000
vn -1.000000 0.000000 0.000000
vn -1.000000 0.000000 0.000000
vn -1.000000 0.000000 0.000000
vn 0.000000 1.000000 0.000000
vn 0.000000 1.000000 0.000000
vn 0.015380 0.999882 0.000000
vn 0.015380 0.999882 0.000000
vn -0.014000 -0.999902 0.000000
vn 0.000000 -1.000000 0.000000
vn 0.000000 -1.000000 0.000000
vn -0.014000 -0.999902 0.000000
vn 0.011385 -0.999935 0.000000
vn 0.000000 -1.000000 0.000000
vn 0.000000 -1.000000 0.000000
vn 0.011385 -0.999935 0.000000
vn 1.000000 0.000000 0.000000
vn 1.000000 0.000000 0.000000
vn 1.000000 0.000000 0.000000
vn 1.000000 0.000000 0.000000
vn -1.000000 0.000000 0.000000
vn -1.000000 0.000000 0.000000
vn -1.000000 0.000000 0.000000
vn -1.000000 0.000000 0.000000
vn 0.000000 0.033219 0.999448
vn 0.000000 0.033219 0.999448
vn -0.001829 -0.039638 0.999213
vn -0.001829 -0.039638 0.999213
vn 1.000000 0.000000 -0.000052
vn 1.000000 0.000000 -0.000052
vn 1.000000 0.000001 -0.000052
vn 1.000000 0.000002 -0.000052
vn -0.999839 -0.017920 -0.000275
vn -0.999835 -0.018182 -0.000279
vn -0.999834 -0.018226 -0.000279
vn -0.999838 -0.018009 -0.000275
vn 0.001629 -0.038234 0.999268
vn 0.001670 -0.039206 0.999230
vn 0.000000 0.033574 0.999436
vn 0.000000 0.034430 0.999407
vn 0.999767 0.021577 0.000000
vn 0.999759 0.021944 0.000000
vn 0.999760 0.021893 0.000000
vn 0.999769 0.021510 0.000000
vn -1.000000 0.000000 0.000000
vn -1.000000 0.000000 0.000000
vn -1.000000 0.000000 0.000000
vn -1.000000 0.000000 0.000000
vn 0.000000 0.275678 0.961250
vn -0.000001 0.030611 0.999531
vn 0.000000 0.033219 0.999448
vn 0.000000 0.033219 0.999448
vn 1.000000 0.000000 -0.000052
vn 1.000000 0.000000 -0.000052
vn 1.000000 0.000000 -0.000030
vn -0.999838 -0.018009 -0.000275
vn -0.999834 -0.018226 -0.000279
vn -1.000000 0.000126 0.000061
vn 0.000000 0.034430 0.999407
vn 0.000000 0.033574 0.999436
vn 0.000000 0.028211 0.999602
vn 0.000000 0.275684 0.961248
vn 1.000000 0.000000 0.000000
vn 0.999759 0.021944 0.000000
vn 0.999767 0.021577 0.000000
vn 1.000000 0.000000 0.000000
vn 0.000000 1.000000 0.000000
vn 0.000000 1.000000 0.000000
vn 0.013346 0.999911 0.000000
vn 0.013459 0.999909 0.000000
vn -0.014964 0.000000 0.999888
vn -0.015451 -0.019457 0.999691
vn 0.000000 0.000000 1.000000
vn 0.000000 0.000000 1.000000
vn -0.014498 -0.999895 0.000000
vn 0.000000 -1.000000 0.000000
vn 0.000000 -1.000000 0.000000
vn -0.014498 -0.999895 0.000000
vn 0.000000 -1.000000 0.000000
vn 0.000000 -1.000000 0.000000
vn 0.011385 -0.999935 0.000000
vn 0.011385 -0.999935 0.000000
vn 0.000000 0.028211 0.999602
vn 0.000000 0.000000 1.000000
vn 0.000000 0.000000 1.000000
vn 0.000000 0.000000 1.000000
vn -0.012411 0.999923 0.000000
vn 0.000000 1.000000 0.000000
vn 0.000000 1.000000 0.000000
vn -0.012411 0.999923 0.000000
vn 0.000000 0.000000 1.000000
vn 0.000000 0.000000 1.000000
vn 0.000000 0.000000 1.000000
vn 0.000000 0.000000 1.000000
vn 0.000000 0.000000 1.000000
vn 0.000000 0.000000 1.000000
vn 0.000000 0.000000 1.000000
vn 0.000000 0.000000 1.000000
s off
g Town_WIndowX7_Town_WindowX7 Town_WIndowX7_Town_WindowX8 Town_WIndowX7_group1 Town_WIndowX7_polySurface1
usemtl Town_WIndowX7_initialShadingGroup
f 17/1/1 18/2/2 19/3/3 20/4/4
f 46/5/5 47/6/6 21/7/7 22/8/8
f 22/8/9 21/7/10 23/9/11 24/12/12
f 34/13/13 35/16/14 18/2/15 17/1/16
f 23/9/17 21/7/18 36/17/19 37/18/20
f 29/19/21 30/20/22 26/21/23 25/22/24
f 50/23/25 51/24/26 26/21/27 30/20/28
f 28/25/29 27/26/30 31/27/31 32/28/32
f 6/29/33 3/30/34 20/4/35 19/3/36
f 3/69/37 9/31/38 17/1/39 20/4/40
f 47/10/41 48/11/42 11/14/43 21/68/44
f 8/32/45 45/33/46 46/5/47 22/8/48
f 12/34/49 4/35/50 24/12/51 23/9/52
f 4/67/53 8/32/54 22/8/55 24/12/56
f 35/48/57 10/52/58 18/70/59
f 9/31/60 33/36/61 34/13/62 17/1/63
f 11/14/64 36/54/65 21/15/66
f 37/18/67 38/37/68 12/34/69 23/9/70
f 1/64/71 5/39/72 30/20/73 29/19/74
f 13/40/75 1/38/76 29/19/77 25/22/78
f 51/55/79 52/56/80 14/57/81 26/66/82
f 5/39/83 49/41/84 50/23/85 30/20/86
f 7/42/87 2/43/88 32/28/89 31/27/90
f 2/63/91 16/44/92 28/25/93 32/28/94
f 34/13/95 33/36/96 39/45/97 40/46/98
f 40/46/99 41/47/100 35/16/101 34/13/102
f 41/59/103 14/57/104 10/52/105 35/48/106
f 36/54/107 11/14/108 15/60/109 42/61/110
f 37/18/111 36/17/112 42/49/113 43/50/114
f 43/50/115 44/51/116 38/37/117 37/18/118
f 40/46/119 39/45/120 13/40/121 25/22/122
f 25/22/123 26/21/124 41/47/125 40/46/126
f 14/57/127 41/59/128 26/58/129
f 42/61/130 15/60/131 27/65/132
f 43/50/133 42/49/134 27/26/135 28/25/136
f 16/44/137 44/51/138 43/50/139 28/25/140
f 46/5/141 45/33/142 6/29/143 19/3/144
f 19/3/145 18/2/146 47/6/147 46/5/148
f 10/52/149 48/11/150 47/10/151 18/53/152
f 50/23/153 49/41/154 7/42/155 31/27/156
f 27/26/157 51/24/158 50/23/159 31/27/160
f 15/60/161 52/56/162 51/55/163 27/62/164
f 11/14/165 48/11/166 52/56/167 15/60/168
f 48/11/169 10/52/170 14/57/171 52/56/172
