# This file uses centimeters as units for non-parametric coordinates.

mtllib Town_WindowX5.mtl
g Town_WindowX5_default1
v -0.723892 -0.481888 -0.035927
v 0.723892 -0.492867 -0.035927
v -0.723892 0.490974 -0.035927
v 0.723892 0.501961 -0.035927
v -0.665627 -0.481888 -0.035927
v -0.665627 0.490974 -0.035927
v 0.657845 -0.492867 -0.035927
v 0.657845 0.501961 -0.035927
v -0.723892 0.373131 -0.035927
v -0.665627 0.373131 -0.035927
v 0.657845 0.381454 -0.035927
v 0.723892 0.381454 -0.035927
v -0.723892 -0.408028 -0.035927
v -0.665627 -0.408028 -0.035927
v 0.657845 -0.417343 -0.035927
v 0.723892 -0.417343 -0.035927
v -0.723892 0.373131 0.025760
v -0.665627 0.373131 0.035927
v -0.665627 0.490974 0.035927
v -0.723892 0.490974 0.025760
v 0.657845 0.381454 0.035927
v 0.657845 0.501961 0.035927
v 0.723892 0.381454 0.025760
v 0.723892 0.501961 0.025760
v -0.723892 -0.408028 0.025760
v -0.665627 -0.408028 0.025760
v 0.657845 -0.417343 0.025760
v 0.723892 -0.417343 0.025760
v -0.723892 -0.481888 0.025760
v -0.665627 -0.481888 0.025760
v 0.657845 -0.492867 0.025760
v 0.723892 -0.492867 0.025760
v -0.723892 0.357056 -0.035927
v -0.723892 0.357056 -0.000244
v -0.665627 0.357056 -0.000244
v 0.657845 0.365013 -0.000244
v 0.723892 0.365013 -0.000244
v 0.723892 0.365013 -0.035927
v -0.723892 -0.393219 -0.035927
v -0.723892 -0.393219 -0.000244
v -0.665627 -0.393219 -0.000244
v 0.657845 -0.402199 -0.000244
v 0.723892 -0.402199 -0.000244
v 0.723892 -0.402199 -0.035927
v -0.055909 0.492867 -0.035927
v -0.055909 0.492867 0.035927
v -0.055909 0.372368 0.035927
v -0.055909 0.372368 -0.035927
v -0.074591 -0.501961 -0.035927
v -0.074591 -0.501961 0.025760
v -0.074591 -0.426437 0.025760
v -0.074591 -0.426437 -0.035927
vt 0.363155 0.883728
vt 0.365139 0.867118
vt 0.397190 0.867947
vt 0.397807 0.885104
vt 0.399435 0.702500
vt 0.366802 0.702540
vt 0.366598 0.509558
vt 0.399427 0.508725
vt 0.364424 0.490390
vt 0.996393 0.687751
vt 0.974563 0.687611
vt 0.400093 0.489220
vt 0.354589 0.888618
vt 0.977190 0.470732
vt 0.977230 0.448938
vt 0.354629 0.865623
vt 0.355707 0.511316
vt 0.355690 0.485569
vt 0.028066 0.877343
vt 0.028417 0.860741
vt 0.047989 0.860622
vt 0.048761 0.877170
vt 0.024226 0.706535
vt 0.043893 0.706554
vt 0.046924 0.496525
vt 0.046127 0.515715
vt 0.026139 0.515572
vt 0.025579 0.496592
vt 0.416804 0.868427
vt 0.416166 0.885728
vt 0.360030 0.902357
vt 0.419055 0.508559
vt 0.418955 0.702641
vt 0.361320 0.471793
vt 0.399138 0.469812
vt 0.354250 0.902907
vt 0.355382 0.471414
vt 0.028866 0.896294
vt 0.012183 0.861031
vt 0.051548 0.895365
vt 0.008150 0.706653
vt 0.009913 0.515556
vt 0.008814 0.497777
vt 0.049724 0.478386
vt 0.056301 0.896353
vt 0.056525 0.882113
vt 0.057271 0.859122
vt 0.969727 0.883732
vt 0.055621 0.517380
vt 0.054840 0.491648
vt 0.054632 0.477544
vt 0.974612 0.872892
vt 0.996431 0.872884
vt 0.972197 0.459891
vt 0.713209 0.693367
vt 0.731943 0.693239
vt 0.737216 0.872735
vt 0.737214 0.891507
vt 0.741713 0.883584
vt 0.734467 0.470821
vt 0.739068 0.459977
vt 0.715700 0.470606
vt 0.026355 0.477483
vt 0.011533 0.876509
vt 0.418568 0.488836
vt 0.396797 0.904397
vt 0.734467 0.452048
vt 0.718444 0.873281
vt 0.999002 0.470999
vt 0.974651 0.894689
vn -0.156378 -0.239628 0.958188
vn -0.015808 -0.020348 0.999668
vn -0.015035 0.000000 0.999887
vn -0.171889 0.000000 0.985116
vn 0.000000 0.000000 1.000000
vn 0.000000 0.000000 1.000000
vn 0.013601 -0.019639 0.999715
vn 0.013136 0.000000 0.999914
vn 0.013136 0.000000 0.999914
vn 0.013601 -0.019639 0.999715
vn 0.138656 -0.233341 0.962459
vn 0.152141 0.000000 0.988359
vn -0.001829 -0.040532 0.999177
vn -0.001829 -0.040532 0.999177
vn -0.015808 -0.020348 0.999668
vn -0.156378 -0.239628 0.958188
vn 0.138656 -0.233341 0.962459
vn 0.013601 -0.019639 0.999715
vn 0.001614 -0.039639 0.999213
vn 0.001614 -0.039639 0.999213
vn 0.000000 0.000000 1.000000
vn -0.000001 0.000000 1.000000
vn -0.000001 0.031279 0.999511
vn 0.000000 0.281423 0.959584
vn 0.000000 0.000000 1.000000
vn 0.000000 0.000000 1.000000
vn -0.000001 0.031279 0.999511
vn -0.000001 0.000000 1.000000
vn 0.000000 0.275684 0.961248
vn 0.000000 0.028211 0.999602
vn 0.000000 0.000000 1.000000
vn 0.000000 0.000000 1.000000
vn -0.002851 0.999996 0.000000
vn 0.000000 1.000000 0.000000
vn 0.000000 1.000000 0.000000
vn -0.002876 0.999996 0.000000
vn -1.000000 0.000000 0.000000
vn -1.000000 0.000015 0.000000
vn -1.000000 0.000006 0.000000
vn -1.000000 0.000000 0.000000
vn 0.006288 -0.999980 0.000000
vn 0.006288 -0.999980 0.000000
vn 0.012736 -0.999919 0.000000
vn 0.012736 -0.999919 0.000000
vn -0.011728 0.999931 0.000000
vn -0.008299 0.999966 0.000000
vn -0.008299 0.999966 0.000000
vn -0.011816 0.999930 0.000000
vn 1.000000 0.000007 0.000000
vn 1.000000 0.000000 0.000000
vn 1.000000 0.000000 0.000000
vn 1.000000 0.000003 0.000000
vn 0.000000 1.000000 0.000000
vn -0.011728 0.999931 0.000000
vn -0.011816 0.999930 0.000000
vn 0.000000 1.000000 0.000000
vn 1.000000 0.000002 0.000000
vn 1.000000 0.000001 0.000000
vn 1.000000 0.000102 0.000000
vn -1.000000 0.000015 0.000000
vn -1.000000 0.000004 0.000000
vn -1.000000 0.000007 0.000000
vn -1.000000 0.000006 0.000000
vn -1.000000 -0.000002 0.000104
vn -1.000000 -0.000005 0.000103
vn -1.000000 -0.000200 0.000052
vn 1.000000 0.000003 0.000000
vn 1.000000 0.000002 0.000000
vn 1.000000 0.000007 0.000000
vn 1.000000 0.000003 0.000000
vn 0.000000 -1.000000 0.000000
vn -0.030903 -0.999522 0.000000
vn -0.030903 -0.999522 0.000000
vn 0.000000 -1.000000 0.000000
vn -1.000000 -0.000011 0.000000
vn -1.000000 0.000000 0.000000
vn -1.000000 0.000000 0.000000
vn -1.000000 -0.000004 0.000000
vn 0.007039 0.999975 0.000000
vn 0.007039 0.999975 0.000000
vn 0.031129 0.999515 0.000000
vn 0.031129 0.999515 0.000000
vn -0.030903 -0.999522 0.000000
vn -0.008299 -0.999966 0.000000
vn -0.008299 -0.999966 0.000000
vn -0.030903 -0.999522 0.000000
vn 0.011385 -0.999935 0.000000
vn 0.000000 -1.000000 0.000000
vn 0.000000 -1.000000 0.000000
vn 0.011385 -0.999935 0.000000
vn 1.000000 0.000000 0.000000
vn 1.000000 0.000000 0.000000
vn 1.000000 0.000000 0.000000
vn 1.000000 0.000000 0.000000
vn -1.000000 0.000007 0.000000
vn -1.000000 0.000004 0.000000
vn -1.000000 -0.000002 0.000000
vn -1.000000 -0.000003 0.000000
vn 0.000000 0.033969 0.999423
vn 0.000000 0.033969 0.999423
vn -0.001829 -0.040532 0.999177
vn -0.001829 -0.040532 0.999177
vn 1.000000 0.000000 0.000000
vn 1.000000 0.000000 0.000000
vn 1.000000 0.000001 0.000000
vn 1.000000 0.000002 0.000000
vn -1.000000 -0.000005 0.000103
vn -1.000000 -0.000002 0.000104
vn -1.000000 0.000001 0.000104
vn -1.000000 0.000002 0.000104
vn 0.001614 -0.039639 0.999213
vn 0.001614 -0.039639 0.999213
vn 0.000000 0.033220 0.999448
vn 0.000000 0.033220 0.999448
vn 1.000000 0.000000 0.000000
vn 1.000000 0.000000 0.000000
vn 1.000000 0.000002 0.000000
vn 1.000000 0.000003 0.000000
vn -1.000000 -0.000003 0.000000
vn -1.000000 -0.000002 0.000000
vn -1.000000 -0.000011 0.000000
vn -1.000000 -0.000004 0.000000
vn 0.000000 0.281423 0.959584
vn -0.000001 0.031279 0.999511
vn 0.000000 0.033969 0.999423
vn 0.000000 0.033969 0.999423
vn 1.000000 0.000000 0.000000
vn 1.000000 0.000000 0.000000
vn 1.000000 0.000000 0.000000
vn -1.000000 0.000002 0.000104
vn -1.000000 0.000001 0.000104
vn -1.000000 0.000126 0.000061
vn 0.000000 0.033220 0.999448
vn 0.000000 0.033220 0.999448
vn 0.000000 0.028211 0.999602
vn 0.000000 0.275684 0.961248
vn 1.000000 0.000000 0.000000
vn 1.000000 0.000000 0.000000
vn 1.000000 0.000000 0.000000
vn 1.000000 0.000000 0.000000
vn -0.008299 0.999966 0.000000
vn -0.008299 0.999966 0.000000
vn -0.002851 0.999996 0.000000
vn -0.002876 0.999996 0.000000
vn -0.015035 0.000000 0.999887
vn -0.015808 -0.020348 0.999668
vn 0.000000 0.000000 1.000000
vn 0.000000 0.000000 1.000000
vn -0.001260 -0.999999 0.000000
vn 0.006288 -0.999980 0.000000
vn 0.006288 -0.999980 0.000000
vn -0.001260 -0.999999 0.000000
vn -0.008299 -0.999966 0.000000
vn -0.008299 -0.999966 0.000000
vn 0.011385 -0.999935 0.000000
vn 0.011385 -0.999935 0.000000
vn 0.000000 0.028211 0.999602
vn 0.000000 0.000000 1.000000
vn 0.000000 0.000000 1.000000
vn 0.000000 0.000000 1.000000
vn -0.012411 0.999923 0.000000
vn 0.007039 0.999975 0.000000
vn 0.007039 0.999975 0.000000
vn -0.012411 0.999923 0.000000
vn 0.000000 0.000000 1.000000
vn 0.000000 0.000000 1.000000
vn 0.000000 0.000000 1.000000
vn 0.000000 0.000000 1.000000
vn 0.000000 0.000000 1.000000
vn 0.000000 0.000000 1.000000
vn 0.000000 0.000000 1.000000
vn 0.000000 0.000000 1.000000
s off
g Town_WindowX5_Town_WindowX5 Town_WindowX5_group1 Town_WindowX6 Town_WindowX5_polySurface1
usemtl Town_WindowX5_initialShadingGroup
f 17/1/1 18/2/2 19/3/3 20/4/4
f 46/5/5 47/6/6 21/7/7 22/8/8
f 22/8/9 21/7/10 23/9/11 24/12/12
f 34/13/13 35/16/14 18/2/15 17/1/16
f 23/9/17 21/7/18 36/17/19 37/18/20
f 29/19/21 30/20/22 26/21/23 25/22/24
f 50/23/25 51/24/26 26/21/27 30/20/28
f 28/25/29 27/26/30 31/27/31 32/28/32
f 6/29/33 3/30/34 20/4/35 19/3/36
f 3/66/37 9/31/38 17/1/39 20/4/40
f 47/10/41 48/11/42 11/14/43 21/69/44
f 8/32/45 45/33/46 46/5/47 22/8/48
f 12/34/49 4/35/50 24/12/51 23/9/52
f 4/65/53 8/32/54 22/8/55 24/12/56
f 35/48/57 10/52/58 18/70/59
f 9/31/60 33/36/61 34/13/62 17/1/63
f 11/14/64 36/54/65 21/15/66
f 37/18/67 38/37/68 12/34/69 23/9/70
f 1/64/71 5/39/72 30/20/73 29/19/74
f 13/40/75 1/38/76 29/19/77 25/22/78
f 51/55/79 52/56/80 14/57/81 26/68/82
f 5/39/83 49/41/84 50/23/85 30/20/86
f 7/42/87 2/43/88 32/28/89 31/27/90
f 2/63/91 16/44/92 28/25/93 32/28/94
f 34/13/95 33/36/96 39/45/97 40/46/98
f 40/46/99 41/47/100 35/16/101 34/13/102
f 41/59/103 14/57/104 10/52/105 35/48/106
f 36/54/107 11/14/108 15/60/109 42/61/110
f 37/18/111 36/17/112 42/49/113 43/50/114
f 43/50/115 44/51/116 38/37/117 37/18/118
f 40/46/119 39/45/120 13/40/121 25/22/122
f 25/22/123 26/21/124 41/47/125 40/46/126
f 14/57/127 41/59/128 26/58/129
f 42/61/130 15/60/131 27/67/132
f 43/50/133 42/49/134 27/26/135 28/25/136
f 16/44/137 44/51/138 43/50/139 28/25/140
f 46/5/141 45/33/142 6/29/143 19/3/144
f 19/3/145 18/2/146 47/6/147 46/5/148
f 10/52/149 48/11/150 47/10/151 18/53/152
f 50/23/153 49/41/154 7/42/155 31/27/156
f 27/26/157 51/24/158 50/23/159 31/27/160
f 15/60/161 52/56/162 51/55/163 27/62/164
f 11/14/165 48/11/166 52/56/167 15/60/168
f 48/11/169 10/52/170 14/57/171 52/56/172
