# This file uses centimeters as units for non-parametric coordinates.

mtllib Town_WindowX6.mtl
g Town_WindowX6_default1
v -0.060730 -0.292030 0.749237
v -0.061046 -0.302841 -0.741470
v -0.043316 0.305531 0.725922
v -0.043598 0.295837 -0.749237
v -0.060732 -0.292030 0.688934
v -0.043316 0.305531 0.665604
v -0.061048 -0.302841 -0.673103
v -0.043600 0.295837 -0.680878
v -0.045703 0.223671 0.725922
v -0.045701 0.223671 0.665604
v -0.046037 0.212128 -0.680878
v -0.046039 0.212128 -0.749237
v -0.059461 -0.248470 0.749237
v -0.059461 -0.248470 0.688934
v -0.059749 -0.258293 -0.673103
v -0.059747 -0.258293 -0.741470
v 0.013872 0.222012 0.725922
v 0.023692 0.221737 0.665604
v 0.026079 0.303596 0.665604
v 0.016259 0.303871 0.725922
v 0.023354 0.210194 -0.680878
v 0.025795 0.293903 -0.680878
v 0.013538 0.210468 -0.749237
v 0.015977 0.294178 -0.749237
v 0.000114 -0.250130 0.749237
v 0.000114 -0.250130 0.688934
v -0.000174 -0.259953 -0.673103
v -0.000172 -0.259953 -0.741470
v -0.001155 -0.293690 0.749237
v -0.001157 -0.293690 0.688934
v -0.001471 -0.304501 -0.673103
v -0.001471 -0.304501 -0.741470
v -0.046027 0.212502 0.725922
v -0.011567 0.211540 0.725922
v -0.011565 0.211540 0.665604
v -0.011911 0.199745 -0.680878
v -0.011909 0.199745 -0.749237
v -0.046371 0.200706 -0.749237
v -0.059207 -0.239735 0.749237
v -0.024745 -0.240696 0.749237
v -0.024746 -0.240696 0.688934
v -0.025027 -0.250320 -0.673103
v -0.025025 -0.250320 -0.741470
v -0.059487 -0.249363 -0.741470
v -0.043359 0.304070 -0.185928
v 0.026036 0.302139 -0.185928
v 0.023595 0.218430 -0.185928
v -0.045798 0.220364 -0.185928
v -0.061077 -0.303871 0.077202
v -0.001502 -0.305531 0.077202
v -0.000204 -0.260986 0.077202
v -0.059778 -0.259327 0.077202
vt 0.214522 0.442628
vt 0.216142 0.425642
vt 0.239417 0.425994
vt 0.239595 0.444514
vt 0.240183 0.182703
vt 0.216278 0.182761
vt 0.212102 0.041753
vt 0.235951 0.041020
vt 0.210465 0.022110
vt 0.449146 0.172150
vt 0.428063 0.172339
vt 0.235730 0.020033
vt 0.207385 0.447506
vt 0.425609 0.021997
vt 0.425283 0.000903
vt 0.206970 0.425335
vt 0.202149 0.042027
vt 0.203362 0.017446
vt 0.020690 0.449257
vt 0.020239 0.431025
vt 0.032752 0.430995
vt 0.033272 0.447948
vt 0.018061 0.255726
vt 0.030813 0.255811
vt 0.033625 0.021808
vt 0.032652 0.041250
vt 0.019896 0.041059
vt 0.020746 0.020409
vt 0.259336 0.426271
vt 0.258482 0.445353
vt 0.210621 0.460227
vt 0.255989 0.040095
vt 0.260057 0.182519
vt 0.206390 0.004851
vt 0.233037 0.000903
vt 0.207534 0.460416
vt 0.203159 0.004801
vt 0.024580 0.467817
vt 0.003070 0.431221
vt 0.038135 0.464938
vt 0.000998 0.255749
vt 0.002760 0.040907
vt 0.002819 0.020448
vt 0.038511 0.005372
vt 0.040226 0.465437
vt 0.039553 0.452697
vt 0.040512 0.430514
vt 0.426418 0.441584
vt 0.040299 0.042005
vt 0.040094 0.017411
vt 0.040433 0.004917
vt 0.429278 0.430953
vt 0.450368 0.430855
vt 0.421966 0.011577
vt 0.264299 0.252477
vt 0.282406 0.252334
vt 0.285740 0.438159
vt 0.286648 0.456249
vt 0.288915 0.448492
vt 0.282528 0.024360
vt 0.285071 0.013831
vt 0.264406 0.024347
vt 0.024931 0.002198
vt 0.002965 0.449070
vt 0.282223 0.006233
vt 0.267620 0.438483
vt 0.254427 0.018663
vt 0.446716 0.021655
vt 0.237038 0.463890
vt 0.430349 0.452012
vn 0.924424 -0.353850 0.142234
vn 0.998663 -0.050463 0.011194
vn 0.999519 -0.029130 0.010672
vn 0.986571 -0.028775 0.160778
vn 0.999576 -0.029133 -0.000001
vn 0.999576 -0.029133 -0.000001
vn 0.997482 -0.068498 -0.018404
vn 0.999426 -0.029134 -0.017263
vn 0.999426 -0.029134 -0.017263
vn 0.997482 -0.068498 -0.018404
vn 0.929851 -0.345613 -0.126212
vn 0.989417 -0.028858 -0.142202
vn 0.995776 -0.091798 0.001902
vn 0.995410 -0.095686 0.002020
vn 0.998663 -0.050463 0.011194
vn 0.924424 -0.353850 0.142234
vn 0.929851 -0.345613 -0.126212
vn 0.997482 -0.068498 -0.018404
vn 0.995636 -0.093306 -0.001729
vn 0.995512 -0.094614 -0.001765
vn 0.999575 -0.029168 -0.000015
vn 0.999576 -0.029131 -0.000002
vn 0.999765 0.021683 -0.000002
vn 0.913578 0.406663 -0.000015
vn 0.999576 -0.029118 0.000000
vn 0.999576 -0.029118 0.000000
vn 0.999765 0.021683 -0.000002
vn 0.999576 -0.029131 -0.000002
vn 0.917064 0.398740 0.000015
vn 0.999852 0.017196 0.000002
vn 0.999576 -0.029114 0.000002
vn 0.999575 -0.029157 0.000014
vn 0.027835 0.999611 -0.001608
vn 0.027835 0.999613 0.000002
vn 0.027835 0.999613 0.000002
vn 0.027835 0.999611 -0.001618
vn 0.000000 0.000000 1.000000
vn 0.000000 0.000000 1.000000
vn 0.000000 0.000000 1.000000
vn 0.000000 0.000000 1.000000
vn -0.027835 -0.999576 0.008575
vn -0.027835 -0.999576 0.008575
vn -0.027832 -0.999474 0.016643
vn -0.027832 -0.999474 0.016643
vn 0.027833 0.999504 -0.014750
vn 0.027835 0.999587 -0.007202
vn 0.027835 0.999587 -0.007202
vn 0.027833 0.999501 -0.014909
vn -0.000003 0.000000 -1.000000
vn -0.000003 0.000000 -1.000000
vn -0.000003 0.000000 -1.000000
vn -0.000003 0.000000 -1.000000
vn 0.027835 0.999613 0.000002
vn 0.027833 0.999504 -0.014750
vn 0.027833 0.999501 -0.014909
vn 0.027835 0.999613 0.000002
vn -0.003084 -0.048741 -0.998807
vn -0.003164 -0.049998 -0.998744
vn 0.000000 0.000000 -1.000000
vn 0.000000 0.000000 1.000000
vn 0.001388 0.049793 0.998759
vn 0.001356 0.048641 0.998815
vn 0.000000 0.000000 1.000000
vn 0.001084 0.016748 0.999859
vn 0.001056 0.016322 0.999866
vn -0.000002 0.000000 1.000000
vn -0.000450 -0.016287 -0.999867
vn -0.000460 -0.016680 -0.999861
vn -0.000003 0.000000 -1.000000
vn -0.000003 0.000000 -1.000000
vn -0.027835 -0.999613 0.000001
vn -0.027832 -0.999457 0.017623
vn -0.027832 -0.999457 0.017623
vn -0.027835 -0.999613 0.000001
vn 0.000001 0.000000 1.000000
vn 0.000001 0.000000 1.000000
vn 0.000001 0.000000 1.000000
vn 0.000001 0.000000 1.000000
vn 0.027835 0.999587 -0.007217
vn 0.027835 0.999587 -0.007217
vn 0.027832 0.999455 -0.017752
vn 0.027832 0.999455 -0.017752
vn -0.027832 -0.999457 0.017623
vn -0.027835 -0.999581 0.007939
vn -0.027835 -0.999581 0.007939
vn -0.027832 -0.999457 0.017623
vn -0.027835 -0.999612 -0.001260
vn -0.027836 -0.999613 0.000000
vn -0.027836 -0.999613 0.000000
vn -0.027835 -0.999612 -0.001260
vn -0.000003 0.000000 -1.000000
vn -0.000002 0.000000 -1.000000
vn -0.000003 0.000000 -1.000000
vn -0.000003 0.000000 -1.000000
vn 0.001356 0.048641 0.998815
vn 0.001388 0.049793 0.998759
vn 0.001398 0.050148 0.998741
vn 0.001370 0.049163 0.998790
vn 0.999635 0.027003 0.000000
vn 0.999719 0.023697 0.000000
vn 0.995410 -0.095686 0.002020
vn 0.995776 -0.091798 0.001902
vn -0.003112 -0.049190 -0.998785
vn -0.003173 -0.050151 -0.998737
vn -0.003164 -0.049998 -0.998744
vn -0.003084 -0.048741 -0.998807
vn 0.001056 0.016322 0.999866
vn 0.001084 0.016748 0.999859
vn 0.001087 0.016802 0.999858
vn 0.001066 0.016475 0.999864
vn 0.995512 -0.094614 -0.001765
vn 0.995636 -0.093306 -0.001729
vn 0.999660 0.026091 0.000027
vn 0.999688 0.024982 0.000027
vn -0.000454 -0.016465 -0.999864
vn -0.000463 -0.016803 -0.999859
vn -0.000460 -0.016680 -0.999861
vn -0.000450 -0.016287 -0.999867
vn 0.001370 0.049163 0.998790
vn 0.001398 0.050148 0.998741
vn 0.000001 0.000000 1.000000
vn 0.000001 0.000000 1.000000
vn 0.913578 0.406663 -0.000015
vn 0.999765 0.021683 -0.000002
vn 0.999719 0.023697 0.000000
vn 0.999635 0.027003 0.000000
vn -0.003173 -0.050151 -0.998737
vn -0.003112 -0.049190 -0.998785
vn 0.000000 0.000000 -1.000000
vn 0.001066 0.016475 0.999864
vn 0.001087 0.016802 0.999858
vn 0.000000 0.000000 1.000000
vn 0.999688 0.024982 0.000027
vn 0.999660 0.026091 0.000027
vn 0.999852 0.017196 0.000002
vn 0.917064 0.398740 0.000015
vn -0.000002 0.000000 -1.000000
vn -0.000463 -0.016803 -0.999859
vn -0.000454 -0.016465 -0.999864
vn -0.000003 0.000000 -1.000000
vn 0.027835 0.999587 -0.007202
vn 0.027835 0.999587 -0.007202
vn 0.027835 0.999611 -0.001608
vn 0.027835 0.999611 -0.001618
vn 0.999519 -0.029130 0.010672
vn 0.998663 -0.050463 0.011194
vn 0.999576 -0.029133 -0.000001
vn 0.999576 -0.029133 -0.000001
vn -0.027836 -0.999605 0.003885
vn -0.027835 -0.999576 0.008575
vn -0.027835 -0.999576 0.008575
vn -0.027836 -0.999605 0.003885
vn -0.027835 -0.999581 0.007939
vn -0.027835 -0.999581 0.007939
vn -0.027835 -0.999612 -0.001260
vn -0.027835 -0.999612 -0.001260
vn 0.999852 0.017196 0.000002
vn 0.999576 -0.029118 0.000000
vn 0.999576 -0.029118 0.000000
vn 0.999576 -0.029114 0.000002
vn 0.027836 0.999612 0.001375
vn 0.027835 0.999587 -0.007217
vn 0.027835 0.999587 -0.007217
vn 0.027836 0.999612 0.001375
vn 0.999576 -0.029131 0.000001
vn 0.999576 -0.029131 0.000001
vn 0.999576 -0.029131 0.000001
vn 0.999576 -0.029131 0.000001
vn 0.999576 -0.029132 -0.000001
vn 0.999576 -0.029132 -0.000001
vn 0.999576 -0.029132 -0.000001
vn 0.999576 -0.029132 -0.000001
s off
g Town_WindowX6_Town_WindowX6 Town_WindowX6_group1 Town_WindowX7 Town_WindowX6_polySurface1
usemtl Town_WindowX6_initialShadingGroup
f 17/1/1 18/2/2 19/3/3 20/4/4
f 46/5/5 47/6/6 21/7/7 22/8/8
f 22/8/9 21/7/10 23/9/11 24/12/12
f 34/13/13 35/16/14 18/2/15 17/1/16
f 23/9/17 21/7/18 36/17/19 37/18/20
f 29/19/21 30/20/22 26/21/23 25/22/24
f 50/23/25 51/24/26 26/21/27 30/20/28
f 28/25/29 27/26/30 31/27/31 32/28/32
f 6/29/33 3/30/34 20/4/35 19/3/36
f 3/69/37 9/31/38 17/1/39 20/4/40
f 47/10/41 48/11/42 11/14/43 21/68/44
f 8/32/45 45/33/46 46/5/47 22/8/48
f 12/34/49 4/35/50 24/12/51 23/9/52
f 4/67/53 8/32/54 22/8/55 24/12/56
f 35/48/57 10/52/58 18/70/59
f 9/31/60 33/36/61 34/13/62 17/1/63
f 11/14/64 36/54/65 21/15/66
f 37/18/67 38/37/68 12/34/69 23/9/70
f 1/64/71 5/39/72 30/20/73 29/19/74
f 13/40/75 1/38/76 29/19/77 25/22/78
f 51/55/79 52/56/80 14/57/81 26/66/82
f 5/39/83 49/41/84 50/23/85 30/20/86
f 7/42/87 2/43/88 32/28/89 31/27/90
f 2/63/91 16/44/92 28/25/93 32/28/94
f 34/13/95 33/36/96 39/45/97 40/46/98
f 40/46/99 41/47/100 35/16/101 34/13/102
f 41/59/103 14/57/104 10/52/105 35/48/106
f 36/54/107 11/14/108 15/60/109 42/61/110
f 37/18/111 36/17/112 42/49/113 43/50/114
f 43/50/115 44/51/116 38/37/117 37/18/118
f 40/46/119 39/45/120 13/40/121 25/22/122
f 25/22/123 26/21/124 41/47/125 40/46/126
f 14/57/127 41/59/128 26/58/129
f 42/61/130 15/60/131 27/65/132
f 43/50/133 42/49/134 27/26/135 28/25/136
f 16/44/137 44/51/138 43/50/139 28/25/140
f 46/5/141 45/33/142 6/29/143 19/3/144
f 19/3/145 18/2/146 47/6/147 46/5/148
f 10/52/149 48/11/150 47/10/151 18/53/152
f 50/23/153 49/41/154 7/42/155 31/27/156
f 27/26/157 51/24/158 50/23/159 31/27/160
f 15/60/161 52/56/162 51/55/163 27/62/164
f 11/14/165 48/11/166 52/56/167 15/60/168
f 48/11/169 10/52/170 14/57/171 52/56/172
