# This file uses centimeters as units for non-parametric coordinates.

mtllib BushX3_Bridge.mtl
g default
v -0.388719 0.163096 0.481778
v 0.397397 0.190634 0.481778
v -0.445846 0.185067 -0.451085
v 0.371761 0.229021 -0.514103
v 0.239424 0.270055 -0.599487
v -0.018507 0.305712 -0.591191
v -0.238939 0.242705 -0.551783
v 0.217617 0.210802 0.566520
v -0.018618 0.246093 0.627549
v -0.248544 0.210802 0.566520
v 0.390795 0.365804 0.318820
v 0.384172 0.365804 -0.307319
v 0.395442 -0.413441 -0.307319
v 0.396178 -0.390518 0.318820
v -0.388677 0.387011 -0.301961
v -0.371621 0.333938 0.300920
v -0.388719 -0.350119 0.318820
v -0.429989 -0.356683 -0.307319
v 0.193058 -0.477203 0.373477
v 0.193058 -0.496086 -0.306744
v -0.018618 -0.514436 0.327154
v -0.018618 -0.514436 -0.315352
v -0.197596 -0.485215 -0.313416
v -0.157171 -0.498429 0.354004
v 0.178304 0.467051 -0.313416
v 0.178304 0.467051 0.325145
v -0.018618 0.479012 -0.315352
v -0.018618 0.479012 0.327154
v -0.224224 0.413705 0.316032
v -0.248544 0.441716 -0.312412
v -0.018618 -0.296064 0.749684
v -0.018618 -0.437962 0.635266
v 0.259871 -0.257999 0.683787
v 0.237934 -0.401469 0.572558
v -0.248544 -0.257999 0.683787
v -0.248544 -0.401469 0.572558
v 0.280928 -0.262878 -0.685562
v 0.280928 -0.401469 -0.567705
v -0.018618 -0.300548 -0.749684
v -0.018618 -0.437962 -0.629840
v -0.248544 -0.262878 -0.685562
v -0.248544 -0.397707 -0.567705
v 0.376087 -0.350119 0.475402
v 0.408653 -0.214195 0.592179
v 0.383880 -0.350119 -0.469567
v 0.445259 -0.221445 -0.550499
v -0.358775 -0.314746 0.475402
v -0.409648 -0.214195 0.568000
v -0.388719 -0.330678 -0.469567
v -0.419358 -0.226703 -0.572204
v 0.565314 0.007843 0.351922
v 0.541440 0.007843 -0.320389
v 0.428759 0.012180 0.550001
v 0.225391 0.023281 0.641402
v -0.018618 0.029230 0.707188
v -0.248544 0.023281 0.641402
v -0.409648 0.012180 0.525822
v -0.429752 -0.007512 -0.542241
v -0.247810 0.000551 -0.665222
v -0.018618 0.002582 -0.735986
v 0.276617 0.003588 -0.670520
v 0.446965 -0.000124 -0.533422
v -0.535076 0.018103 -0.402927
v -0.551913 0.019982 0.333653
v 0.407359 0.420685 0.056040
v 0.618183 0.008236 0.062502
v 0.443854 -0.424566 0.056040
v 0.201425 -0.499980 0.057152
v -0.019025 -0.535691 0.057504
v -0.153683 -0.539623 0.057152
v -0.449318 -0.378921 0.056040
v -0.618183 0.020878 -0.054601
v -0.346516 0.445970 0.056040
v -0.190413 0.501129 0.057152
v -0.017839 0.539623 0.057504
v 0.186060 0.521279 -0.082252
v 0.548923 -0.142817 0.390198
v 0.576994 -0.304443 0.049704
v 0.541038 -0.182564 -0.351909
v 0.494158 0.225919 0.326805
v 0.548909 0.226219 0.059948
v 0.484016 0.230402 -0.314191
v -0.553626 -0.189577 0.325471
v -0.582896 -0.176301 0.059290
v -0.535031 -0.191813 -0.389718
v -0.487652 0.218921 -0.309529
v -0.529726 0.221033 0.059715
v -0.494162 0.211052 0.315417
vt 0.879465 0.451481
vt 0.554147 0.911644
vt 0.457857 0.974374
vt 0.955517 0.403043
vt 0.963134 0.507401
vt 0.394030 0.844226
vt 0.498871 0.794606
vt 0.882236 0.516042
vt 0.429778 0.663456
vt 0.333812 0.716487
vt 0.299481 0.650807
vt 0.470081 0.107995
vt 0.397817 0.602697
vt 0.678734 0.502656
vt 0.702687 0.405258
vt 0.756183 0.410220
vt 0.729525 0.511780
vt 0.390224 0.021814
vt 0.186639 0.331259
vt 0.472198 0.000998
vt 0.103854 0.191666
vt 0.226098 0.174058
vt 0.278760 0.298985
vt 0.566394 0.761029
vt 0.599955 0.841506
vt 0.010386 0.406079
vt 0.081484 0.373145
vt 0.135808 0.502243
vt 0.089607 0.518632
vt 0.512529 0.075359
vt 0.876851 0.336789
vt 0.895515 0.229849
vt 0.958537 0.242708
vt 0.952135 0.324771
vt 0.261272 0.123655
vt 0.338458 0.192853
vt 0.251000 0.553093
vt 0.283115 0.240102
vt 0.680310 0.235929
vt 0.733590 0.232386
vt 0.742710 0.331946
vt 0.688708 0.321344
vt 0.392687 0.142569
vt 0.326599 0.060825
vt 0.813426 0.338825
vt 0.813454 0.228703
vt 0.811385 0.054576
vt 0.810354 0.000998
vt 0.910660 0.013178
vt 0.907318 0.070904
vt 0.731490 0.072225
vt 0.719971 0.016917
vt 0.969452 0.028747
vt 0.962585 0.089299
vt 0.209477 0.462821
vt 0.309157 0.420053
vt 0.345374 0.491549
vt 0.268909 0.589985
vt 0.370272 0.542116
vt 0.814318 0.413472
vt 0.810153 0.519673
vt 0.162912 0.742641
vt 0.103420 0.665858
vt 0.194908 0.624042
vt 0.211943 0.693070
vt 0.083608 0.580205
vt 0.167206 0.586270
vt 0.490884 0.597960
vt 0.482583 0.648775
vt 0.258552 0.749710
vt 0.216625 0.776186
vt 0.043864 0.491793
vt 0.199503 0.837814
vt 0.668958 0.093536
vt 0.667434 0.044882
vt 0.581728 0.254267
vt 0.622964 0.298750
vt 0.526446 0.369726
vt 0.500769 0.317339
vt 0.636114 0.206288
vt 0.662097 0.261800
vt 0.432854 0.400282
vt 0.427016 0.342299
vt 0.315311 0.880393
vt 0.244456 0.916871
vt 0.330521 0.290680
vt 0.357472 0.400560
vt 0.409385 0.433149
vt 0.461794 0.496397
vt 0.376489 0.999002
vt 0.294636 0.968199
vt 0.530743 0.685899
vt 0.036995 0.256838
vt 0.000970 0.344701
vt 0.363729 0.353964
vt 0.970879 0.173876
vt 0.898746 0.165472
vt 0.534246 0.176682
vt 0.591402 0.132126
vt 0.389835 0.263907
vt 0.731109 0.168000
vt 0.669866 0.178743
vt 0.454667 0.231145
vt 0.812630 0.159471
vt 0.283555 0.842251
vt 0.358914 0.761402
vt 0.479516 0.735239
vt 0.351271 0.946027
vt 0.423982 0.906878
vt 0.529680 0.862699
vt 0.111434 0.432757
vt 0.179297 0.397770
vt 0.298729 0.358457
vt 0.238003 0.240911
vt 0.132470 0.280634
vt 0.060655 0.311768
vn 0.265475 0.961927 -0.064955
vn 0.604437 0.796208 0.026628
vn 0.614630 0.742758 -0.265593
vn 0.240243 0.901468 -0.360054
vn 0.902624 0.430067 -0.017690
vn 0.880612 0.405219 -0.245602
vn 0.579849 -0.798406 -0.162242
vn 0.586884 -0.809065 0.031338
vn 0.247501 -0.968619 0.022806
vn 0.226516 -0.964819 -0.133471
vn -0.625533 0.735342 -0.260731
vn -0.611775 0.789182 0.054059
vn -0.281737 0.958775 0.037079
vn -0.292742 0.882915 -0.367102
vn -0.866477 0.472473 -0.161204
vn -0.873344 0.485705 0.036891
vn -0.347735 -0.937491 0.013827
vn -0.649010 -0.760488 0.021060
vn -0.658550 -0.743187 -0.118257
vn -0.343310 -0.927831 -0.145835
vn 0.058478 -0.998285 0.002820
vn 0.013993 -0.986342 -0.164116
vn -0.058074 0.997420 0.042204
vn -0.086106 0.922687 -0.375812
vn 0.652348 0.486546 -0.581133
vn -0.741943 -0.170572 0.648402
vn -0.906034 -0.301199 0.297290
vn -0.620987 -0.761848 0.184292
vn -0.649673 -0.697142 0.303180
vn 0.270976 0.583499 -0.765572
vn 0.262802 0.871713 0.413584
vn 0.292381 0.572102 0.766298
vn 0.535155 0.494332 0.685015
vn 0.525754 0.768256 0.365192
vn -0.345747 0.574003 -0.742280
vn -0.603834 0.459004 -0.651690
vn -0.626184 0.459676 0.629755
vn -0.377801 0.591490 0.712325
vn -0.342388 0.822974 0.453303
vn -0.593097 0.726659 0.346702
vn -0.065851 0.644551 -0.761720
vn -0.042146 0.888581 0.456780
vn -0.029835 0.622503 0.782049
vn 0.688824 -0.188927 0.699877
vn 0.906302 -0.255673 0.336522
vn 0.943172 0.112440 0.312705
vn 0.639555 0.220570 0.736422
vn 0.002206 -0.174737 0.984613
vn 0.007620 -0.836774 0.547496
vn 0.334777 -0.805219 0.489434
vn 0.369145 -0.149095 0.917334
vn -0.428337 -0.139803 0.892739
vn -0.432144 -0.784197 0.445293
vn 0.654154 -0.667771 0.355196
vn 0.384897 -0.213487 -0.897930
vn 0.328872 -0.821015 -0.466667
vn -0.005590 -0.863258 -0.504731
vn -0.000617 -0.250788 -0.968042
vn 0.789289 -0.199340 -0.580763
vn 0.655222 -0.679441 -0.330219
vn -0.379646 -0.817109 -0.433823
vn -0.420637 -0.206744 -0.883358
vn -0.608319 -0.720130 -0.333708
vn -0.700132 -0.211253 -0.682047
vn 0.319085 0.239024 0.917089
vn 0.345081 0.190979 -0.918938
vn 0.777325 0.165086 -0.607053
vn -0.660767 0.185347 -0.727346
vn -0.389920 0.237816 -0.889610
vn -0.393517 0.216944 0.893353
vn -0.714322 0.166383 0.679750
vn -0.030874 0.221946 -0.974570
vn 0.000114 0.230436 0.973087
vn 0.053004 -0.982891 0.176394
vn 0.255047 -0.949070 0.184980
vn -0.347888 -0.916165 0.199037
vn 0.585845 -0.775273 0.236088
vn 0.960556 0.115325 -0.253046
vn 0.995855 0.088636 -0.020383
vn 0.910203 -0.414160 0.001142
vn 0.933537 -0.259889 -0.246913
vn 0.852082 0.432286 0.295102
vn -0.939242 -0.342473 0.023161
vn -0.917304 -0.315027 -0.243539
vn -0.838652 0.462531 0.287625
vn -0.932282 0.141731 0.332811
vn -0.989451 0.126950 -0.069792
vn -0.946251 0.114838 -0.302358
s 1
g BushX3_Bridge group1
usemtl lambert7SG
f 76/1/1 65/4/2 12/5/3 25/8/4
f 12/2/3 65/3/2 81/109/5 82/110/6
f 13/9/7 67/10/8 68/11/9 20/13/10
f 15/14/11 73/15/12 74/16/13 30/17/14
f 86/114/15 87/115/16 73/21/12 15/22/11
f 70/37/17 71/55/18 18/56/19 23/57/20
f 20/13/10 68/11/9 69/58/21 22/59/22
f 22/59/22 69/58/21 70/37/17 23/57/20
f 75/60/23 76/1/1 25/8/4 27/61/24
f 74/16/13 75/60/23 27/61/24 30/17/14
f 12/2/3 82/110/6 4/25/25
f 48/72/26 83/111/27 17/28/28 47/29/29
f 5/12/30 25/18/4 12/20/3 4/30/25
f 26/31/31 8/32/32 2/33/33 11/34/34
f 15/22/11 30/35/14 7/36/35 3/38/36
f 1/39/37 10/40/38 29/41/39 16/42/40
f 5/12/30 6/43/41 27/44/24 25/18/4
f 6/43/41 7/36/35 30/35/14 27/44/24
f 26/31/31 28/45/42 9/46/43 8/32/32
f 28/45/42 29/41/39 10/40/38 9/46/43
f 44/73/44 77/105/45 51/84/46 53/85/47
f 3/38/36 86/114/15 15/22/11
f 31/47/48 32/48/49 34/49/50 33/50/51
f 32/48/49 31/47/48 35/51/52 36/52/53
f 33/50/51 34/49/50 43/53/54 44/54/44
f 36/52/53 35/51/52 48/74/26 47/75/29
f 37/76/55 38/77/56 40/78/57 39/79/58
f 38/77/56 37/76/55 46/80/59 45/81/60
f 39/79/58 40/78/57 42/82/61 41/83/62
f 41/83/62 42/82/61 49/87/63 50/95/64
f 53/96/47 54/97/65 33/50/51 44/54/44
f 37/76/55 61/98/66 62/99/67 46/80/59
f 58/86/68 59/100/69 41/83/62 50/95/64
f 48/74/26 35/51/52 56/101/70 57/102/71
f 37/76/55 39/79/58 60/103/72 61/98/66
f 39/79/58 41/83/62 59/100/69 60/103/72
f 35/51/52 31/47/48 55/104/73 56/101/70
f 31/47/48 33/50/51 54/97/65 55/104/73
f 34/62/50 32/63/49 21/64/74 19/65/75
f 32/63/49 36/66/53 24/67/76 21/64/74
f 20/13/10 38/68/56 45/69/60 13/9/7
f 34/62/50 19/65/75 14/70/77 43/71/54
f 17/28/28 24/67/76 36/66/53 47/29/29
f 49/87/63 42/88/61 23/57/20 18/56/19
f 20/13/10 22/59/22 40/89/57 38/68/56
f 22/59/22 23/57/20 42/88/61 40/89/57
f 52/7/78 66/6/79 78/106/80 79/107/81
f 8/32/32 54/97/65 53/96/47 2/33/33
f 55/104/73 54/97/65 8/32/32 9/46/43
f 56/101/70 55/104/73 9/46/43 10/40/38
f 57/102/71 56/101/70 10/40/38 1/39/37
f 3/38/36 7/36/35 59/100/69 58/86/68
f 60/103/72 59/100/69 7/36/35 6/43/41
f 61/98/66 60/103/72 6/43/41 5/12/30
f 62/99/67 61/98/66 5/12/30 4/30/25
f 2/91/33 80/108/82 11/90/34
f 62/24/67 52/7/78 79/107/81 46/92/59
f 71/55/18 84/112/83 85/113/84 18/56/19
f 16/93/40 88/116/85 1/94/37
f 50/95/64 49/87/63 18/56/19 85/113/84
f 80/108/82 81/109/5 65/3/2 11/90/34
f 77/105/45 78/106/80 66/6/79 51/84/46
f 68/11/9 67/10/8 14/70/77 19/65/75
f 69/58/21 68/11/9 19/65/75 21/64/74
f 70/37/17 69/58/21 21/64/74 24/67/76
f 17/28/28 71/55/18 70/37/17 24/67/76
f 83/111/27 84/112/83 71/55/18 17/28/28
f 16/93/40 73/21/12 87/115/16 88/116/85
f 74/16/13 73/15/12 16/42/40 29/41/39
f 28/45/42 75/60/23 74/16/13 29/41/39
f 26/31/31 76/1/1 75/60/23 28/45/42
f 11/34/34 65/4/2 76/1/1 26/31/31
f 44/73/44 43/71/54 14/70/77 77/105/45
f 67/10/8 78/106/80 77/105/45 14/70/77
f 79/107/81 78/106/80 67/10/8 13/9/7
f 46/92/59 79/107/81 13/9/7 45/69/60
f 53/85/47 51/84/46 80/108/82 2/91/33
f 66/6/79 81/109/5 80/108/82 51/84/46
f 82/110/6 81/109/5 66/6/79 52/7/78
f 4/25/25 82/110/6 52/7/78 62/24/67
f 57/26/71 64/27/86 83/111/27 48/72/26
f 64/27/86 72/19/87 84/112/83 83/111/27
f 85/113/84 84/112/83 72/19/87 63/23/88
f 50/95/64 85/113/84 63/23/88 58/86/68
f 58/86/68 63/23/88 86/114/15 3/38/36
f 72/19/87 87/115/16 86/114/15 63/23/88
f 88/116/85 87/115/16 72/19/87 64/27/86
f 1/94/37 88/116/85 64/27/86 57/26/71
