# This file uses centimeters as units for non-parametric coordinates.

mtllib BrickPlanterCornerPiece.mtl
g default
v 0.000000 1.044328 -0.403451
v 0.000000 0.000000 -0.403451
v -0.403452 1.044328 0.000000
v 0.000000 1.044328 0.000000
v -0.403452 0.000000 0.000000
v -0.468916 1.044328 -0.468916
v -0.468916 0.000000 -0.468916
v -0.032729 1.044328 -0.468916
v 0.000000 1.044328 -0.436187
v -0.032729 0.000000 -0.468916
v 0.000000 0.000000 -0.436187
v -0.468916 0.000000 -0.032729
v -0.436188 0.000000 0.000000
v -0.468916 1.044328 -0.032729
v -0.436188 1.044328 0.000000
v -0.403452 1.100780 0.000000
v 0.000000 1.100780 0.000000
v 0.000000 1.100780 -0.403451
v 0.000000 1.100780 -0.436187
v -0.468916 1.100780 -0.468916
v -0.436188 1.100780 0.000000
v -0.468916 1.100780 -0.032729
v -0.032729 1.100780 -0.468916
v -0.340305 1.251431 -0.087609
v -0.087609 1.251431 -0.087609
v -0.087609 1.251431 -0.340305
v -0.340305 1.251431 -0.340305
v -0.087609 1.251431 -0.360808
v -0.381307 1.251431 -0.381307
v -0.360808 1.251431 -0.087609
v -0.381307 1.251431 -0.108108
v -0.108108 1.251431 -0.381307
v -0.021756 0.588745 -0.376241
v -0.020887 0.576765 -0.402932
v -0.049084 0.561438 -0.429061
v -0.436454 0.516802 -0.421634
v -0.448029 0.676429 -0.065984
v -0.419831 0.691756 -0.039855
v -0.390759 0.695106 -0.040413
v 0.000000 0.695106 -0.040413
v 0.000000 0.000000 0.000000
vt 0.604889 0.904650
vt 0.625215 0.327727
vt 0.324889 0.901292
vt 0.900445 0.089590
vt 0.999002 0.271460
vt 0.584874 0.680860
vt 0.390833 0.702674
vt 0.544155 0.238308
vt 0.970926 0.273984
vt 0.877147 0.109494
vt 0.751649 0.265957
vt 0.930586 0.467872
vt 0.904040 0.453369
vt 0.544385 0.253915
vt 0.311471 0.274150
vt 0.304401 0.259894
vt 0.579531 0.644221
vt 0.921982 0.485422
vt 0.898448 0.468710
vt 0.642586 0.000960
vt 0.582425 0.659238
vt 0.396899 0.680422
vt 0.864592 0.058082
vt 0.851393 0.083860
vt 0.634951 0.030384
vt 0.888349 0.074113
vt 0.868809 0.096166
vt 0.883487 0.484765
vt 0.875746 0.281437
vt 0.813415 0.181410
vt 0.824788 0.393615
vt 0.819038 0.403315
vt 0.814215 0.392915
vt 0.687926 0.452610
vt 0.677614 0.482477
vt 0.615416 0.333104
vt 0.610546 0.348260
vt 0.811833 0.417827
vt 0.678424 0.589196
vt 0.692710 0.616607
vt 0.397166 0.664103
vt 0.002810 0.282408
vt 0.001688 0.266043
vt 0.062469 0.961357
vt 0.032315 0.737554
vt 0.029763 0.713798
vt 0.028729 0.696912
vt 0.793944 0.163713
vt 0.656699 0.130296
vt 0.806993 0.172526
vt 0.902807 0.507738
vt 0.559978 0.447836
vt 0.379180 0.452832
vt 0.012658 0.488314
vt 0.522902 0.000960
vt 0.542837 0.216196
vt 0.295288 0.239281
vt 0.262802 0.040339
vt 0.000998 0.242932
vt 0.001558 0.023325
vn -0.000000 0.864048 0.503410
vn 0.387385 0.836579 0.387387
vn 0.503409 0.864049 0.000000
vn 0.000000 1.000000 0.000000
vn -0.003853 -0.076624 -0.997053
vn -0.003860 -0.076773 -0.997041
vn -0.008686 -0.006102 -0.999944
vn -0.009335 0.005871 -0.999939
vn -0.998649 -0.051914 -0.002263
vn -0.998649 -0.051918 -0.002263
vn -0.999774 0.012584 -0.017151
vn -0.999828 -0.014350 -0.011722
vn 0.000000 1.000000 -0.000003
vn 0.459932 0.863549 -0.206748
vn -0.525290 0.669432 -0.525291
vn 0.999019 -0.039150 0.020712
vn 0.999536 -0.024428 -0.018220
vn 0.999794 -0.011246 0.016884
vn 0.999872 0.009867 0.012629
vn 0.000981 -0.098472 0.995139
vn 0.012859 -0.096333 0.995266
vn 0.008759 0.004785 0.999950
vn 0.009307 -0.005323 0.999943
vn -0.206748 0.863549 0.459933
vn -0.830115 0.555527 0.047934
vn 0.703751 -0.072386 -0.706749
vn 0.703731 -0.072667 -0.706740
vn 0.697082 -0.018569 -0.716751
vn 0.692430 0.017305 -0.721277
vn -0.681551 -0.092631 0.725884
vn -0.681358 -0.093246 0.725986
vn -0.696921 0.017135 0.716943
vn -0.692094 -0.019697 0.721538
vn 0.047934 0.555528 -0.830115
vn -0.000002 1.000000 0.000001
vn 0.000000 -0.098910 0.995096
vn 0.000000 0.000000 1.000000
vn 0.000000 0.000000 1.000000
vn 0.999499 -0.022820 -0.021951
vn 1.000000 0.000000 0.000000
vn 1.000000 0.000000 0.000000
vn 1.000000 0.000000 0.000000
vn -1.000000 0.000000 0.000000
vn -1.000000 0.000000 0.000000
vn -0.707114 0.000000 0.707100
vn -0.707114 0.000000 0.707100
vn 0.707102 0.000000 -0.707111
vn 0.707102 0.000000 -0.707111
vn 0.000000 0.000000 -1.000000
vn 0.000000 0.000000 -1.000000
vn 0.000000 0.000000 1.000000
vn 0.000000 0.502712 0.864454
vn 0.546135 0.635196 0.546134
vn 0.864453 0.502714 0.000000
vn 0.694885 0.601390 -0.394291
vn -0.546135 0.635195 -0.546135
vn -0.845039 0.529314 0.075731
vn -0.394293 0.601389 0.694884
vn 0.075732 0.529314 -0.845039
vn 0.999318 0.036183 0.007315
vn 0.999318 0.036183 0.007315
vn 0.684097 0.069025 -0.726118
vn 0.684097 0.069025 -0.726118
vn -0.013364 0.080742 -0.996646
vn -0.013364 0.080742 -0.996645
vn -0.998710 0.044931 -0.023656
vn -0.998710 0.044931 -0.023656
vn -0.701053 0.057067 0.710822
vn -0.701053 0.057067 0.710822
vn 0.005879 0.057657 0.998319
vn 0.005879 0.057657 0.998319
vn 0.000000 -0.000433 1.000000
vn 0.000000 0.000000 1.000000
vn 0.000000 0.058041 0.998314
vn 0.000000 0.058041 0.998314
vn 0.999576 -0.004332 -0.028793
vn 0.999545 0.003623 -0.029937
vn 0.999356 0.016608 -0.031799
vn 0.999356 0.016608 -0.031799
s 1
g BrickPlanterCornerPiece BrickPlanters
usemtl initialShadingGroup
f 24/2/1 25/11/2 26/33/3 27/34/4
s 2
f 6/55/5 8/56/6 35/57/7 36/58/8
s 3
f 14/6/9 6/1/10 36/3/11 37/7/12
s 1
f 27/34/13 26/33/3 28/32/14 29/35/15
s 5
f 9/8/16 1/14/17 33/15/18 34/16/19
s 6
f 3/17/20 15/21/21 38/22/22 39/41/23
s 1
f 30/36/24 29/35/15 31/37/25
s 8
f 8/56/26 9/8/27 34/16/28 35/57/29
s 9
f 15/21/30 14/6/31 37/7/32 38/22/33
s 1
f 29/35/15 28/32/14 32/38/34
f 24/2/1 27/34/35 29/35/15 30/36/24
s 6
f 3/4/20 4/5/36 17/9/37 16/10/38
s 5
f 4/5/39 1/12/17 18/13/40 17/9/41
f 1/12/17 9/18/16 19/19/42 18/13/40
s 3
f 6/20/10 14/23/9 22/24/43 20/25/44
s 9
f 14/23/31 15/26/30 21/27/45 22/24/46
s 8
f 9/18/27 8/51/26 23/28/47 19/19/48
s 2
f 8/51/6 6/40/5 20/39/49 23/28/50
s 6
f 15/26/21 3/4/20 16/10/38 21/27/51
s 1
f 16/10/52 17/9/53 25/29/2 24/30/1
f 17/9/53 18/13/54 26/31/3 25/29/2
f 18/13/54 19/19/55 28/32/14 26/31/3
f 20/25/56 22/24/57 31/48/25 29/49/15
f 22/24/57 21/27/58 30/50/24 31/48/25
f 19/19/55 23/28/59 32/38/34 28/32/14
f 23/28/59 20/39/56 29/35/15 32/38/34
f 21/27/58 16/10/52 24/30/1 30/50/24
s 5
f 34/16/19 33/15/18 2/42/60 11/43/61
s 8
f 35/57/29 34/16/28 11/43/62 10/59/63
s 2
f 36/58/8 35/57/7 10/59/64 7/60/65
s 3
f 37/7/12 36/3/11 7/44/66 12/45/67
s 9
f 38/22/33 37/7/32 12/45/68 13/46/69
s 6
f 39/41/23 38/22/22 13/46/70 5/47/71
f 4/52/36 3/17/20 39/41/72 40/53/73
f 40/53/73 39/41/72 5/47/74 41/54/75
s 5
f 1/14/17 4/52/39 40/53/76 33/15/77
f 33/15/77 40/53/76 41/54/78 2/42/79
