# This file uses meters as units for non-parametric coordinates.

mtllib Potted_Plant02.mtl
g default
v 27.289776 0.000000 -40.709961
v 3.477497 0.000000 -50.573364
v -20.334801 0.000000 -40.709961
v -30.198143 0.000000 -16.897743
v -20.334801 0.000000 6.914516
v 3.477497 0.000000 16.777901
v 27.289776 0.000000 6.914558
v 37.153137 0.000000 -16.897743
v 25.681919 79.911476 -39.102165
v 3.477497 79.911476 -48.299538
v -18.726948 79.911476 -39.102165
v -27.924339 79.911476 -16.897743
v -18.726948 79.911476 5.306702
v 3.477497 79.911476 14.504097
v 25.681919 79.911476 5.306702
v 34.879292 79.911476 -16.897743
v 27.289776 71.920326 -40.709961
v 3.477497 71.920326 -50.573364
v -20.334801 71.920326 -40.709961
v -30.198143 71.920326 -16.897743
v -20.334801 71.920326 6.914516
v 3.477497 71.920326 16.777901
v 27.289776 71.920326 6.914558
v 37.153137 71.920326 -16.897743
v 27.289776 7.192032 -40.709961
v 3.477497 7.192032 -50.573364
v -20.334801 7.192032 -40.709961
v -30.198143 7.192032 -16.897743
v -20.334801 7.192032 6.914516
v 3.477497 7.192032 16.777901
v 27.289776 7.192032 6.914558
v 37.153137 7.192032 -16.897743
v 29.482620 5.913139 -42.902866
v 3.477497 5.913139 -53.674549
v 3.477497 7.192032 -52.494358
v 28.648087 7.192032 -42.068333
v -22.527664 5.913139 -42.902866
v -21.693134 7.192032 -42.068333
v -33.299332 5.913139 -16.897743
v -32.119164 7.192032 -16.897743
v -22.527664 5.913139 9.107399
v -21.693134 7.192032 8.272865
v 3.477497 5.913139 19.879120
v 3.477497 7.192032 18.698914
v 29.482620 5.913139 9.107399
v 28.648087 7.192032 8.272865
v 40.254303 5.913139 -16.897743
v 39.074112 7.192032 -16.897743
v 28.760021 4.403862 -42.180267
v 3.477497 4.403862 -52.652626
v -21.805069 4.403862 -42.180267
v -32.277382 4.403862 -16.897743
v -21.805069 4.403862 8.384804
v 3.477497 4.403862 18.857178
v 28.760021 4.403862 8.384804
v 39.232376 4.403862 -16.897743
v 29.792717 3.397675 -43.212921
v 3.477497 3.397675 -54.113087
v -22.837723 3.397675 -43.212921
v -33.737846 3.397675 -16.897743
v -22.837723 3.397675 9.417473
v 3.477497 3.397675 20.317604
v 29.792717 3.397675 9.417473
v 40.692841 3.397675 -16.897743
v 29.792717 1.553001 -43.212921
v 3.477497 1.553001 -54.113087
v -22.837723 1.553001 -43.212921
v -33.737869 1.553001 -16.897743
v -22.837723 1.553001 9.417473
v 3.477497 1.553001 20.317604
v 29.792717 1.553001 9.417473
v 40.692841 1.553001 -16.897743
v 28.648087 0.000000 -42.068333
v 3.477497 0.000000 -52.494358
v -21.693134 0.000000 -42.068333
v -32.119164 0.000000 -16.897743
v -21.693134 0.000000 8.272865
v 3.477497 0.000000 18.698914
v 28.648106 0.000000 8.272865
v 39.074112 0.000000 -16.897743
v 28.766148 71.920326 -42.186375
v 3.477497 71.920326 -52.661278
v 3.477497 79.911476 -52.661278
v 28.766148 79.911476 -42.186375
v -21.811172 71.920326 -42.186375
v -21.811172 79.911476 -42.186375
v -32.286057 71.920326 -16.897743
v -32.286057 79.911476 -16.897743
v -21.811172 71.920326 8.390930
v -21.811172 79.911476 8.390930
v 3.477497 71.920326 18.865814
v 3.477497 79.911476 18.865814
v 28.766148 71.920326 8.390930
v 28.766148 79.911476 8.390930
v 39.241035 71.920326 -16.897743
v 39.241035 79.911476 -16.897743
v 3.477497 73.194519 -55.335144
v -23.701851 73.194519 -44.077091
v -34.959923 73.194519 -16.897743
v -23.701851 73.194519 10.281647
v 3.477497 73.194519 21.539703
v 30.656849 73.194519 10.281647
v 41.914902 73.194519 -16.897743
v 30.656849 73.194519 -44.077091
v 3.477497 74.717079 -55.335144
v 30.656849 74.717079 -44.077091
v 41.914902 74.717079 -16.897743
v 30.656849 74.717079 10.281647
v 3.477497 74.717079 21.539703
v -23.701851 74.717079 10.281647
v -34.959923 74.717079 -16.897743
v -23.701851 74.717079 -44.077091
v 3.477497 78.982422 -56.240650
v 31.297165 78.982422 -44.717411
v 42.820427 78.982422 -16.897743
v 31.297165 78.982422 10.921967
v 3.477497 78.982422 22.445229
v -24.342213 78.982422 10.921967
v -35.865471 78.982422 -16.897743
v -24.342213 78.982422 -44.717411
v 3.477497 76.702591 -56.240650
v -24.342213 76.702591 -44.717411
v -35.865471 76.702591 -16.897743
v -24.342213 76.702591 10.921967
v 3.477497 76.702591 22.445229
v 31.297165 76.702591 10.921967
v 42.820427 76.702591 -16.897743
v 31.297165 76.702591 -44.717411
v 3.477497 75.365356 -52.661278
v -21.811172 75.365356 -42.186375
v -32.286057 75.365356 -16.897743
v -21.811172 75.365356 8.390930
v 3.477497 75.365356 18.865814
v 28.766148 75.365356 8.390930
v 39.241035 75.365356 -16.897743
v 28.766148 75.365356 -42.186375
v 26.622532 33.659241 -40.042755
v 3.477497 33.659241 -49.629749
v 3.477497 33.659241 -16.897743
v -19.667561 33.659241 -40.042755
v -29.254532 33.659241 -16.897743
v -19.667561 33.659241 6.247314
v 3.477497 33.659241 15.834282
v 26.622532 33.659241 6.247314
v 36.209526 33.659241 -16.897743
vt 0.249369 0.992440
vt 0.253865 0.992357
vt 0.249160 0.380260
vt 0.246705 0.899512
vt 0.250954 0.899437
vt 0.245577 0.812827
vt 0.249883 0.812770
vt 0.244903 0.726339
vt 0.249220 0.726307
vt 0.244471 0.639856
vt 0.248790 0.639840
vt 0.244261 0.553367
vt 0.248579 0.553366
vt 0.244296 0.466861
vt 0.248603 0.466887
vt 0.049182 0.988479
vt 0.233365 0.986584
vt 0.229741 0.379942
vt 0.047985 0.901661
vt 0.231670 0.899746
vt 0.046943 0.814666
vt 0.230361 0.812946
vt 0.046111 0.727593
vt 0.229639 0.726357
vt 0.272114 0.134459
vt 0.045608 0.640513
vt 0.229198 0.639815
vt 0.045425 0.553438
vt 0.228999 0.553266
vt 0.045569 0.466378
vt 0.229081 0.466664
vt 0.037914 0.992607
vt 0.043162 0.991038
vt 0.040149 0.379280
vt 0.037045 0.901736
vt 0.042125 0.901702
vt 0.035984 0.814731
vt 0.041093 0.814691
vt 0.035145 0.727630
vt 0.040257 0.727603
vt 0.034641 0.640510
vt 0.039753 0.640502
vt 0.034459 0.553396
vt 0.039571 0.553406
vt 0.034609 0.466303
vt 0.039718 0.466330
vt 0.032498 0.991405
vt 0.031800 0.901830
vt 0.030692 0.814774
vt 0.029852 0.727660
vt 0.029347 0.640522
vt 0.029165 0.553389
vt 0.029319 0.466279
vt 0.027020 0.993273
vt 0.026549 0.901828
vt 0.025404 0.814812
vt 0.024560 0.727683
vt 0.024055 0.640525
vt 0.023873 0.553372
vt 0.024029 0.466243
vt 0.021667 0.993280
vt 0.021372 0.901869
vt 0.020172 0.814868
vt 0.019326 0.727723
vt 0.018821 0.640546
vt 0.018639 0.553373
vt 0.018796 0.466223
vt 0.012843 0.379162
vt 0.014888 0.991215
vt 0.014826 0.901927
vt 0.013562 0.814917
vt 0.012713 0.727751
vt 0.012207 0.640550
vt 0.012026 0.553352
vt 0.012186 0.466177
vt 0.008916 0.988733
vt 0.009003 0.901942
vt 0.007716 0.814950
vt 0.006866 0.727762
vt 0.006360 0.640540
vt 0.006179 0.553320
vt 0.006340 0.466122
vt 0.239992 0.989195
vt 0.236084 0.380024
vt 0.917960 0.990966
vt 0.392130 0.990966
vt 0.293362 0.987170
vt 0.237963 0.899681
vt 0.842857 0.990966
vt 0.288016 0.898489
vt 0.236692 0.812893
vt 0.767737 0.990966
vt 0.287421 0.812561
vt 0.235991 0.726347
vt 0.692611 0.990966
vt 0.286839 0.726310
vt 0.235554 0.639830
vt 0.617494 0.990966
vt 0.286418 0.639963
vt 0.235350 0.553307
vt 0.542375 0.990966
vt 0.286193 0.553613
vt 0.235413 0.466744
vt 0.467250 0.990966
vt 0.286125 0.467359
vt 0.274881 0.992801
vt 0.281640 0.992442
vt 0.268458 0.467167
vt 0.274911 0.467202
vt 0.268490 0.553522
vt 0.274957 0.553518
vt 0.268710 0.639927
vt 0.275179 0.639903
vt 0.269135 0.726329
vt 0.275602 0.726284
vt 0.269747 0.812675
vt 0.276201 0.812595
vt 0.270502 0.899012
vt 0.276835 0.898778
vt 0.260233 0.290937
vt 0.259261 0.899398
vt 0.258221 0.812723
vt 0.257581 0.726305
vt 0.257153 0.639867
vt 0.256938 0.553423
vt 0.256943 0.466989
vt 0.917960 0.844444
vt 0.392130 0.844444
vt 0.842857 0.844444
vt 0.767737 0.844444
vt 0.692611 0.844444
vt 0.617494 0.844444
vt 0.542376 0.844444
vt 0.257387 0.380326
vt 0.344170 0.104612
vt 0.344170 0.206515
vt 0.416226 0.134459
vt 0.446073 0.206515
vt 0.416226 0.278571
vt 0.344170 0.308418
vt 0.272114 0.278571
vt 0.242267 0.206515
vt 0.467250 0.844444
vt 0.244911 0.380215
vt 0.046580 0.292415
vt 0.035408 0.288359
vt 0.029962 0.289590
vt 0.035091 0.379265
vt 0.024525 0.287750
vt 0.029827 0.379194
vt 0.019173 0.287764
vt 0.024604 0.379207
vt 0.012336 0.289864
vt 0.019427 0.379206
vt 0.045964 0.379332
vt 0.040626 0.289901
vt 0.006976 0.379136
vt 0.006298 0.292389
vt 0.230868 0.293214
vt 0.290999 0.292602
vt 0.237576 0.290573
vt 0.247093 0.287319
vt 0.272732 0.286964
vt 0.275109 0.380958
vt 0.279495 0.287334
vt 0.286149 0.381307
vt 0.268774 0.380773
vt 0.304206 0.299250
vt 0.317027 0.844444
vt 0.299386 0.467581
vt 0.299329 0.381990
vt 0.299474 0.553780
vt 0.299703 0.640094
vt 0.300123 0.726403
vt 0.300705 0.812580
vt 0.301434 0.897966
vt 0.306936 0.980422
vt 0.317027 0.990966
vt 0.251589 0.287396
vt 0.262636 0.988801
vn 0.549950 -0.628576 -0.549951
vn -0.000000 -0.628576 -0.777748
vn -0.000000 0.699600 -0.714534
vn 0.505252 0.699600 -0.505252
vn -0.549951 -0.628576 -0.549952
vn -0.505252 0.699599 -0.505254
vn -0.777749 -0.628574 0.000000
vn -0.714536 0.699598 -0.000000
vn -0.549950 -0.628576 0.549951
vn -0.505252 0.699600 0.505253
vn 0.000000 -0.628578 0.777747
vn -0.000000 0.699602 0.714533
vn 0.549950 -0.628577 0.549951
vn 0.505252 0.699601 0.505251
vn 0.777749 -0.628576 0.000000
vn 0.714535 0.699599 -0.000000
vn -0.686947 0.237079 0.686947
vn -0.000000 0.237080 0.971490
vn 0.000000 1.000000 0.000000
vn 0.686947 0.237080 0.686948
vn 0.971490 0.237080 0.000000
vn 0.686947 0.237080 -0.686947
vn 0.000000 0.237080 -0.971490
vn -0.686948 0.237079 -0.686947
vn -0.971490 0.237079 0.000000
vn 0.706592 0.038127 -0.706593
vn -0.000000 0.038128 -0.999273
vn -0.000000 -0.041535 -0.999137
vn 0.706496 -0.041535 -0.706497
vn -0.706592 0.038128 -0.706593
vn -0.706496 -0.041535 -0.706497
vn -0.999273 0.038128 0.000000
vn -0.999137 -0.041535 -0.000000
vn -0.706593 0.038128 0.706593
vn -0.706497 -0.041535 0.706497
vn -0.000001 0.038127 0.999273
vn -0.000001 -0.041535 0.999137
vn 0.706593 0.038127 0.706593
vn 0.706497 -0.041535 0.706497
vn 0.999273 0.038127 0.000000
vn 0.999137 -0.041535 0.000000
vn 0.706481 0.042073 -0.706481
vn -0.000000 0.042074 -0.999115
vn 0.000000 0.879352 -0.476173
vn 0.336706 0.879351 -0.336706
vn -0.706480 0.042068 -0.706481
vn -0.336706 0.879351 -0.336706
vn -0.999115 0.042068 0.000000
vn -0.476175 0.879351 0.000000
vn -0.706481 0.042069 0.706481
vn -0.336706 0.879351 0.336705
vn -0.000000 0.042074 0.999115
vn 0.000000 0.879351 0.476173
vn 0.706481 0.042073 0.706480
vn 0.336707 0.879350 0.336707
vn 0.999115 0.042074 0.000000
vn 0.476177 0.879350 -0.000000
vn 0.692482 0.202324 -0.692484
vn 0.000000 0.202321 -0.979319
vn -0.692484 0.202317 -0.692484
vn -0.979321 0.202315 0.000000
vn -0.692485 0.202315 0.692483
vn 0.000000 0.202313 0.979321
vn 0.692483 0.202322 0.692483
vn 0.979318 0.202327 0.000000
vn 0.648812 0.397604 -0.648810
vn -0.000000 0.397601 -0.917558
vn -0.648811 0.397603 -0.648811
vn -0.917557 0.397604 0.000000
vn -0.648811 0.397602 0.648812
vn -0.000000 0.397599 0.917559
vn 0.648812 0.397603 0.648810
vn 0.917557 0.397605 0.000000
vn 0.651769 -0.387811 -0.651767
vn 0.000000 -0.387809 -0.921740
vn -0.651769 -0.387806 -0.651770
vn -0.921742 -0.387804 0.000000
vn -0.651769 -0.387806 0.651770
vn 0.000000 -0.387807 0.921740
vn 0.651768 -0.387809 0.651768
vn 0.921739 -0.387812 -0.000000
vn 0.344644 -0.873178 -0.344646
vn 0.000000 -0.873178 -0.487402
vn -0.344646 -0.873177 -0.344646
vn -0.487404 -0.873177 -0.000000
vn -0.344647 -0.873177 0.344646
vn 0.000000 -0.873176 0.487404
vn 0.344647 -0.873177 0.344647
vn 0.487403 -0.873177 -0.000000
vn 0.000000 -1.000000 0.000000
vn 0.000000 -1.000000 0.000000
vn 0.000000 -1.000000 0.000000
vn 0.000000 -1.000000 0.000000
vn 0.000000 -1.000000 0.000000
vn 0.000000 -1.000000 0.000000
vn 0.000000 -1.000000 0.000000
vn 0.000000 -1.000000 0.000000
vn -0.000000 -0.949855 -0.312691
vn 0.221106 -0.949855 -0.221106
vn -0.000000 0.093422 0.995627
vn -0.704014 0.093422 0.704014
vn 0.109346 0.987971 -0.109346
vn -0.000000 0.987971 -0.154639
vn -0.221107 -0.949855 -0.221106
vn 0.704014 0.093422 0.704015
vn -0.109346 0.987971 -0.109346
vn -0.312693 -0.949854 0.000000
vn 0.995627 0.093422 -0.000000
vn -0.154638 0.987971 -0.000000
vn -0.221107 -0.949855 0.221106
vn 0.704014 0.093422 -0.704014
vn -0.109346 0.987971 0.109345
vn 0.000000 -0.949855 0.312690
vn 0.000000 0.093422 -0.995627
vn 0.000000 0.987971 0.154638
vn 0.221107 -0.949855 0.221106
vn -0.704015 0.093422 -0.704014
vn 0.109346 0.987971 0.109346
vn 0.312693 -0.949854 0.000000
vn -0.995627 0.093422 -0.000000
vn 0.154639 0.987971 -0.000000
vn 0.551128 -0.626510 -0.551128
vn -0.000000 -0.626511 -0.779413
vn -0.000000 0.659642 -0.751580
vn 0.531447 0.659641 -0.531448
vn 0.779413 -0.626510 0.000000
vn 0.751580 0.659642 -0.000000
vn 0.551128 -0.626511 0.551127
vn 0.531447 0.659643 0.531447
vn -0.000000 -0.626513 0.779411
vn -0.000000 0.659644 0.751578
vn -0.551127 -0.626513 0.551127
vn -0.531446 0.659644 0.531446
vn -0.779411 -0.626513 0.000000
vn -0.751578 0.659644 -0.000000
vn -0.551127 -0.626512 -0.551128
vn -0.531447 0.659643 -0.531447
vn 0.000000 -0.420237 -0.907415
vn -0.641637 -0.420245 -0.641636
vn -0.907408 -0.420250 0.000000
vn -0.641636 -0.420247 0.641635
vn 0.000000 -0.420241 0.907413
vn 0.641640 -0.420239 0.641637
vn 0.907414 -0.420238 -0.000000
vn 0.641640 -0.420236 -0.641638
s 1
g Potted_Plant02
usemtl initialShadingGroup
f 104/144/1 97/162/2 105/179/3 106/3/4
f 97/1/2 98/4/5 112/5/6 105/2/3
f 98/4/5 99/6/7 111/7/8 112/5/6
f 99/6/7 100/8/9 110/9/10 111/7/8
f 100/8/9 101/10/11 109/11/12 110/9/10
f 101/10/11 102/12/13 108/13/14 109/11/12
f 102/12/13 103/14/15 107/15/16 108/13/14
f 103/14/15 104/144/1 106/3/4 107/15/16
f 137/25/17 138/135/18 139/136/19
f 138/135/18 140/137/20 139/136/19
f 140/137/20 141/138/21 139/136/19
f 141/138/21 142/139/22 139/136/19
f 142/139/22 143/140/23 139/136/19
f 143/140/23 144/141/24 139/136/19
f 144/141/24 145/142/25 139/136/19
f 145/142/25 137/25/17 139/136/19
f 25/155/26 26/145/27 18/159/28 17/18/29
f 26/16/27 27/19/30 19/20/31 18/17/28
f 27/19/30 28/21/32 20/22/33 19/20/31
f 28/21/32 29/23/34 21/24/35 20/22/33
f 29/23/34 30/26/36 22/27/37 21/24/35
f 30/26/36 31/28/38 23/29/39 22/27/37
f 31/28/38 32/30/40 24/31/41 23/29/39
f 32/30/40 25/155/26 17/18/29 24/31/41
f 33/148/42 34/146/43 35/156/44 36/34/45
f 34/32/43 37/35/46 38/36/47 35/33/44
f 37/35/46 39/37/48 40/38/49 38/36/47
f 39/37/48 41/39/50 42/40/51 40/38/49
f 41/39/50 43/41/52 44/42/53 42/40/51
f 43/41/52 45/43/54 46/44/55 44/42/53
f 45/43/54 47/45/56 48/46/57 46/44/55
f 47/45/56 33/148/42 36/34/45 48/46/57
f 49/150/58 50/147/59 34/146/43 33/148/42
f 50/47/59 51/48/60 37/35/46 34/32/43
f 51/48/60 52/49/61 39/37/48 37/35/46
f 52/49/61 53/50/62 41/39/50 39/37/48
f 53/50/62 54/51/63 43/41/52 41/39/50
f 54/51/63 55/52/64 45/43/54 43/41/52
f 55/52/64 56/53/65 47/45/56 45/43/54
f 56/53/65 49/150/58 33/148/42 47/45/56
f 57/152/66 58/149/67 50/147/59 49/150/58
f 58/54/67 59/55/68 51/48/60 50/47/59
f 59/55/68 60/56/69 52/49/61 51/48/60
f 60/56/69 61/57/70 53/50/62 52/49/61
f 61/57/70 62/58/71 54/51/63 53/50/62
f 62/58/71 63/59/72 55/52/64 54/51/63
f 63/59/72 64/60/73 56/53/65 55/52/64
f 64/60/73 57/152/66 49/150/58 56/53/65
f 65/154/74 66/151/75 58/149/67 57/152/66
f 66/61/75 67/62/76 59/55/68 58/54/67
f 67/62/76 68/63/77 60/56/69 59/55/68
f 68/63/77 69/64/78 61/57/70 60/56/69
f 69/64/78 70/65/79 62/58/71 61/57/70
f 70/65/79 71/66/80 63/59/72 62/58/71
f 71/66/80 72/67/81 64/60/73 63/59/72
f 72/67/81 65/154/74 57/152/66 64/60/73
f 73/68/82 74/153/83 66/151/75 65/154/74
f 74/69/83 75/70/84 67/62/76 66/61/75
f 75/70/84 76/71/85 68/63/77 67/62/76
f 76/71/85 77/72/86 69/64/78 68/63/77
f 77/72/86 78/73/87 70/65/79 69/64/78
f 78/73/87 79/74/88 71/66/80 70/65/79
f 79/74/88 80/75/89 72/67/81 71/66/80
f 80/75/89 73/68/82 65/154/74 72/67/81
f 26/145/27 25/155/26 36/34/45 35/156/44
f 27/19/30 26/16/27 35/33/44 38/36/47
f 28/21/32 27/19/30 38/36/47 40/38/49
f 29/23/34 28/21/32 40/38/49 42/40/51
f 30/26/36 29/23/34 42/40/51 44/42/53
f 31/28/38 30/26/36 44/42/53 46/44/55
f 32/30/40 31/28/38 46/44/55 48/46/57
f 25/155/26 32/30/40 48/46/57 36/34/45
f 1/157/90 2/158/91 74/153/83 73/68/82
f 2/76/91 3/77/92 75/70/84 74/69/83
f 3/77/92 4/78/93 76/71/85 75/70/84
f 4/78/93 5/79/94 77/72/86 76/71/85
f 5/79/94 6/80/95 78/73/87 77/72/86
f 6/80/95 7/81/96 79/74/88 78/73/87
f 7/81/96 8/82/97 80/75/89 79/74/88
f 8/82/97 1/157/90 73/68/82 80/75/89
f 17/18/29 18/159/28 82/161/98 81/84/99
f 10/168/100 9/171/101 84/166/102 83/160/103
f 18/17/28 19/20/31 85/88/104 82/83/98
f 11/176/105 10/177/100 83/87/103 86/90/106
f 19/20/31 20/22/33 87/91/107 85/88/104
f 12/175/108 11/176/105 86/90/106 88/93/109
f 20/22/33 21/24/35 89/94/110 87/91/107
f 13/174/111 12/175/108 88/93/109 90/96/112
f 21/24/35 22/27/37 91/97/113 89/94/110
f 14/173/114 13/174/111 90/96/112 92/99/115
f 22/27/37 23/29/39 93/100/116 91/97/113
f 15/172/117 14/173/114 92/99/115 94/102/118
f 23/29/39 24/31/41 95/103/119 93/100/116
f 16/170/120 15/172/117 94/102/118 96/105/121
f 24/31/41 17/18/29 81/84/99 95/103/119
f 9/171/101 16/170/120 96/105/121 84/166/102
f 82/83/98 85/88/104 98/4/5 97/1/2
f 85/88/104 87/91/107 99/6/7 98/4/5
f 87/91/107 89/94/110 100/8/9 99/6/7
f 89/94/110 91/97/113 101/10/11 100/8/9
f 91/97/113 93/100/116 102/12/13 101/10/11
f 93/100/116 95/103/119 103/14/15 102/12/13
f 95/103/119 81/84/99 104/144/1 103/14/15
f 81/84/99 82/161/98 97/162/2 104/144/1
f 128/167/122 121/163/123 113/165/124 114/164/125
f 127/108/126 128/167/122 114/164/125 115/109/127
f 126/110/128 127/108/126 115/109/127 116/111/129
f 125/112/130 126/110/128 116/111/129 117/113/131
f 124/114/132 125/112/130 117/113/131 118/115/133
f 123/116/134 124/114/132 118/115/133 119/117/135
f 122/118/136 123/116/134 119/117/135 120/119/137
f 121/106/123 122/118/136 120/119/137 113/107/124
f 114/164/125 113/165/124 83/160/103 84/166/102
f 115/109/127 114/164/125 84/166/102 96/105/121
f 116/111/129 115/109/127 96/105/121 94/102/118
f 117/113/131 116/111/129 94/102/118 92/99/115
f 118/115/133 117/113/131 92/99/115 90/96/112
f 119/117/135 118/115/133 90/96/112 88/93/109
f 120/119/137 119/117/135 88/93/109 86/90/106
f 113/107/124 120/119/137 86/90/106 83/87/103
f 129/180/138 130/121/139 122/118/136 121/106/123
f 130/121/139 131/122/140 123/116/134 122/118/136
f 131/122/140 132/123/141 124/114/132 123/116/134
f 132/123/141 133/124/142 125/112/130 124/114/132
f 133/124/142 134/125/143 126/110/128 125/112/130
f 134/125/143 135/126/144 127/108/126 126/110/128
f 135/126/144 136/134/145 128/167/122 127/108/126
f 136/134/145 129/120/138 121/163/123 128/167/122
f 105/2/3 112/5/6 130/121/139 129/180/138
f 112/5/6 111/7/8 131/122/140 130/121/139
f 111/7/8 110/9/10 132/123/141 131/122/140
f 110/9/10 109/11/12 133/124/142 132/123/141
f 109/11/12 108/13/14 134/125/143 133/124/142
f 108/13/14 107/15/16 135/126/144 134/125/143
f 107/15/16 106/3/4 136/134/145 135/126/144
f 106/3/4 105/179/3 129/120/138 136/134/145
f 9/86/101 10/178/100 138/169/18 137/128/17
f 10/85/100 11/89/105 140/129/20 138/127/18
f 11/89/105 12/92/108 141/130/21 140/129/20
f 12/92/108 13/95/111 142/131/22 141/130/21
f 13/95/111 14/98/114 143/132/23 142/131/22
f 14/98/114 15/101/117 144/133/24 143/132/23
f 15/101/117 16/104/120 145/143/25 144/133/24
f 16/104/120 9/86/101 137/128/17 145/143/25
