# Exported from ProBuilder
# http://www.procore3d.com/probuilder
# 5/10/2018 3:20:36 PM

mtllib ./Chest.mtl
o Chest

g Chest
v -0.3500004 -0.3000002 0.25
v 0.3499996 -0.3000002 0.25
v -0.3500004 0.2999998 0.25
v 0.3499996 0.2999998 0.25
v 0.3499996 -0.3000002 0.25
v 0.3499996 -0.3000002 -0.25
v 0.3499996 0.2999998 0.25
v 0.3499996 0.2999998 -0.25
v 0.3499996 -0.3000002 -0.25
v -0.3500004 -0.3000002 -0.25
v 0.3499996 0.2999998 -0.25
v -0.3500004 0.2999998 -0.25
v -0.3500004 -0.3000002 -0.25
v -0.3500004 -0.3000002 0.25
v -0.3500004 0.2999998 -0.25
v -0.3500004 0.2999998 0.25
v -0.3500004 0.2999998 0.25
v 0.3499996 0.2999998 0.25
v -0.3500004 0.2999998 -0.25
v 0.3499996 0.2999998 -0.25
v -0.3500004 -0.3000002 -0.25
v 0.3499996 -0.3000002 -0.25
v -0.3500004 -0.3000002 0.25
v 0.3499996 -0.3000002 0.25

vn 0 0 1
vn 0 0 1
vn 0 0 1
vn 0 0 1
vn 1 0 0
vn 1 0 0
vn 1 0 0
vn 1 0 0
vn 0 0 -1
vn 0 0 -1
vn 0 0 -1
vn 0 0 -1
vn -1 0 0
vn -1 0 0
vn -1 0 0
vn -1 0 0
vn 0 1 0
vn 0 1 0
vn 0 1 0
vn 0 1 0
vn 0 -1 0
vn 0 -1 0
vn 0 -1 0
vn 0 -1 0

vt 0.35 0
vt -0.35 0
vt 0.35 0.6
vt -0.35 0.6
vt 0.25 0
vt -0.25 0
vt 0.25 0.6
vt -0.25 0.6
vt 0.35 0
vt -0.35 0
vt 0.35 0.6
vt -0.35 0.6
vt 0.25 0
vt -0.25 0
vt 0.25 0.6
vt -0.25 0.6
vt -0.35 0.25
vt 0.35 0.25
vt -0.35 -0.25
vt 0.35 -0.25
vt 0.35 -0.25
vt -0.35 -0.25
vt 0.35 0.25
vt -0.35 0.25

g Chest
usemtl Default_Prototype
f 1/1/1 2/2/2 3/3/3
f 2/2/2 4/4/4 3/3/3
f 5/5/5 6/6/6 7/7/7
f 6/6/6 8/8/8 7/7/7
f 9/9/9 10/10/10 11/11/11
f 10/10/10 12/12/12 11/11/11
f 13/13/13 14/14/14 15/15/15
f 14/14/14 16/16/16 15/15/15
f 17/17/17 18/18/18 19/19/19
f 18/18/18 20/20/20 19/19/19
f 21/21/21 22/22/22 23/23/23
f 22/22/22 24/24/24 23/23/23

g Lid
v 0.3500005 0.5500001 0
v -0.3499995 0.5500004 0
v 0.3500004 0.4767768 0.1767767
v -0.3499995 0.4767771 0.1767767
v 0.3500004 0.4767768 0.1767767
v -0.3499995 0.4767771 0.1767767
v 0.3500004 0.3000001 0.25
v -0.3499996 0.3000004 0.25
v 0.3500004 0.3000001 -0.25
v -0.3499996 0.3000004 -0.25
v 0.3500004 0.4767768 -0.1767767
v -0.3499995 0.476777 -0.1767767
v 0.3500004 0.4767768 -0.1767767
v -0.3499995 0.476777 -0.1767767
v 0.3500005 0.5500001 0
v -0.3499995 0.5500004 0
v 0.3500004 0.4767768 0.1767767
v 0.3500004 0.3000001 0
v 0.3500005 0.5500001 0
v 0.3500004 0.3000001 0.25
v 0.3500004 0.4767768 -0.1767767
v 0.3500004 0.3000001 -0.25
v -0.3499995 0.5500004 0
v -0.3499996 0.3000004 0
v -0.3499995 0.4767771 0.1767767
v -0.3499996 0.3000004 0.25
v -0.3499996 0.3000004 -0.25
v -0.3499995 0.476777 -0.1767767
v -0.3499996 0.3000004 0
v 0.3500004 0.3000001 -0.25
v 0.3500004 0.3000001 0
v -0.3499996 0.3000004 -0.25
v -0.3499996 0.3000004 0.25
v 0.3500004 0.3000001 0.25

vn 3.304051E-07 0.9238796 -7.450581E-08
vn 3.304051E-07 0.9238796 -7.450581E-08
vn 2.336317E-07 0.6532815 0.6532815
vn 2.336317E-07 0.6532815 0.6532815
vn 2.336317E-07 0.6532815 0.6532815
vn 2.336317E-07 0.6532815 0.6532815
vn 1.368583E-07 0.3826834 0.9238796
vn 1.368583E-07 0.3826834 0.9238796
vn 1.368583E-07 0.3826834 -0.9238795
vn 1.368583E-07 0.3826834 -0.9238795
vn 2.336317E-07 0.6532815 -0.6532815
vn 2.336317E-07 0.6532815 -0.6532815
vn 2.336317E-07 0.6532815 -0.6532815
vn 2.336317E-07 0.6532815 -0.6532815
vn 3.304051E-07 0.9238796 -7.450581E-08
vn 3.304051E-07 0.9238796 -7.450581E-08
vn 0.9999999 -3.576278E-07 0
vn 0.9999999 -3.576278E-07 0
vn 0.9999999 -3.576278E-07 0
vn 0.9999999 -3.576278E-07 0
vn 0.9999999 -3.576278E-07 0
vn 0.9999999 -3.576278E-07 0
vn -0.9999999 3.576278E-07 0
vn -0.9999999 3.576278E-07 0
vn -0.9999999 3.576278E-07 0
vn -0.9999999 3.576278E-07 0
vn -0.9999999 3.576278E-07 0
vn -0.9999999 3.576278E-07 0
vn -3.576279E-07 -1 -2.980232E-08
vn -3.576279E-07 -1 -2.980232E-08
vn -3.576279E-07 -1 -2.980232E-08
vn -3.576279E-07 -1 -2.980232E-08
vn -3.576279E-07 -1 -2.980232E-08
vn -3.576279E-07 -1 -2.980232E-08

vt -0.04783542 -0.35
vt -0.04783542 0.35
vt 0.1435063 -0.35
vt 0.1435063 0.35
vt 0.01981407 -0.35
vt 0.01981407 0.35
vt 0.2111558 -0.35
vt 0.2111558 0.35
vt -0.2111558 -0.35
vt -0.2111558 0.35
vt -0.01981411 -0.35
vt -0.01981411 0.35
vt -0.1435063 -0.35
vt -0.1435063 0.35
vt 0.04783544 -0.35
vt 0.04783544 0.35
vt -0.05177671 0.1767767
vt 0.125 0
vt -0.125 0
vt 0.125 0.25
vt -0.05177668 -0.1767767
vt 0.125 -0.25
vt 0.125 0
vt -0.125 0
vt 0.05177671 0.1767767
vt -0.125 0.25
vt -0.125 -0.25
vt 0.05177668 -0.1767767
vt -3.72529E-09 0.35
vt 0.25 -0.35
vt -3.72529E-09 -0.35
vt 0.25 0.35
vt -0.25 0.35
vt -0.25 -0.35

g Lid
usemtl Default_Prototype
f 25/25/25 26/26/26 27/27/27
f 26/26/26 28/28/28 27/27/27
f 29/29/29 30/30/30 31/31/31
f 30/30/30 32/32/32 31/31/31
f 33/33/33 34/34/34 35/35/35
f 34/34/34 36/36/36 35/35/35
f 37/37/37 38/38/38 39/39/39
f 38/38/38 40/40/40 39/39/39
f 41/41/41 42/42/42 43/43/43
f 44/44/44 42/42/42 41/41/41
f 45/45/45 42/42/42 46/46/46
f 43/43/43 42/42/42 45/45/45
f 47/47/47 48/48/48 49/49/49
f 49/49/49 48/48/48 50/50/50
f 51/51/51 48/48/48 52/52/52
f 52/52/52 48/48/48 47/47/47
f 53/53/53 54/54/54 55/55/55
f 53/53/53 56/56/56 54/54/54
f 57/57/57 55/55/55 58/58/58
f 57/57/57 53/53/53 55/55/55

