# This file uses centimeters as units for non-parametric coordinates.

mtllib BushX3_Bridge.mtl
g default
v -0.383317 0.140638 0.486074
v 0.363485 0.140638 0.486074
v -0.374588 0.162805 -0.455107
v 0.307263 0.199258 -0.518686
v 0.250427 0.243219 -0.593067
v -0.009804 0.276649 -0.649631
v -0.302442 0.216161 -0.545874
v 0.292301 0.184599 0.560454
v -0.009916 0.218030 0.617018
v -0.312133 0.184599 0.560454
v 0.403148 0.345154 0.321663
v 0.396466 0.345154 -0.310060
v 0.363485 -0.377154 -0.310060
v 0.364228 -0.354026 0.321663
v -0.383275 0.366549 -0.304654
v -0.366067 0.313003 0.303603
v -0.383317 -0.377154 0.321663
v -0.383317 -0.338772 -0.310060
v 0.203648 -0.467040 0.321663
v 0.203648 -0.485450 -0.310060
v -0.009916 -0.454545 0.321663
v -0.009916 -0.454545 -0.310060
v -0.177256 -0.462200 -0.310060
v -0.223480 -0.485450 0.321663
v 0.252638 0.438105 -0.310060
v 0.252638 0.438105 0.321663
v -0.009916 0.447040 -0.310060
v -0.009916 0.447040 0.321663
v -0.287597 0.385330 0.312647
v -0.312133 0.413041 -0.309067
v -0.009916 -0.315028 0.737103
v -0.009916 -0.454545 0.624605
v 0.334933 -0.279181 0.676465
v 0.312799 -0.421114 0.566427
v -0.312133 -0.279181 0.676465
v -0.312133 -0.421114 0.566427
v 0.292301 -0.284008 -0.678221
v 0.292301 -0.421114 -0.561626
v -0.009916 -0.319437 -0.737103
v -0.009916 -0.454545 -0.619270
v -0.312133 -0.284008 -0.678221
v -0.312133 -0.417393 -0.561626
v 0.388309 -0.377154 0.479641
v 0.421165 -0.240018 0.597460
v 0.363485 -0.377154 -0.473754
v 0.363485 -0.247333 -0.601818
v -0.383317 -0.377154 0.479641
v -0.383317 -0.240018 0.597460
v -0.383317 -0.357539 -0.473754
v -0.383317 -0.247194 -0.601818
v 0.442936 -0.016000 0.336628
v 0.441763 -0.016000 -0.323246
v 0.375399 -0.011624 0.554906
v 0.300145 -0.000913 0.634534
v -0.009916 0.004807 0.695321
v -0.312133 -0.000913 0.634534
v -0.383317 -0.011624 0.554906
v -0.379383 -0.031491 -0.571588
v -0.311392 -0.023400 -0.658098
v -0.009916 -0.021394 -0.723636
v 0.287952 -0.020395 -0.663340
v 0.351979 -0.024038 -0.584589
v -0.404944 -0.005647 -0.319940
v -0.442936 -0.003752 0.336628
v 0.403148 0.383564 0.132147
v 0.442936 -0.016000 0.138667
v 0.363485 -0.317819 0.132147
v 0.203648 -0.434935 0.132147
v -0.009916 -0.454545 0.132147
v -0.223480 -0.485450 0.132147
v -0.383317 -0.377154 0.132147
v -0.442936 -0.003752 0.138667
v -0.327175 0.408059 0.132147
v -0.246190 0.452020 0.132147
v -0.008766 0.485450 0.132147
v 0.252638 0.471161 -0.005764
vt 0.906917 0.457567
vt 0.620983 0.872193
vt 0.510444 0.970681
vt 0.966295 0.408056
vt 0.970048 0.564808
vt 0.427334 0.864975
vt 0.550851 0.773226
vt 0.909067 0.562994
vt 0.475920 0.677836
vt 0.365135 0.778214
vt 0.324516 0.722315
vt 0.394723 0.116509
vt 0.438765 0.629176
vt 0.681001 0.558367
vt 0.707153 0.405509
vt 0.739395 0.407865
vt 0.710790 0.560177
vt 0.294739 0.037465
vt 0.128442 0.453757
vt 0.351529 0.000998
vt 0.047473 0.329964
vt 0.186398 0.259091
vt 0.257384 0.369708
vt 0.622278 0.714994
vt 0.656729 0.788386
vt 0.013164 0.539131
vt 0.074151 0.492099
vt 0.151760 0.592455
vt 0.109611 0.624270
vt 0.415286 0.084889
vt 0.905106 0.348876
vt 0.920123 0.233235
vt 0.959749 0.235178
vt 0.963539 0.333720
vt 0.189051 0.223472
vt 0.287371 0.265796
vt 0.239026 0.607113
vt 0.265994 0.298863
vt 0.684597 0.238943
vt 0.722829 0.234763
vt 0.727880 0.341725
vt 0.691792 0.330638
vt 0.344172 0.186754
vt 0.233865 0.117426
vt 0.820735 0.350224
vt 0.820933 0.232488
vt 0.818241 0.060821
vt 0.816666 0.000998
vt 0.934159 0.009174
vt 0.930825 0.070995
vt 0.719706 0.074847
vt 0.706184 0.014661
vt 0.980644 0.012602
vt 0.971265 0.081524
vt 0.202440 0.556006
vt 0.318965 0.463998
vt 0.364405 0.530088
vt 0.281239 0.663972
vt 0.396873 0.574322
vt 0.819831 0.411766
vt 0.816779 0.562628
vt 0.223316 0.831860
vt 0.148644 0.755800
vt 0.229973 0.699656
vt 0.269566 0.756788
vt 0.104516 0.664152
vt 0.189610 0.642560
vt 0.523082 0.605246
vt 0.518173 0.644770
vt 0.306452 0.810295
vt 0.261954 0.840552
vt 0.049253 0.610593
vt 0.260033 0.901243
vt 0.683002 0.086692
vt 0.661298 0.022043
vt 0.550937 0.231643
vt 0.608024 0.271008
vt 0.526742 0.364616
vt 0.484112 0.315426
vt 0.572635 0.195631
vt 0.640391 0.231062
vt 0.423500 0.427214
vt 0.403485 0.370674
vt 0.374826 0.905644
vt 0.317051 0.955753
vt 0.326940 0.334184
vt 0.368196 0.436852
vt 0.408222 0.445718
vt 0.478298 0.515841
vt 0.452882 0.999002
vt 0.366200 0.982667
vt 0.578553 0.652919
vt 0.018070 0.394031
vt 0.000980 0.481049
vt 0.373318 0.382008
vt 0.962527 0.169236
vt 0.923105 0.165218
vt 0.480422 0.165989
vt 0.502041 0.132852
vt 0.350912 0.313689
vt 0.720107 0.168496
vt 0.682115 0.173991
vt 0.416155 0.246549
vt 0.819997 0.162706
vn 0.241448 0.969686 -0.037566
vn 0.924804 0.380305 0.010272
vn 0.926054 0.344601 -0.153866
vn 0.253195 0.923475 -0.288248
vn 0.998628 -0.052330 -0.002128
vn 0.995232 -0.022293 -0.094951
vn 0.903221 -0.429011 -0.011859
vn 0.893017 -0.449877 0.011427
vn 0.292307 -0.956095 0.020949
vn 0.217309 -0.976007 0.013665
vn -0.947697 0.311151 -0.071099
vn -0.930848 0.364869 0.019813
vn -0.226241 0.973578 0.031002
vn -0.281036 0.914570 -0.290826
vn -0.999117 0.038555 -0.016686
vn -0.998967 0.029810 -0.034303
vn -0.248583 -0.967672 -0.042631
vn -0.900430 -0.432389 -0.047590
vn -0.927954 -0.369999 -0.044743
vn -0.210002 -0.976718 -0.043821
vn 0.048323 -0.998831 0.000760
vn 0.007897 -0.999584 -0.027735
vn -0.047458 0.998503 0.027193
vn -0.060039 0.952673 -0.298008
vn 0.934682 0.056706 -0.350933
vn 0.819863 0.325849 -0.470794
vn -0.956278 0.041542 0.289493
vn -0.997460 0.028324 0.065357
vn -0.933690 -0.354227 0.052412
vn -0.938212 -0.315215 0.142816
vn -0.953820 -0.086365 0.287696
vn 0.297780 0.601520 -0.741283
vn 0.234729 0.864183 0.445073
vn 0.281996 0.579565 0.764580
vn 0.823452 0.301828 0.480445
vn 0.867261 0.431548 0.248243
vn -0.373789 0.596415 -0.710331
vn -0.934682 0.204336 -0.290889
vn -0.890791 0.313236 0.329204
vn -0.322843 0.608386 0.725010
vn -0.298102 0.820852 0.487173
vn -0.916107 0.381095 0.124556
vn -0.053229 0.629399 -0.775257
vn -0.032878 0.874693 0.483562
vn -0.023020 0.624247 0.780887
vn 0.971660 -0.070203 0.225716
vn 0.937140 -0.347795 0.028423
vn 0.916601 -0.396116 -0.054180
vn 0.997908 -0.020797 0.061214
vn 0.953384 0.081503 0.290544
vn -0.968957 0.066917 -0.238001
vn 0.000820 -0.170113 0.985424
vn 0.008757 -0.891163 0.453599
vn 0.293384 -0.870837 0.394422
vn 0.332570 -0.146615 0.931612
vn -0.340708 -0.145403 0.928857
vn -0.300704 -0.858880 0.414612
vn 0.345068 -0.225149 -0.911173
vn 0.293283 -0.871214 -0.393663
vn -0.014301 -0.901329 -0.432898
vn -0.002795 -0.248710 -0.968574
vn 0.949725 -0.116003 -0.290802
vn 0.933324 -0.318970 -0.164816
vn -0.343306 -0.874447 -0.342759
vn -0.351457 -0.220036 -0.909979
vn -0.943080 -0.330644 -0.035687
vn -0.972304 -0.067480 -0.223766
vn 0.299893 0.239717 0.923363
vn 0.348563 0.162594 -0.923075
vn -0.377436 0.200040 -0.904171
vn -0.324676 0.223162 0.919121
vn -0.025818 0.174920 -0.984244
vn 0.000027 0.230406 0.973095
vn 0.038480 -0.998221 0.045546
vn 0.200678 -0.979376 -0.023480
vn -0.160390 -0.985425 0.056673
s 1
g BushX3_Bridge group1
usemtl lambert6SG
f 76/1/1 65/4/2 12/5/3 25/8/4
f 12/2/3 65/3/2 66/6/5 52/7/6
f 13/9/7 67/10/8 68/11/9 20/13/10
f 15/14/11 73/15/12 74/16/13 30/17/14
f 72/19/15 73/21/12 15/22/11 63/23/16
f 70/37/17 71/55/18 18/56/19 23/57/20
f 20/13/10 68/11/9 69/58/21 22/59/22
f 22/59/22 69/58/21 70/37/17 23/57/20
f 75/60/23 76/1/1 25/8/4 27/61/24
f 74/16/13 75/60/23 27/61/24 30/17/14
f 12/2/3 52/7/6 62/24/25 4/25/26
f 57/26/27 64/27/28 17/28/29 47/29/30 48/72/31
f 5/12/32 25/18/4 12/20/3 4/30/26
f 26/31/33 8/32/34 2/33/35 11/34/36
f 15/22/11 30/35/14 7/36/37 3/38/38
f 1/39/39 10/40/40 29/41/41 16/42/42
f 5/12/32 6/43/43 27/44/24 25/18/4
f 6/43/43 7/36/37 30/35/14 27/44/24
f 26/31/33 28/45/44 9/46/45 8/32/34
f 28/45/44 29/41/41 10/40/40 9/46/45
f 44/73/46 43/71/47 14/70/48 51/84/49 53/85/50
f 58/86/51 63/23/16 15/22/11 3/38/38
f 31/47/52 32/48/53 34/49/54 33/50/55
f 32/48/53 31/47/52 35/51/56 36/52/57
f 33/50/55 34/49/54 43/53/47 44/54/46
f 36/52/57 35/51/56 48/74/31 47/75/30
f 37/76/58 38/77/59 40/78/60 39/79/61
f 38/77/59 37/76/58 46/80/62 45/81/63
f 39/79/61 40/78/60 42/82/64 41/83/65
f 41/83/65 42/82/64 49/87/66 50/95/67
f 53/96/50 54/97/68 33/50/55 44/54/46
f 37/76/58 61/98/69 62/99/25 46/80/62
f 58/86/51 59/100/70 41/83/65 50/95/67
f 48/74/31 35/51/56 56/101/71 57/102/27
f 37/76/58 39/79/61 60/103/72 61/98/69
f 39/79/61 41/83/65 59/100/70 60/103/72
f 35/51/56 31/47/52 55/104/73 56/101/71
f 31/47/52 33/50/55 54/97/68 55/104/73
f 34/62/54 32/63/53 21/64/74 19/65/75
f 32/63/53 36/66/57 24/67/76 21/64/74
f 20/13/10 38/68/59 45/69/63 13/9/7
f 34/62/54 19/65/75 14/70/48 43/71/47
f 17/28/29 24/67/76 36/66/57 47/29/30
f 49/87/66 42/88/64 23/57/20 18/56/19
f 20/13/10 22/59/22 40/89/60 38/68/59
f 22/59/22 23/57/20 42/88/64 40/89/60
f 52/7/6 66/6/5 67/10/8 13/9/7
f 8/32/34 54/97/68 53/96/50 2/33/35
f 55/104/73 54/97/68 8/32/34 9/46/45
f 56/101/71 55/104/73 9/46/45 10/40/40
f 57/102/27 56/101/71 10/40/40 1/39/39
f 3/38/38 7/36/37 59/100/70 58/86/51
f 60/103/72 59/100/70 7/36/37 6/43/43
f 61/98/69 60/103/72 6/43/43 5/12/32
f 62/99/25 61/98/69 5/12/32 4/30/26
f 53/85/50 51/84/49 11/90/36 2/91/35
f 62/24/25 52/7/6 13/9/7 45/69/63 46/92/62
f 71/55/18 72/19/15 63/23/16 18/56/19
f 16/93/42 64/27/28 57/26/27 1/94/39
f 50/95/67 49/87/66 18/56/19 63/23/16 58/86/51
f 66/6/5 65/3/2 11/90/36 51/84/49
f 67/10/8 66/6/5 51/84/49 14/70/48
f 68/11/9 67/10/8 14/70/48 19/65/75
f 69/58/21 68/11/9 19/65/75 21/64/74
f 70/37/17 69/58/21 21/64/74 24/67/76
f 17/28/29 71/55/18 70/37/17 24/67/76
f 64/27/28 72/19/15 71/55/18 17/28/29
f 16/93/42 73/21/12 72/19/15 64/27/28
f 74/16/13 73/15/12 16/42/42 29/41/41
f 28/45/44 75/60/23 74/16/13 29/41/41
f 26/31/33 76/1/1 75/60/23 28/45/44
f 11/34/36 65/4/2 76/1/1 26/31/33
