# This file uses centimeters as units for non-parametric coordinates.

mtllib BushX2_Bridge.mtl
g default
v 0.474259 0.290910 0.410891
v 0.409067 0.336376 -0.226527
v 0.404038 -0.419019 -0.240725
v 0.445851 -0.389020 0.390028
v -0.438389 0.294214 -0.221886
v -0.390599 0.273820 0.402126
v -0.407336 -0.396423 0.401779
v -0.405680 -0.380638 -0.226527
v 0.327807 -0.501932 0.409540
v 0.270441 -0.526624 -0.237298
v 0.011938 -0.577915 0.477235
v -0.054715 -0.580401 -0.256814
v -0.302844 -0.489526 -0.231279
v -0.293523 -0.512407 0.414133
v 0.289817 0.468058 -0.235425
v 0.353509 0.390755 0.406931
v 0.013574 0.580401 -0.280654
v 0.035720 0.474495 0.453703
v -0.282899 0.384265 0.415895
v -0.311555 0.488192 -0.236982
v 0.013574 -0.330166 0.908190
v 0.013574 -0.520995 0.783577
v 0.330436 -0.285795 0.788389
v 0.312912 -0.444222 0.669645
v -0.267535 -0.276672 0.775263
v -0.265684 -0.439462 0.663655
v 0.292284 -0.351446 -0.694690
v 0.282800 -0.494169 -0.528323
v 0.013574 -0.421150 -0.805951
v -0.006827 -0.580401 -0.639604
v -0.298245 -0.356507 -0.683824
v -0.309147 -0.490602 -0.520390
v 0.421837 -0.380452 0.537232
v 0.446890 -0.239789 0.648712
v 0.385222 -0.419019 -0.401056
v 0.391773 -0.289198 -0.551337
v -0.372175 -0.372279 0.539739
v -0.375805 -0.228572 0.650789
v -0.406485 -0.399405 -0.390221
v -0.403942 -0.289060 -0.531151
v 0.526103 -0.049574 0.437674
v 0.501863 -0.155980 -0.244417
v 0.428427 -0.051298 0.643883
v 0.316068 -0.022671 0.754799
v 0.015182 0.011386 0.882118
v -0.286522 -0.005407 0.747734
v -0.402967 -0.007073 0.620836
v -0.433011 -0.068189 -0.509567
v -0.324448 -0.072111 -0.732811
v 0.008873 -0.069851 -0.908190
v 0.286098 -0.065843 -0.766044
v 0.387709 -0.065903 -0.575138
v -0.483164 -0.121551 -0.236408
v -0.511089 0.077514 0.437325
v 0.457920 0.345267 0.221287
v 0.534260 -0.057865 0.222199
v 0.461441 -0.359685 0.198856
v 0.334319 -0.481681 0.215930
v -0.008874 -0.580401 0.263769
v -0.316052 -0.523872 0.225303
v -0.428009 -0.415250 0.215924
v -0.534260 0.059909 0.231473
v -0.413313 0.321816 0.205398
v -0.270127 0.443998 0.224739
v 0.026170 0.527660 0.240568
v 0.328997 0.443914 0.160689
v 0.264302 0.313156 -0.516647
v 0.259478 0.141745 -0.702762
v 0.013660 0.374013 -0.647969
v 0.013352 0.191392 -0.813877
v -0.319681 0.311556 -0.486281
v -0.327436 0.133446 -0.661470
v 0.349868 0.220816 0.589841
v 0.029986 0.316616 0.705876
v -0.256985 0.247087 0.596127
v 0.438867 0.023146 0.625500
v 0.460355 0.149763 0.531817
v 0.356441 0.246800 -0.420878
v 0.350473 0.087209 -0.560048
v -0.424602 0.206408 -0.376234
v -0.445783 0.072603 -0.462011
v -0.363024 0.183890 0.473294
v -0.480316 0.115674 -0.309857
v -0.494278 0.108446 -0.229725
v -0.503735 0.218090 0.220083
v -0.457148 0.171397 0.375422
v 0.498248 0.057049 0.503932
v 0.513643 0.073555 0.438372
v 0.509792 0.120877 0.237531
v 0.487805 0.158467 -0.236669
v 0.418730 0.095502 -0.333247
v 0.165417 -0.563737 0.448013
v 0.178148 -0.486875 0.740952
v 0.187462 -0.310286 0.856712
v 0.183016 0.000427 0.830942
v 0.200416 0.280496 0.669522
v 0.185372 0.466511 0.446177
v 0.160277 0.497163 0.142907
v 0.145646 0.549448 -0.257229
v 0.145118 0.348247 -0.604772
v 0.154106 0.177106 -0.775905
v 0.165002 -0.065336 -0.868727
v 0.167658 -0.392309 -0.764920
v 0.153403 -0.544932 -0.599028
v 0.091775 -0.576689 -0.241048
v 0.160055 -0.552784 0.244704
v -0.133680 -0.573910 0.446492
v -0.141353 -0.487489 0.737116
v -0.141394 -0.312543 0.848884
v -0.151596 0.002369 0.829885
v -0.145973 0.290686 0.677991
v -0.135956 0.433653 0.435055
v -0.127995 0.493804 0.244898
v -0.160405 0.540223 -0.260717
v -0.161549 0.342656 -0.590762
v -0.175901 0.173265 -0.757771
v -0.181743 -0.065890 -0.855467
v -0.155645 -0.394084 -0.758191
v -0.174299 -0.547309 -0.597785
v -0.159795 -0.557770 -0.243873
v -0.161355 -0.579338 0.243663
vt 0.434952 0.838873
vt 0.415236 0.789089
vt 0.550391 0.788911
vt 0.560533 0.843208
vt 0.411027 0.721241
vt 0.549828 0.731751
vt 0.552252 0.558138
vt 0.423090 0.579271
vt 0.418604 0.527897
vt 0.552977 0.507527
vt 0.540019 0.073105
vt 0.410993 0.065505
vt 0.398667 0.007459
vt 0.545335 0.000998
vt 0.543506 0.130952
vt 0.115286 0.070593
vt 0.113979 0.000998
vt 0.172717 0.006315
vt 0.168286 0.074347
vt 0.410669 0.105680
vt 0.417140 0.330759
vt 0.419577 0.287795
vt 0.548140 0.279710
vt 0.551049 0.325252
vt 0.585598 0.715955
vt 0.057966 0.007260
vt 0.614654 0.764819
vt 0.293953 0.177540
vt 0.066769 0.073856
vt 0.019588 0.083878
vt 0.006536 0.017033
vt 0.168650 0.928172
vt 0.170022 0.999002
vt 0.555489 0.451401
vt 0.410520 0.472305
vt 0.405235 0.421650
vt 0.560459 0.406541
vt 0.556132 0.373595
vt 0.411631 0.377271
vt 0.353283 0.150026
vt 0.366999 0.287113
vt 0.324870 0.286039
vt 0.288649 0.245099
vt 0.290963 0.611248
vt 0.123281 0.417489
vt 0.168348 0.444982
vt 0.162855 0.569763
vt 0.123441 0.575538
vt 0.324565 0.568851
vt 0.368167 0.569942
vt 0.353774 0.670968
vt 0.285815 0.669022
vt 0.630986 0.180891
vt 0.548007 0.198925
vt 0.614506 0.138748
vt 0.235820 0.587356
vt 0.277788 0.533024
vt 0.281079 0.323294
vt 0.238682 0.270268
vt 0.644310 0.520536
vt 0.024823 0.420637
vt 0.073839 0.415498
vt 0.070719 0.573988
vt 0.699030 0.568665
vt 0.646603 0.595444
vt 0.600256 0.556396
vt 0.695912 0.275351
vt 0.642520 0.319330
vt 0.020216 0.572172
vt 0.349747 0.472929
vt 0.252931 0.483877
vt 0.597484 0.282389
vt 0.639744 0.248529
vt 0.233695 0.678429
vt 0.726673 0.661897
vt 0.657535 0.663944
vt 0.709669 0.181373
vt 0.238935 0.177353
vt 0.362048 0.523741
vt 0.363507 0.332878
vt 0.551588 0.640336
vt 0.415753 0.669016
vt 0.292599 0.691678
vt 0.410198 0.151031
vt 0.239950 0.425360
vt 0.350315 0.081929
vt 0.363569 0.117352
vt 0.340884 0.426277
vt 0.352108 0.382691
vt 0.323363 0.107587
vt 0.255400 0.370108
vt 0.352708 0.706616
vt 0.668130 0.475773
vt 0.681807 0.422539
vt 0.668431 0.366840
vt 0.070348 0.352272
vt 0.019387 0.350627
vt 0.360523 0.770739
vt 0.113592 0.998674
vt 0.122732 0.929491
vt 0.072427 0.925243
vt 0.334749 0.033960
vt 0.054775 0.993223
vt 0.352950 0.818962
vt 0.000726 0.985654
vt 0.021697 0.918809
vt 0.167597 0.831420
vt 0.125674 0.831846
vt 0.074342 0.828621
vt 0.711772 0.733357
vt 0.653026 0.793027
vt 0.657893 0.713000
vt 0.629240 0.054074
vt 0.685935 0.113455
vt 0.588967 0.096528
vt 0.321814 0.731180
vt 0.288384 0.763955
vt 0.272361 0.084142
vt 0.168559 0.350632
vt 0.019595 0.826331
vt 0.124194 0.351491
vt 0.065447 0.169384
vt 0.016188 0.175860
vt 0.167476 0.688957
vt 0.127384 0.695112
vt 0.073898 0.689200
vt 0.016864 0.671917
vt 0.171893 0.264307
vt 0.166435 0.168233
vt 0.115880 0.166953
vt 0.120864 0.266102
vt 0.069274 0.266471
vt 0.024779 0.273677
vt 0.168410 0.760101
vt 0.128159 0.761285
vt 0.227965 0.349198
vt 0.227830 0.265231
vt 0.225552 0.434905
vt 0.214568 0.567637
vt 0.211982 0.672481
vt 0.073982 0.758366
vt 0.018447 0.754694
vt 0.333002 0.701921
vt 0.567456 0.127740
vt 0.226368 0.013393
vt 0.218998 0.081083
vt 0.214732 0.169082
vt 0.209094 0.757885
vt 0.213974 0.832008
vt 0.214316 0.925693
vt 0.221763 0.998336
vn 0.530086 0.847272 0.033756
vn 0.864596 0.502289 -0.013416
vn 0.851455 0.494637 -0.174235
vn 0.573061 0.801636 -0.170240
vn 0.983157 0.177650 -0.042932
vn 0.969051 0.193827 -0.152875
vn 0.887412 -0.451258 -0.094161
vn 0.901339 -0.432786 -0.016842
vn 0.510977 -0.859537 -0.009910
vn 0.463397 -0.886068 -0.012095
vn -0.838580 0.538244 -0.084122
vn -0.800843 0.594348 0.073489
vn -0.553860 0.821622 0.134818
vn -0.591024 0.799340 -0.108376
vn -0.975874 0.197807 -0.092419
vn -0.952085 0.305751 0.007087
vn -0.544393 -0.838661 -0.016868
vn -0.925638 -0.378316 0.008470
vn -0.928951 -0.364959 -0.062094
vn -0.540092 -0.840624 -0.040645
vn 0.209755 -0.977745 -0.004198
vn 0.230498 -0.973068 -0.002944
vn 0.030731 -0.999527 -0.001042
vn -0.013179 -0.999843 -0.011849
vn -0.271064 -0.962146 -0.028255
vn -0.235308 -0.971883 -0.008631
vn -0.032066 0.989310 0.142262
vn 0.309667 0.946020 0.095664
vn 0.367126 0.915448 -0.164845
vn -0.024442 0.980004 -0.197469
vn -0.267801 0.950750 0.156067
vn -0.309638 0.935984 -0.167508
vn 0.888414 0.194850 -0.415637
vn 0.806445 0.416675 -0.419558
vn -0.881485 0.044073 0.470151
vn -0.961162 -0.069966 0.266969
vn -0.918998 -0.328150 0.218540
vn -0.880706 -0.319141 0.350008
vn -0.878401 -0.173990 0.445128
vn 0.905773 -0.163488 0.390955
vn 0.889335 -0.369949 0.268739
vn 0.915130 -0.387403 0.111601
vn 0.982524 -0.128180 0.134969
vn 0.862882 0.046175 0.503291
vn -0.947321 -0.074750 -0.311440
vn -0.982701 -0.170125 -0.073186
vn -0.906574 0.202213 -0.370451
vn -0.012317 -0.186834 0.982314
vn 0.003159 -0.838754 0.544502
vn 0.343931 -0.804053 0.484985
vn 0.386525 -0.172512 0.906001
vn -0.376576 -0.783020 0.495045
vn -0.432733 -0.176038 0.884168
vn -0.650087 -0.165647 0.741584
vn -0.608915 -0.659330 0.441028
vn 0.631069 -0.171190 0.756601
vn 0.569946 -0.715527 0.403958
vn 0.425793 -0.442088 -0.789467
vn 0.314828 -0.906825 -0.280271
vn -0.015791 -0.937720 -0.347032
vn -0.010391 -0.473210 -0.880888
vn 0.561599 -0.789453 -0.247733
vn 0.724170 -0.332127 -0.604375
vn 0.917452 -0.220450 -0.331187
vn 0.894582 -0.386868 -0.223730
vn -0.409952 -0.422137 -0.808542
vn -0.370239 -0.874467 -0.313416
vn -0.622248 -0.748394 -0.229595
vn -0.707968 -0.332137 -0.623271
vn -0.924354 -0.361011 -0.123454
vn -0.933931 -0.211944 -0.287839
vn 0.577862 0.257379 0.774488
vn 0.748751 0.026074 -0.662338
vn 0.930699 -0.005141 -0.365750
vn -0.747851 -0.009152 -0.663804
vn -0.649881 0.244960 0.719479
vn 0.424925 -0.009556 -0.905178
vn -0.038658 -0.016884 -0.999110
vn -0.429454 0.002253 -0.903086
vn -0.401223 0.267766 0.875969
vn 0.380694 0.281271 0.880885
vn -0.001684 0.289321 0.957231
vn 0.271439 -0.956654 0.105516
vn 0.028925 -0.989190 0.143757
vn -0.252656 -0.952744 0.168653
vn -0.540101 -0.818457 0.196008
vn 0.514016 -0.854815 0.071270
vn 0.982737 -0.138670 -0.122470
vn 0.994722 -0.098642 -0.028233
vn 0.685178 0.293648 0.666560
vn -0.993610 -0.112160 0.012645
vn -0.727862 0.570710 0.380141
vn -0.824804 0.476776 0.303945
vn -0.689960 0.474571 0.546569
vn 0.980898 0.172834 0.089264
vn 0.834529 0.486087 0.259384
vn -0.559883 0.737362 0.377925
vn -0.307668 0.860702 0.405626
vn 0.323090 0.869485 0.373642
vn -0.014957 0.911490 0.411050
vn 0.504370 0.792729 0.342332
vn 0.418363 0.735195 -0.533349
vn 0.433211 0.484772 -0.759819
vn -0.044409 0.516040 -0.855412
vn -0.034989 0.800643 -0.598119
vn 0.720079 0.398729 -0.567892
vn 0.645205 0.611169 -0.458458
vn 0.872428 0.293819 -0.390563
vn -0.370001 0.743602 -0.556917
vn -0.423525 0.489421 -0.762294
vn -0.722117 0.374817 -0.581429
vn -0.632977 0.617202 -0.467335
vn -0.839971 0.426049 -0.336052
vn 0.699494 0.392646 0.597107
vn 0.549985 0.510161 0.661250
vn 0.380696 0.590622 0.711504
vn -0.002319 0.667344 0.744746
vn -0.363376 0.627135 0.688955
vn -0.606390 0.538160 0.585385
vn 0.913193 0.141139 0.382306
vn -0.961121 0.162194 -0.223473
s 1
g BushX2_Bridge group1
usemtl lambert2SG
f 66/1/1 55/2/2 2/3/3 15/4/4
f 2/3/3 55/2/2 89/5/5 90/6/6
f 3/7/7 57/8/8 58/9/9 10/10/10
f 5/11/11 63/12/12 64/13/13 20/14/14
f 84/15/15 85/20/16 63/12/12 5/11/11
f 60/21/17 61/22/18 8/23/19 13/24/20
f 105/34/21 106/35/22 59/36/23 12/37/24
f 120/38/25 121/39/26 60/21/17 13/24/20
f 65/45/27 98/46/28 99/47/29 17/48/30
f 64/61/13 113/62/31 114/63/32 20/69/14
f 2/3/3 90/6/6 91/25/33 78/27/34
f 47/28/35 54/40/36 7/41/37 37/42/38 38/43/39
f 34/44/40 33/49/41 4/50/42 41/51/43 43/52/44
f 48/53/45 53/54/46 81/55/47
f 21/16/48 22/17/49 93/18/50 94/19/51
f 108/26/52 109/29/53 25/30/54 26/31/55
f 23/56/56 24/57/57 33/49/41 34/44/40
f 26/58/55 25/59/54 38/43/39 37/42/38
f 103/32/58 104/33/59 30/99/60 29/100/61
f 28/60/62 27/64/63 36/65/64 35/66/65
f 118/101/66 119/103/67 32/105/68 31/106/69
f 31/67/69 32/68/68 39/72/70 40/73/71
f 43/52/44 44/74/72 23/56/56 34/44/40
f 27/64/63 51/75/73 52/76/74 36/65/64
f 48/53/45 49/77/75 31/67/69 40/73/71
f 38/43/39 25/59/54 46/78/76 47/28/35
f 102/107/77 103/32/58 29/100/61 50/108/78
f 117/109/79 118/101/66 31/106/69 49/120/75
f 25/30/54 109/29/53 110/122/80 46/123/76
f 21/16/48 94/19/51 95/129/81 45/130/82
f 92/70/83 93/71/50 22/85/49 11/88/84
f 107/89/85 108/91/52 26/58/55 14/80/86
f 10/10/10 28/60/62 35/66/65 3/7/7
f 24/57/57 9/79/87 4/50/42 33/49/41
f 7/41/37 14/80/86 26/58/55 37/42/38
f 39/72/70 32/68/68 13/24/20 8/23/19
f 104/93/59 105/34/21 12/37/24 30/94/60
f 119/95/67 120/38/25 13/24/20 32/68/68
f 42/81/88 56/82/89 57/8/8 3/7/7
f 43/52/44 41/51/43 76/83/90
f 52/76/74 42/81/88 3/7/7 35/66/65 36/65/64
f 61/22/18 62/84/91 53/54/46 8/23/19
f 6/86/92 86/87/93 82/90/94
f 40/73/71 39/72/70 8/23/19 53/54/46 48/53/45
f 88/92/95 89/5/5 55/2/2 1/98/96
f 57/8/8 56/82/89 41/51/43 4/50/42
f 58/9/9 57/8/8 4/50/42 9/79/87
f 59/36/23 106/35/22 92/70/83 11/88/84
f 60/21/17 121/39/26 107/89/85 14/80/86
f 7/41/37 61/22/18 60/21/17 14/80/86
f 54/40/36 62/84/91 61/22/18 7/41/37
f 6/86/92 63/12/12 85/20/16 86/87/93
f 64/13/13 63/12/12 6/86/92 19/102/97
f 112/96/98 113/62/31 64/61/13 19/97/97
f 97/119/99 98/46/28 65/45/27 18/121/100
f 1/98/96 55/2/2 66/1/1 16/104/101
f 100/124/102 101/134/103 70/135/104 69/125/105
f 68/110/106 67/111/107 78/27/34 79/112/108
f 115/126/109 116/141/110 72/142/111 71/127/112
f 71/113/112 72/114/111 81/55/47 80/115/113
f 76/83/90 77/116/114 73/117/115 44/74/72 43/52/44
f 95/129/81 96/128/116 74/131/117 45/130/82
f 110/122/80 111/132/118 75/133/119 46/123/76
f 75/118/119 82/90/94 47/28/35 46/78/76
f 67/111/107 15/4/4 2/3/3 78/27/34
f 16/104/101 73/117/115 77/116/114 1/98/96
f 5/11/11 20/14/14 71/113/112 80/115/113
f 82/90/94 75/118/119 19/102/97 6/86/92
f 99/47/29 100/124/102 69/125/105 17/48/30
f 114/63/32 115/126/109 71/127/112 20/69/14
f 96/128/116 97/119/99 18/121/100 74/131/117
f 111/132/118 112/96/98 19/97/97 75/133/119
f 81/55/47 72/114/111 49/77/75 48/53/45
f 116/141/110 117/109/79 49/120/75 72/142/111
f 101/134/103 102/107/77 50/108/78 70/135/104
f 52/76/74 51/75/73 68/110/106 79/112/108
f 77/116/114 87/143/120 88/92/95 1/98/96
f 76/83/90 87/143/120 77/116/114
f 47/28/35 82/90/94 54/40/36
f 80/115/113 83/144/121 84/15/15 5/11/11
f 81/55/47 83/144/121 80/115/113
f 79/112/108 42/81/88 52/76/74
f 78/27/34 91/25/33 79/112/108
f 81/55/47 53/54/46 83/144/121
f 84/15/15 83/144/121 53/54/46
f 62/84/91 85/20/16 84/15/15 53/54/46
f 86/87/93 85/20/16 62/84/91 54/40/36
f 82/90/94 86/87/93 54/40/36
f 76/83/90 41/51/43 87/143/120
f 88/92/95 87/143/120 41/51/43
f 56/82/89 89/5/5 88/92/95 41/51/43
f 90/6/6 89/5/5 56/82/89 42/81/88
f 91/25/33 90/6/6 42/81/88
f 79/112/108 91/25/33 42/81/88
f 24/57/57 93/71/50 92/70/83 9/79/87
f 94/19/51 93/18/50 24/145/57 23/146/56
f 95/129/81 94/19/51 23/146/56 44/147/72
f 44/147/72 73/137/115 96/128/116 95/129/81
f 16/136/101 97/119/99 96/128/116 73/137/115
f 16/136/101 66/138/1 98/46/28 97/119/99
f 99/47/29 98/46/28 66/138/1 15/139/4
f 67/140/107 100/124/102 99/47/29 15/139/4
f 67/140/107 68/148/106 101/134/103 100/124/102
f 51/149/73 102/107/77 101/134/103 68/148/106
f 27/150/63 103/32/58 102/107/77 51/149/73
f 27/150/63 28/151/62 104/33/59 103/32/58
f 10/10/10 105/34/21 104/93/59 28/60/62
f 10/10/10 58/9/9 106/35/22 105/34/21
f 92/70/83 106/35/22 58/9/9 9/79/87
f 22/85/49 108/91/52 107/89/85 11/88/84
f 22/17/49 21/16/48 109/29/53 108/26/52
f 110/122/80 109/29/53 21/16/48 45/130/82
f 45/130/82 74/131/117 111/132/118 110/122/80
f 18/121/100 112/96/98 111/132/118 74/131/117
f 18/121/100 65/45/27 113/62/31 112/96/98
f 114/63/32 113/62/31 65/45/27 17/48/30
f 69/125/105 115/126/109 114/63/32 17/48/30
f 69/125/105 70/135/104 116/141/110 115/126/109
f 50/108/78 117/109/79 116/141/110 70/135/104
f 29/100/61 118/101/66 117/109/79 50/108/78
f 29/100/61 30/99/60 119/103/67 118/101/66
f 12/37/24 120/38/25 119/95/67 30/94/60
f 12/37/24 59/36/23 121/39/26 120/38/25
f 107/89/85 121/39/26 59/36/23 11/88/84
