# This file uses centimeters as units for non-parametric coordinates.

mtllib Bridge_Small.mtl
g default
v -3.448634 4.745101 -2.561983
v 1.721295 4.745101 -2.561983
v 1.721295 3.792374 -1.331390
v -3.448633 3.792374 -1.331390
v -3.448634 4.745101 -3.004894
v 1.721295 4.745101 -3.004894
v 1.721295 0.000000 -2.371876
v -3.448632 0.000000 -2.371876
v 1.721295 2.167927 -2.371876
v -3.448634 2.167927 -2.371876
v 1.721295 3.060719 -2.105976
v -3.448633 3.060719 -2.105976
v -3.448634 4.745101 0.000002
v 1.721295 4.745101 0.000002
v 1.721295 4.126228 0.000002
v -3.448633 4.126228 0.000002
v 1.721295 4.155823 -2.561983
v 1.721295 0.000000 -2.561983
v 1.945305 4.745101 -2.561983
v 1.945305 4.155823 -2.561983
v 1.945305 4.155823 -3.004894
v 1.945305 4.745101 -3.004894
v 1.880170 4.155823 -3.004898
v 1.880170 4.155823 -2.561983
v 1.880170 0.000000 -2.561983
v 1.880170 -0.000000 -3.004894
v 1.721295 4.745101 -2.201164
v 1.721295 4.155823 -2.201164
v 1.945305 4.155823 -2.201164
v 1.945305 4.745101 -2.201164
v -2.770334 4.745101 0.000002
v 1.042994 4.745101 0.000002
v 1.042994 4.745101 -2.561983
v -2.770334 4.745101 -2.561983
v 1.042994 4.745101 -3.004894
v -2.770334 4.745101 -3.004894
v -2.770334 4.494530 0.000002
v 1.042994 4.494530 0.000002
v 1.042994 4.494530 -2.561983
v -2.770334 4.494530 -2.561983
v 1.042994 4.494530 -3.004894
v -2.770334 4.494530 -3.004894
v -3.448634 4.745101 -1.283680
v -2.770334 4.745101 -1.283680
v -2.770334 4.494530 -1.283680
v 1.042994 4.494530 -1.283680
v 1.042994 4.745101 -1.283680
v 1.721295 4.745101 -1.283680
v 1.719477 4.040212 -0.658857
v -3.448633 4.075720 -0.669611
v 1.721295 2.704726 -2.275673
v -3.448634 2.704726 -2.275673
v 1.720159 3.547270 -1.753757
v -3.448633 3.576426 -1.747486
v 1.721295 4.155823 -3.004894
v -3.448631 0.000001 -3.004904
v -3.448633 4.745100 2.561991
v 1.721296 4.745101 2.561987
v 1.721295 3.792374 1.331394
v -3.448634 3.792374 1.331394
v -3.448634 4.745101 3.004898
v 1.721295 4.745101 3.004898
v 1.721295 0.000000 2.371880
v -3.448633 0.000000 2.371880
v 1.721295 2.167927 2.371880
v -3.448634 2.167927 2.371880
v 1.721295 3.060719 2.105978
v -3.448634 3.060719 2.105978
v 1.721295 4.155823 2.561987
v 1.721295 -0.000000 2.561987
v 1.945305 4.745101 2.561987
v 1.945305 4.155823 2.561987
v 1.945305 4.155823 3.004898
v 1.945305 4.745101 3.004898
v 1.880170 4.155823 3.004900
v 1.880170 4.155823 2.561987
v 1.880170 -0.000000 2.561987
v 1.880170 -0.000000 3.004898
v 1.721295 4.745101 2.201168
v 1.721295 4.155823 2.201168
v 1.945305 4.155823 2.201168
v 1.945305 4.745101 2.201168
v 1.042994 4.745101 2.561987
v -2.770334 4.745101 2.561987
v 1.042994 4.745101 3.004898
v -2.770334 4.745101 3.004898
v 1.042994 4.494530 2.561987
v -2.770334 4.494530 2.561987
v 1.042994 4.494530 3.004898
v -2.770334 4.494530 3.004898
v -3.448634 4.745101 1.283684
v -2.770334 4.745101 1.283684
v -2.770334 4.494530 1.283684
v 1.042994 4.494530 1.283684
v 1.042994 4.745101 1.283684
v 1.721295 4.745101 1.283684
v 1.719476 4.040212 0.658861
v -3.448634 4.075720 0.669615
v 1.721295 2.704726 2.275677
v -3.448634 2.704726 2.275677
v 1.720159 3.547270 1.753759
v -3.448634 3.576426 1.747488
v 1.721295 4.155823 3.004898
v -3.448632 0.000000 3.004904
v 3.448634 0.000000 3.004898
v -3.448634 1.753078 3.004898
v 3.448634 1.753078 3.004898
v -3.448634 1.753078 1.782768
v -3.448634 0.000000 1.782768
v 1.991891 1.753078 1.782768
v 2.676880 1.753078 2.204643
v 1.991891 0.000000 1.782768
v 2.676880 0.000000 2.204643
v -3.448634 0.000000 3.004898
v 3.448634 0.000000 3.004898
v -3.448634 0.000000 3.004898
v -3.448634 0.000000 1.782768
v -3.448634 1.753078 -3.004894
v 3.448634 1.753078 -3.004894
v 3.448634 0.000000 -3.004894
v -3.448634 0.000000 -1.796759
v -3.448634 1.753078 -1.796759
v 2.676880 0.000000 -2.218639
v 1.991891 0.000000 -1.796759
v 2.676880 1.753078 -2.218639
v 1.991891 1.753078 -1.796759
v 3.448634 0.000000 -3.004894
v -3.448634 0.000000 -3.004894
v -3.448634 0.000000 -1.796759
v -3.448634 0.000000 -3.004894
vt 0.903335 0.995439
vt 0.677225 0.995436
vt 0.525335 0.539520
vt 0.523421 0.846016
vt 0.677221 0.843840
vt 0.903336 0.843844
vt 0.461419 0.845603
vt 0.463573 0.539105
vt 0.361545 0.538347
vt 0.359377 0.844866
vt 0.004356 0.842611
vt 0.610173 0.995434
vt 0.006435 0.536096
vt 0.409162 0.538694
vt 0.406880 0.845201
vt 0.588452 0.452520
vt 0.649833 0.440641
vt 0.742424 0.509388
vt 0.367631 0.512246
vt 0.367151 0.446738
vt 0.394541 0.446567
vt 0.394977 0.512163
vt 0.403023 0.432915
vt 0.376374 0.433062
vt 0.375225 0.002765
vt 0.401380 0.002702
vt 0.345463 0.526122
vt 0.331090 0.447052
vt 0.344902 0.446973
vt 0.345446 0.512292
vt 0.395046 0.526029
vt 0.367717 0.526059
vt 0.677219 0.817579
vt 0.903336 0.817583
vt 0.741841 0.445727
vt 0.688125 0.402125
vt 0.698456 0.356180
vt 0.742284 0.003725
vt 0.698858 0.003695
vt 0.650382 0.843839
vt 0.650385 0.995435
vt 0.970417 0.843845
vt 0.970400 0.995440
vt 0.930177 0.995440
vt 0.930184 0.843844
vt 0.610215 0.817576
vt 0.650389 0.817576
vt 0.970451 0.817582
vt 0.930191 0.817581
vt 0.365603 0.002807
vt 0.366743 0.433002
vt 0.331604 0.512487
vt 0.344737 0.433187
vt 0.589559 0.511386
vt 0.610171 0.843839
vt 0.970408 0.919643
vt 0.930181 0.919642
vt 0.903335 0.919642
vt 0.677223 0.919638
vt 0.650383 0.919637
vt 0.610172 0.919637
vt 0.666101 0.510058
vt 0.618670 0.449692
vt 0.495458 0.539438
vt 0.493238 0.845835
vt 0.693935 0.383769
vt 0.389811 0.538543
vt 0.387589 0.845063
vt 0.669345 0.427582
vt 0.440424 0.539016
vt 0.439411 0.845454
vt 0.006744 0.512097
vt 0.006744 0.448971
vt 0.010606 0.448971
vt 0.020027 0.512098
vt 0.403284 0.436917
vt 0.376119 0.437108
vt 0.060247 0.512097
vt 0.020027 0.448971
vt 0.060247 0.485254
vt 0.010606 0.003780
vt 0.286359 0.485254
vt 0.326579 0.003780
vt 0.326579 0.512096
vt 0.286359 0.512096
vt 0.482029 0.385695
vt 0.487586 0.404198
vt 0.506121 0.431002
vt 0.525099 0.442227
vt 0.433912 0.511016
vt 0.555284 0.452480
vt 0.509709 0.511017
vt 0.585506 0.511018
vt 0.529222 0.522478
vt 0.555486 0.522478
vt 0.555490 0.531899
vt 0.599213 0.531899
vt 0.599213 0.838450
vt 0.529222 0.838449
vt 0.477646 0.002701
vt 0.585507 0.452781
vt 0.407655 0.002700
vt 0.477642 0.357794
vt 0.407649 0.511015
vt 0.903335 0.919642
vt 0.677223 0.919638
vt 0.677221 0.843840
vt 0.903336 0.843844
vt 0.666101 0.510058
vt 0.618670 0.449692
vt 0.649833 0.440641
vt 0.742424 0.509388
vt 0.495458 0.539438
vt 0.493238 0.845835
vt 0.461419 0.845603
vt 0.463573 0.539105
vt 0.677219 0.817579
vt 0.903336 0.817583
vt 0.367631 0.512246
vt 0.367151 0.446738
vt 0.394541 0.446567
vt 0.394977 0.512163
vt 0.361545 0.538347
vt 0.359377 0.844866
vt 0.004356 0.842611
vt 0.006435 0.536096
vt 0.403023 0.432915
vt 0.376374 0.433062
vt 0.375225 0.002765
vt 0.401380 0.002702
vt 0.389811 0.538543
vt 0.387589 0.845063
vt 0.440424 0.539016
vt 0.439411 0.845454
vt 0.406880 0.845201
vt 0.409162 0.538694
vt 0.741841 0.445727
vt 0.669345 0.427582
vt 0.688125 0.402125
vt 0.693935 0.383769
vt 0.742284 0.003725
vt 0.698456 0.356180
vt 0.698858 0.003695
vt 0.331604 0.512487
vt 0.331090 0.447052
vt 0.344902 0.446973
vt 0.345446 0.512292
vt 0.395046 0.526029
vt 0.367717 0.526059
vt 0.366743 0.433002
vt 0.365603 0.002807
vt 0.344737 0.433187
vt 0.345463 0.526122
vt 0.650383 0.919637
vt 0.610172 0.919637
vt 0.610171 0.843839
vt 0.650382 0.843839
vt 0.970417 0.843845
vt 0.970408 0.919643
vt 0.930181 0.919642
vt 0.930184 0.843844
vt 0.610215 0.817576
vt 0.650389 0.817576
vt 0.970451 0.817582
vt 0.930191 0.817581
vt 0.970400 0.995440
vt 0.930177 0.995440
vt 0.903335 0.995439
vt 0.677225 0.995436
vt 0.650385 0.995435
vt 0.610173 0.995434
vt 0.589559 0.511386
vt 0.588452 0.452520
vt 0.525335 0.539520
vt 0.523421 0.846016
vt 0.006744 0.512097
vt 0.006744 0.448971
vt 0.010606 0.448971
vt 0.020027 0.512098
vt 0.403284 0.436917
vt 0.376119 0.437108
vt 0.060247 0.512097
vt 0.020027 0.448971
vt 0.060247 0.485254
vt 0.010606 0.003780
vt 0.286359 0.485254
vt 0.326579 0.003780
vt 0.326579 0.512096
vt 0.286359 0.512096
vt 0.529222 0.522478
vt 0.555486 0.522478
vt 0.555490 0.531899
vt 0.599213 0.531899
vt 0.599213 0.838450
vt 0.529222 0.838449
vt 0.477642 0.357794
vt 0.407649 0.511015
vt 0.407655 0.002700
vt 0.477646 0.002701
vt 0.585507 0.452781
vt 0.585506 0.511018
vt 0.509709 0.511017
vt 0.555284 0.452480
vt 0.433912 0.511016
vt 0.525099 0.442227
vt 0.506121 0.431002
vt 0.487586 0.404198
vt 0.482029 0.385695
vt 0.855513 0.073874
vt 0.855247 0.308127
vt 0.785860 0.308038
vt 0.786143 0.073804
vt 0.833166 0.397058
vt 0.869151 0.337583
vt 0.924954 0.371005
vt 0.888995 0.430673
vt 0.925407 0.073947
vt 0.807183 0.366887
vt 0.793333 0.337698
vt 0.994862 0.074046
vt 0.994381 0.371125
vt 0.924642 0.003526
vt 0.994557 0.002766
vt 0.995322 0.073166
vt 0.967077 0.448065
vt 0.967338 0.686446
vt 0.896724 0.686531
vt 0.896480 0.448125
vt 0.882569 0.716513
vt 0.919196 0.777065
vt 0.862357 0.811273
vt 0.825762 0.750521
vt 0.825349 0.448189
vt 0.959793 0.716634
vt 0.945691 0.746360
vt 0.755102 0.750629
vt 0.754664 0.448279
vt 0.826010 0.376661
vt 0.754335 0.447510
vt 0.754997 0.376003
vn 0.000000 1.000000 0.000000
vn 0.000000 1.000000 0.000000
vn 0.000000 1.000000 0.000000
vn 0.000000 1.000000 0.000000
vn 1.000000 -0.000406 0.000566
vn 1.000000 -0.001020 -0.000071
vn 1.000000 -0.000289 0.000733
vn 1.000000 -0.000031 0.000607
vn -0.003585 -0.969974 0.243183
vn -0.003585 -0.969955 0.243257
vn -0.003023 -0.909634 0.415400
vn -0.003023 -0.909632 0.415404
vn 0.000000 1.000000 0.000000
vn 0.000000 1.000000 0.000000
vn 1.000000 0.000000 0.000000
vn 1.000000 0.000000 0.000000
vn 1.000000 0.000000 0.000000
vn 1.000000 0.000000 0.000000
vn 0.000000 -0.035546 0.999368
vn 0.000000 -0.035546 0.999368
vn 0.000000 0.000000 1.000000
vn 0.000000 0.000000 1.000000
vn 1.000000 0.000000 0.000000
vn 1.000000 0.000000 0.000000
vn 1.000000 0.000000 0.000000
vn 1.000000 0.000000 0.000000
vn 0.000000 -0.285439 0.958397
vn 0.000000 -0.285439 0.958397
vn -0.001632 -0.726534 0.687128
vn -0.001635 -0.727408 0.686203
vn -0.000695 -0.522354 0.852728
vn -0.000694 -0.522312 0.852754
vn 1.000000 -0.000111 0.000250
vn 0.999999 -0.001036 0.000625
vn 1.000000 0.000372 0.000892
vn 1.000000 -0.000000 -0.000000
vn 1.000000 0.000000 0.000000
vn 1.000000 0.000000 0.000000
vn 1.000000 0.000000 0.000000
vn 0.000000 0.000000 1.000000
vn 0.000000 0.000000 1.000000
vn 0.000000 0.000000 1.000000
vn 0.000000 0.000000 1.000000
vn 0.000000 1.000000 -0.000001
vn 0.000000 1.000000 -0.000000
vn 0.000000 1.000000 0.000000
vn 0.000000 1.000000 0.000000
vn 0.000000 0.000000 1.000000
vn 0.000000 0.000000 1.000000
vn 0.000000 0.000000 1.000000
vn 0.000000 0.000000 1.000000
vn 0.000000 -1.000000 0.000000
vn 0.000000 -1.000000 0.000000
vn 0.000000 -1.000000 0.000000
vn 0.000000 -1.000000 0.000000
vn 1.000000 0.000000 0.000000
vn 1.000000 0.000000 0.000000
vn 0.000000 1.000000 0.000000
vn 0.000000 1.000000 0.000000
vn 0.000000 1.000000 0.000000
vn 0.000000 1.000000 0.000000
vn 0.000000 1.000000 -0.000000
vn 0.000000 1.000000 0.000000
vn 0.000000 1.000000 0.000000
vn 0.000000 1.000000 0.000000
vn 0.000000 1.000000 0.000000
vn 0.000000 1.000000 -0.000001
vn 0.000000 1.000000 0.000000
vn 0.000000 1.000000 0.000000
vn -1.000000 0.000000 -0.000000
vn -1.000000 0.000000 -0.000000
vn -1.000000 0.000000 -0.000000
vn -1.000000 0.000000 -0.000000
vn -1.000000 0.000000 -0.000000
vn -1.000000 0.000000 -0.000000
vn 1.000000 0.000000 0.000000
vn 1.000000 0.000000 0.000000
vn 1.000000 0.000000 0.000000
vn 1.000000 0.000000 0.000000
vn 1.000000 0.000000 0.000000
vn 1.000000 0.000000 0.000000
vn 0.000000 1.000000 0.000000
vn 0.000000 1.000000 0.000000
vn 1.000000 0.000000 0.000000
vn 1.000000 0.000000 0.000000
vn 0.000000 1.000000 0.000000
vn 0.000000 1.000000 0.000000
vn -1.000000 0.000000 0.000000
vn -1.000000 0.000000 0.000000
vn 0.000000 1.000000 0.000000
vn 0.000000 1.000000 0.000000
vn 0.999999 -0.001778 0.000000
vn 0.999999 -0.001778 0.000000
vn -0.003523 -0.994754 0.102234
vn -0.003523 -0.994754 0.102234
vn 0.000014 0.000005 -1.000000
vn 0.000014 0.000005 -1.000000
vn -0.000015 0.000000 -1.000000
vn 0.000010 0.000005 -1.000000
vn 0.000000 -1.000000 0.000000
vn 0.000000 -1.000000 0.000000
vn 0.000000 -1.000000 0.000000
vn 0.000000 -1.000000 0.000000
vn 0.000000 0.000000 -1.000000
vn 0.000000 0.000000 -1.000000
vn 0.000000 0.000000 -1.000000
vn 0.000000 0.000000 -1.000000
vn -0.000023 -0.000001 -1.000000
vn -0.000023 -0.000001 -1.000000
vn 0.000001 0.000001 -1.000000
vn 0.000001 0.000001 -1.000000
vn 0.000001 0.000001 -1.000000
vn 0.000001 0.000001 -1.000000
vn 0.000001 0.000002 -1.000000
vn 0.000001 0.000002 -1.000000
vn 0.000001 0.000002 -1.000000
vn 0.000001 0.000002 -1.000000
vn 0.000000 0.000000 -1.000000
vn -0.000000 -1.000000 -0.000001
vn 0.000000 -1.000000 0.000000
vn -0.000000 -1.000000 -0.000001
vn 0.000000 -1.000000 0.000000
vn 0.000000 -1.000000 0.000000
vn 0.000000 -1.000000 0.000000
vn -0.000000 -1.000000 -0.000001
vn -0.000000 -1.000000 -0.000001
vn -1.000000 -0.000001 -0.000002
vn -1.000000 -0.000001 -0.000001
vn -1.000000 -0.000001 -0.000003
vn -1.000000 -0.000001 -0.000003
vn -1.000000 -0.000001 -0.000000
vn -1.000000 -0.000001 -0.000000
vn -1.000000 -0.000001 0.000000
vn -1.000000 -0.000001 0.000000
vn -1.000000 -0.000001 0.000000
vn -1.000000 -0.000001 0.000000
vn -1.000000 -0.000001 0.000000
vn -1.000000 0.000001 0.000002
vn -1.000000 0.000000 0.000001
vn 0.000000 1.000000 0.000000
vn 0.000000 1.000000 0.000000
vn 0.000000 1.000000 0.000000
vn 0.000000 1.000000 0.000000
vn 1.000000 -0.000406 -0.000566
vn 1.000000 -0.000031 -0.000608
vn 1.000000 -0.000289 -0.000734
vn 1.000000 -0.001020 0.000071
vn -0.003585 -0.969974 -0.243183
vn -0.003023 -0.909632 -0.415405
vn -0.003023 -0.909633 -0.415401
vn -0.003585 -0.969955 -0.243257
vn 0.000000 1.000000 0.000000
vn 0.000000 1.000000 0.000000
vn 1.000000 0.000000 0.000000
vn 1.000000 0.000000 0.000000
vn 1.000000 0.000000 0.000000
vn 1.000000 0.000000 0.000000
vn 0.000000 -0.035546 -0.999368
vn 0.000000 0.000000 -1.000000
vn 0.000000 0.000000 -1.000000
vn 0.000000 -0.035546 -0.999368
vn 1.000000 0.000000 0.000000
vn 1.000000 0.000000 0.000000
vn 1.000000 0.000000 0.000000
vn 1.000000 0.000000 0.000000
vn 0.000000 -0.285441 -0.958396
vn 0.000000 -0.285441 -0.958396
vn -0.001632 -0.726534 -0.687129
vn -0.000694 -0.522314 -0.852753
vn -0.000695 -0.522356 -0.852727
vn -0.001635 -0.727408 -0.686203
vn 1.000000 -0.000112 -0.000250
vn 0.999999 -0.001037 -0.000625
vn 1.000000 -0.000000 0.000000
vn 1.000000 0.000372 -0.000893
vn 1.000000 0.000000 0.000000
vn 1.000000 0.000000 0.000000
vn 1.000000 0.000000 0.000000
vn 0.000000 0.000000 -1.000000
vn 0.000000 0.000000 -1.000000
vn 0.000000 0.000000 -1.000000
vn 0.000000 0.000000 -1.000000
vn 0.000000 1.000000 0.000001
vn 0.000000 1.000000 0.000000
vn 0.000000 1.000000 0.000000
vn 0.000000 1.000000 -0.000000
vn 0.000000 0.000000 -1.000000
vn 0.000000 0.000000 -1.000000
vn 0.000000 0.000000 -1.000000
vn 0.000000 0.000000 -1.000000
vn 0.000000 -1.000000 0.000000
vn 0.000000 -1.000000 0.000000
vn 0.000000 -1.000000 0.000000
vn 0.000000 -1.000000 0.000000
vn 1.000000 0.000000 0.000000
vn 1.000000 0.000000 0.000000
vn 0.000000 1.000000 0.000000
vn 0.000000 1.000000 0.000000
vn 0.000000 1.000000 -0.000000
vn 0.000000 1.000000 -0.000000
vn 0.000000 1.000000 -0.000000
vn -0.000001 1.000000 -0.000000
vn -0.000001 1.000000 0.000000
vn -0.000000 1.000000 0.000000
vn -0.000000 1.000000 0.000000
vn 0.000000 1.000000 0.000001
vn -0.000001 1.000000 -0.000002
vn -0.000001 1.000000 -0.000002
vn -1.000000 0.000000 0.000000
vn -1.000000 0.000000 0.000000
vn -1.000000 0.000000 0.000000
vn -1.000000 0.000000 0.000000
vn -1.000000 0.000000 0.000000
vn -1.000000 0.000000 0.000000
vn 1.000000 0.000000 0.000000
vn 1.000000 0.000000 0.000000
vn 1.000000 0.000000 0.000000
vn 1.000000 0.000000 0.000000
vn 1.000000 0.000000 0.000000
vn 1.000000 0.000000 0.000000
vn -0.003523 -0.994754 -0.102234
vn -0.003523 -0.994754 -0.102234
vn 0.000007 0.000003 1.000000
vn 0.000005 0.000002 1.000000
vn -0.000008 0.000000 1.000000
vn 0.000007 0.000003 1.000000
vn 0.000000 -1.000000 0.000000
vn 0.000000 -1.000000 0.000000
vn 0.000000 -1.000000 0.000000
vn 0.000000 -1.000000 0.000000
vn 0.000000 0.000000 1.000000
vn -0.000000 0.000000 1.000000
vn -0.000000 0.000000 1.000000
vn 0.000000 0.000000 1.000000
vn -0.000012 -0.000000 1.000000
vn -0.000012 -0.000000 1.000000
vn 0.000001 0.000001 1.000000
vn 0.000001 0.000001 1.000000
vn 0.000001 0.000001 1.000000
vn 0.000001 0.000001 1.000000
vn 0.000001 0.000001 1.000000
vn 0.000001 0.000001 1.000000
vn 0.000001 0.000001 1.000000
vn 0.000001 0.000001 1.000000
vn -0.000000 0.000000 1.000000
vn -0.000000 -1.000000 0.000000
vn -0.000000 -1.000000 0.000000
vn 0.000000 -1.000000 -0.000000
vn 0.000000 -1.000000 -0.000000
vn 0.000000 -1.000000 -0.000000
vn 0.000000 -1.000000 -0.000000
vn -0.000000 -1.000000 0.000000
vn -0.000000 -1.000000 0.000000
vn -1.000000 -0.000000 0.000001
vn -1.000000 -0.000000 0.000001
vn -1.000000 -0.000000 0.000001
vn -1.000000 0.000000 0.000000
vn -1.000000 -0.000000 -0.000000
vn -1.000000 -0.000000 0.000000
vn -1.000000 0.000000 0.000000
vn -1.000000 0.000000 -0.000000
vn -1.000000 0.000000 -0.000000
vn -1.000000 0.000000 0.000000
vn -1.000000 0.000000 0.000000
vn 0.000000 0.000000 -1.000000
vn 0.068709 0.000000 -0.997637
vn 0.068709 0.000000 -0.997637
vn 0.000000 0.000000 -1.000000
vn 0.642719 0.000000 -0.766102
vn 0.642719 0.000000 -0.766102
vn 0.719809 0.000000 -0.694173
vn 0.719809 0.000000 -0.694173
vn 0.000000 1.000000 -0.000000
vn 0.000000 1.000000 0.000000
vn 0.000000 1.000000 -0.000000
vn 0.000000 1.000000 0.000001
vn 0.000000 1.000000 0.000000
vn 0.000000 0.000000 1.000000
vn 0.000000 0.000000 1.000000
vn 0.000000 0.000000 1.000000
vn 0.000000 0.000000 1.000000
vn -1.000000 0.000000 0.000000
vn -1.000000 0.000000 0.000000
vn -1.000000 0.000000 0.000000
vn -1.000000 0.000000 0.000000
vn 0.000000 0.000000 1.000000
vn 0.068710 0.000000 0.997637
vn 0.068710 0.000000 0.997637
vn 0.000000 0.000000 1.000000
vn 0.638369 0.000000 0.769731
vn 0.638369 0.000000 0.769731
vn 0.713657 0.000000 0.700495
vn 0.713657 0.000000 0.700495
vn 0.000000 1.000000 -0.000001
vn 0.000000 1.000000 -0.000000
vn 0.000000 1.000000 0.000000
vn 0.000000 1.000000 -0.000000
vn 0.000000 1.000000 0.000000
vn 0.000000 0.000000 -1.000000
vn 0.000000 0.000000 -1.000000
vn 0.000000 0.000000 -1.000000
vn 0.000000 0.000000 -1.000000
vn -1.000000 0.000000 0.000000
vn -1.000000 0.000000 0.000000
vn -1.000000 0.000000 0.000000
vn -1.000000 0.000000 0.000000
s 1
g Bridge_MainBody1
usemtl lambert5SG
f 45/58/1 46/59/2 39/5/3 40/6/4
s 2
f 48/62/5 49/63/6 3/17/7 2/18/8
s 3
f 49/64/9 50/65/10 4/7/11 3/8/12
s 1
f 40/6/4 39/5/3 41/33/13 42/34/14
s 4
f 19/19/15 20/20/16 21/21/17 22/22/18
s 3
f 9/9/19 10/10/20 8/11/21 7/13/22
s off
f 23/23/23 24/24/24 25/25/25 26/26/26
s 3
f 51/67/27 52/68/28 10/10/20 9/9/19
f 53/70/29 54/71/30 12/15/31 11/14/32
s 2
f 2/18/8 3/17/7 17/35/33
f 17/35/33 3/17/7 53/69/34
f 17/35/33 11/36/35 51/66/36
f 18/38/37 17/35/33 9/37/38 7/39/39
s off
f 27/52/40 28/28/41 29/29/42 30/30/43
s 6
f 6/31/44 2/32/45 19/19/46 22/22/47
s off
f 17/51/48 18/50/49 25/25/50 24/24/51
f 17/51/52 20/20/53 29/29/54 28/53/55
s 4
f 20/20/16 19/19/15 30/30/56 29/29/57
s 6
f 19/19/46 2/32/45 27/27/58 30/30/59
f 47/60/60 48/61/61 2/55/45 33/40/62
s 8
f 1/42/63 43/56/64 44/57/65 34/45/66
s 6
f 2/55/45 6/46/44 35/47/67 33/40/62
s 8
f 5/48/68 1/42/63 34/45/66 36/49/69
s 9
f 46/59/70 47/60/71 33/40/72 39/5/73
f 33/40/72 35/47/74 41/33/75 39/5/73
s 10
f 36/49/76 34/45/77 40/6/78 42/34/79
f 34/45/77 44/57/80 45/58/81 40/6/78
s 8
f 44/57/65 43/56/64 13/43/82 31/44/83
s 10
f 45/58/81 44/57/80 31/44/84 37/1/85
s 1
f 37/1/86 38/2/87 46/59/2 45/58/1
s 9
f 32/41/88 47/60/71 46/59/70 38/2/89
s 6
f 14/12/90 48/61/61 47/60/60 32/41/91
s 2
f 14/54/92 15/16/93 49/63/6 48/62/5
s 3
f 15/3/94 16/4/95 50/65/10 49/64/9
f 11/14/32 12/15/31 52/68/28 51/67/27
f 3/8/12 4/7/11 54/71/30 53/70/29
s 2
f 17/35/33 53/69/34 11/36/35
f 17/35/33 51/66/36 9/37/38
s 11
f 22/72/96 21/73/97 23/74/98 6/75/99
s off
f 24/24/100 23/23/101 21/76/102 20/77/103
s 12
f 35/78/104 6/75/105 55/79/106 41/80/107
s 11
f 55/79/108 23/74/98 26/81/109
f 6/75/99 23/74/98 55/79/108
s off
f 42/82/110 41/80/111 26/81/112 56/83/113
f 5/84/114 36/85/115 42/82/116 56/83/117
s 12
f 41/80/107 55/79/106 26/81/118
s 13
f 26/94/119 25/95/120 18/96/121
s off
f 18/96/122 7/97/123 8/98/124
s 13
f 26/94/119 18/96/121 8/98/125 56/99/126
s 14
f 10/103/127 5/104/128 56/102/129 8/100/130
f 16/101/131 13/93/132 43/92/133 50/91/134
f 50/91/134 43/92/133 1/90/135 4/89/136
f 4/89/136 1/90/135 5/104/128 54/88/137
f 54/88/137 5/104/128 12/87/138
f 12/87/138 5/104/128 52/86/139
f 52/86/139 5/104/128 10/103/127
s 1
f 93/105/140 88/108/141 87/107/142 94/106/143
s 2
f 96/109/144 58/112/145 59/111/146 97/110/147
s 18
f 97/113/148 59/116/149 60/115/150 98/114/151
s 1
f 88/108/141 90/118/152 89/117/153 87/107/142
s 19
f 71/119/154 74/122/155 73/121/156 72/120/157
s 18
f 65/123/158 63/126/159 64/125/160 66/124/161
s off
f 75/127/162 78/130/163 77/129/164 76/128/165
s 18
f 99/131/166 65/123/158 66/124/161 100/132/167
f 101/133/168 67/136/169 68/135/170 102/134/171
s 2
f 58/112/145 69/137/172 59/111/146
f 69/137/172 101/138/173 59/111/146
f 69/137/172 99/140/174 67/139/175
f 70/141/176 63/143/177 65/142/178 69/137/172
s off
f 79/144/179 82/147/180 81/146/181 80/145/182
s 6
f 62/148/183 74/122/184 71/119/185 58/149/186
s off
f 69/150/187 76/128/188 77/129/189 70/151/190
f 69/150/191 80/152/192 81/146/193 72/120/194
s 19
f 72/120/157 81/146/195 82/147/196 71/119/154
s 6
f 71/119/185 82/147/197 79/153/198 58/149/186
f 95/154/199 83/157/200 58/156/186 96/155/201
s 8
f 57/158/202 84/161/203 92/160/204 91/159/205
s 6
f 58/156/186 83/157/200 85/163/206 62/162/183
s 8
f 61/164/207 86/165/208 84/161/203 57/158/202
s 9
f 94/106/209 87/107/210 83/157/211 95/154/212
f 83/157/211 87/107/210 89/117/213 85/163/214
s 10
f 86/165/215 90/118/216 88/108/217 84/161/218
f 84/161/218 88/108/217 93/105/219 92/160/220
s 8
f 92/160/204 31/167/83 13/166/82 91/159/205
s 10
f 93/105/219 37/168/85 31/167/84 92/160/220
s 1
f 37/168/86 93/105/140 94/106/143 38/169/87
s 9
f 32/170/88 38/169/89 94/106/209 95/154/212
s 6
f 14/171/90 32/170/91 95/154/199 96/155/201
s 2
f 14/172/92 96/109/144 97/110/147 15/173/93
s 18
f 15/174/221 97/113/148 98/114/151 16/175/222
f 67/136/169 99/131/166 100/132/167 68/135/170
f 59/116/149 101/133/168 102/134/171 60/115/150
s 2
f 69/137/172 67/139/175 101/138/173
f 69/137/172 65/142/178 99/140/174
s 26
f 74/176/223 62/179/224 75/178/225 73/177/226
s off
f 76/128/227 72/181/228 73/180/229 75/127/230
s 27
f 85/182/231 89/184/232 103/183/233 62/179/234
s 26
f 103/183/235 78/185/236 75/178/225
f 62/179/224 103/183/235 75/178/225
s off
f 90/186/237 104/187/238 78/185/239 89/184/240
f 61/188/241 104/187/242 90/186/243 86/189/244
s 27
f 89/184/232 78/185/245 103/183/233
s 28
f 78/190/246 70/192/247 77/191/248
s off
f 70/192/249 64/194/250 63/193/251
s 28
f 78/190/246 104/195/252 64/194/253 70/192/247
s 14
f 66/196/254 64/199/255 104/198/256 61/197/257
f 16/200/131 98/203/258 91/202/259 13/201/132
f 98/203/258 60/205/260 57/204/261 91/202/259
f 60/205/260 102/206/262 61/197/257 57/204/261
f 102/206/262 68/207/263 61/197/257
f 68/207/263 100/208/264 61/197/257
f 100/208/264 66/196/254 61/197/257
s 30
f 108/209/265 110/210/266 112/211/267 109/212/268
f 113/213/269 111/214/270 107/215/271 105/216/272
s 31
f 111/214/273 106/217/274 107/215/275
s 30
f 110/210/266 111/214/270 113/218/269 112/219/267
s 31
f 106/217/274 110/210/276 108/209/277
f 111/214/273 110/210/276 106/217/274
s off
f 107/215/278 106/217/279 114/220/280 115/221/281
f 106/217/282 108/222/283 117/223/284 116/224/285
s 32
f 121/225/286 124/226/287 126/227/288 122/228/289
f 125/229/290 123/230/291 120/231/292 119/232/293
s 33
f 126/227/294 118/233/295 122/228/296
s 32
f 124/234/287 123/235/291 125/229/290 126/227/288
s 33
f 126/227/294 125/229/297 118/233/295
f 118/233/295 125/229/297 119/232/298
s off
f 118/233/299 119/232/300 127/236/301 128/237/302
f 122/238/303 118/233/304 130/239/305 129/240/306
