# This file uses centimeters as units for non-parametric coordinates.

mtllib RockX1_Bridge.mtl
g default
v -0.253110 0.155215 0.824230
v 0.736029 0.155215 0.477975
v -0.285937 0.155215 -0.824230
v 0.731332 0.155216 -0.559916
v -0.599005 0.169614 -0.624212
v 0.840712 0.155215 -0.318044
v -0.512194 0.132442 0.383931
v 0.840712 0.155215 0.302707
v 0.414063 0.133217 -0.824229
v 0.414063 0.180105 0.728453
v 0.864869 0.155215 -0.131819
v -0.856160 0.177258 -0.265743
v 0.481075 -0.216957 -0.361523
v 0.517984 -0.216957 -0.160216
v 0.261958 -0.182523 0.147107
v 0.556029 0.180105 0.643780
v 0.551333 0.155215 -0.725721
v -0.864869 0.154850 0.066398
v 0.864869 0.155215 0.085443
v 0.513462 -0.216957 0.050808
v -0.240839 0.087188 0.789754
v 0.395248 0.094547 0.693976
v 0.530909 0.045476 0.613064
v 0.707468 0.078232 0.453233
v 0.805379 0.064586 0.285050
v 0.825995 0.042218 0.078383
v 0.826033 0.048171 -0.128092
v 0.798437 -0.002886 -0.304242
v 0.698428 0.048171 -0.537178
v 0.526421 0.084900 -0.695620
v 0.395248 0.026172 -0.789753
v -0.273666 0.048171 -0.789753
v -0.572831 0.046792 -0.598619
v -0.824053 0.108412 -0.259574
v -0.832376 0.048171 0.057817
v -0.489317 0.064780 0.357232
v 0.502997 0.155215 -0.645624
v 0.375330 0.133217 -0.755301
v -0.491366 0.169614 -0.593045
v -0.747336 0.174489 -0.256327
v -0.753461 0.154898 0.069005
v -0.401848 0.135492 0.362197
v 0.354729 0.180105 0.624841
v 0.500596 0.180105 0.552178
v -0.204149 0.155215 -0.773181
v -0.236272 0.152682 0.744419
v 0.488717 0.171281 -0.655500
v 0.375330 0.133217 -0.755301
v 0.175781 0.199869 -0.400100
v 0.391005 0.199869 -0.460044
v -0.020768 0.199852 0.087402
v 0.010403 0.199868 -0.190760
v 0.175240 0.199867 0.312240
v 0.354258 0.206414 0.624522
v 0.500596 0.193014 0.552178
v 0.391005 0.199869 0.371089
v -0.204149 0.170636 -0.773181
v -0.490976 0.191093 -0.593532
v -0.720378 0.193195 -0.256072
v -0.727206 0.199506 0.070909
v -0.402631 0.148029 0.363041
v -0.237215 0.156719 0.743782
v 0.736029 0.155215 0.477975
v 0.840712 0.199869 0.302707
v 0.840712 0.199869 -0.318044
v -0.000408 0.222091 0.087403
v 0.391004 0.282403 0.105059
v 0.391005 0.264362 -0.160973
v 0.030764 0.222107 -0.190759
v 0.196143 0.222108 -0.400100
v 0.391005 0.212689 -0.460044
v 0.864869 0.238555 -0.131819
v 0.864869 0.238555 0.085443
v 0.840712 0.238555 -0.318044
v 0.411366 0.222109 0.371089
v 0.175238 0.238553 0.312240
v 0.840712 0.238555 0.302707
v 0.785078 0.177157 -0.441069
v 0.430503 0.188313 -0.539053
v 0.274807 0.211785 -0.576368
v -0.254094 0.222871 -0.524810
v -0.546251 0.223445 -0.240510
v -0.545349 0.228255 0.075154
v -0.251805 0.190219 0.349782
v 0.274626 0.203502 0.485610
v -0.114400 0.213021 -0.611071
v -0.122347 0.198073 0.580032
v -0.229544 -0.135778 0.767959
v -0.242606 -0.032918 0.794990
v 0.391286 -0.161503 0.673216
v 0.398294 -0.061193 0.699374
v -0.267941 -0.134148 -0.769298
v -0.275275 -0.032037 -0.794524
v 0.390128 -0.153795 -0.768608
v 0.397910 -0.053111 -0.794469
v -0.576403 -0.046245 -0.602199
v -0.548272 -0.149846 -0.596025
v 0.682844 -0.135008 -0.525644
v 0.703100 -0.032549 -0.540344
v 0.782255 -0.134955 -0.300376
v 0.804241 -0.030883 -0.306252
v 0.831523 -0.032436 -0.128611
v 0.806869 -0.134777 -0.127072
v -0.809258 -0.110576 -0.258443
v -0.834990 -0.008130 -0.264485
v 0.687996 -0.133351 0.441754
v 0.708819 -0.031881 0.457812
v 0.782523 -0.133269 0.285920
v 0.809015 -0.031667 0.288918
v -0.479254 -0.153980 0.339200
v -0.498898 -0.052950 0.357216
v 0.529161 -0.161317 0.590518
v 0.534639 -0.060056 0.617510
v 0.525221 -0.134825 -0.674596
v 0.530246 -0.031620 -0.700125
v 0.806910 -0.134775 0.077809
v 0.831403 -0.032382 0.080031
v -0.817495 -0.132037 0.042041
v -0.842447 -0.030632 0.055330
v -0.198615 -0.202609 0.324500
v 0.145618 -0.202609 0.360989
v 0.006303 -0.191131 0.450875
v -0.265148 -0.182522 0.044933
v -0.196150 -0.171044 -0.213203
v -0.054475 -0.191131 -0.440809
v 0.253958 -0.196870 -0.510270
v 0.510240 -0.242904 0.050426
v 0.011558 -0.238176 0.080114
v -0.068790 -0.257235 -0.056993
v 0.513923 -0.242798 -0.160044
v 0.476431 -0.224336 -0.359176
v -0.022165 -0.282403 -0.260969
v 0.115686 -0.245052 0.210361
v 0.259970 -0.184889 0.145138
v 0.251522 -0.204337 -0.506625
v -0.265038 -0.185056 0.044065
v -0.196386 -0.197187 -0.212952
v -0.054487 -0.217193 -0.438748
v -0.198327 -0.228748 0.323503
v 0.006399 -0.193668 0.449977
v 0.144952 -0.228643 0.358933
v -0.434456 -0.156543 0.339579
v 0.297044 -0.156129 0.672419
v -0.193223 -0.137849 0.730222
v -0.751287 -0.139076 0.041884
v -0.739688 -0.117214 -0.258502
v -0.484381 -0.152943 -0.596287
v 0.295557 -0.150331 -0.731346
v -0.223847 -0.135763 -0.719236
v -0.436120 -0.168756 0.341176
v -0.194338 -0.155585 0.733111
v -0.741401 -0.135109 -0.258901
v -0.485605 -0.165146 -0.597719
v -0.224497 -0.147850 -0.722607
vt 0.788103 0.589988
vt 0.794253 0.620706
vt 0.759547 0.639267
vt 0.796708 0.380639
vt 0.071409 0.483735
vt 0.054361 0.486593
vt 0.043748 0.457142
vt 0.689946 0.455442
vt 0.686584 0.380626
vt 0.069359 0.455766
vt 0.050803 0.166262
vt 0.736771 0.380427
vt 0.743027 0.449397
vt 0.219660 0.727908
vt 0.213886 0.639609
vt 0.239603 0.627883
vt 0.255938 0.729131
vt 0.621046 0.637993
vt 0.587647 0.618197
vt 0.065639 0.166485
vt 0.575362 0.574119
vt 0.630658 0.379939
vt 0.799859 0.696226
vt 0.782776 0.723141
vt 0.727183 0.779282
vt 0.666116 0.778525
vt 0.064473 0.260783
vt 0.664204 0.676702
vt 0.743249 0.455168
vt 0.612421 0.721259
vt 0.568219 0.694872
vt 0.033214 0.260194
vt 0.044011 0.211035
vt 0.065657 0.211379
vt 0.782935 0.417418
vt 0.794327 0.380053
vt 0.292210 0.724118
vt 0.274309 0.636789
vt 0.588782 0.527548
vt 0.647568 0.288447
vt 0.730679 0.290663
vt 0.689450 0.291039
vt 0.766038 0.295037
vt 0.770851 0.520078
vt 0.773117 0.293107
vt 0.635323 0.376682
vt 0.647113 0.421615
vt 0.648389 0.295680
vt 0.190278 0.658778
vt 0.193667 0.688099
vt 0.824209 0.568987
vt 0.810783 0.576453
vt 0.793495 0.532313
vt 0.842869 0.596165
vt 0.829249 0.603650
vt 0.840654 0.731384
vt 0.833614 0.714932
vt 0.730555 0.840172
vt 0.729986 0.819766
vt 0.797855 0.771730
vt 0.800877 0.791447
vt 0.666127 0.840775
vt 0.664501 0.822199
vt 0.605675 0.771626
vt 0.607780 0.752380
vt 0.521126 0.719953
vt 0.535385 0.717074
vt 0.574158 0.573300
vt 0.558056 0.601232
vt 0.541821 0.590584
vt 0.558689 0.563406
vt 0.593493 0.526410
vt 0.832194 0.601260
vt 0.811340 0.579138
vt 0.560898 0.602392
vt 0.832150 0.714080
vt 0.796279 0.769506
vt 0.036724 0.992167
vt 0.041773 0.923786
vt 0.666059 0.814261
vt 0.066280 0.925079
vt 0.058162 0.995436
vt 0.063130 0.335434
vt 0.040625 0.334756
vt 0.730087 0.813725
vt 0.041906 0.295136
vt 0.063377 0.295293
vt 0.071415 0.842699
vt 0.057158 0.843297
vt 0.047425 0.782159
vt 0.535382 0.716943
vt 0.068122 0.783080
vt 0.048720 0.412002
vt 0.045946 0.374680
vt 0.064462 0.375364
vt 0.064546 0.411932
vt 0.060494 0.697380
vt 0.046737 0.698109
vt 0.060021 0.606790
vt 0.608008 0.751560
vt 0.074183 0.606905
vt 0.017806 0.605999
vt 0.037647 0.606560
vt 0.025039 0.698595
vt 0.005305 0.698282
vt 0.620239 0.503438
vt 0.732621 0.274969
vt 0.751459 0.501619
vt 0.689285 0.275153
vt 0.320387 0.683344
vt 0.097641 0.708468
vt 0.158253 0.665269
vt 0.193289 0.688500
vt 0.112471 0.735467
vt 0.163311 0.554537
vt 0.167155 0.599306
vt 0.143345 0.637729
vt 0.091409 0.599569
vt 0.219771 0.587368
vt 0.266014 0.602266
vt 0.305836 0.627770
vt 0.248926 0.789252
vt 0.256180 0.733629
vt 0.293121 0.725536
vt 0.282419 0.784999
vt 0.005670 0.488998
vt 0.025256 0.487762
vt 0.003273 0.456800
vt 0.023672 0.458013
vt 0.001057 0.988269
vt 0.021266 0.991244
vt 0.025856 0.134893
vt 0.003167 0.924457
vt 0.023844 0.922670
vt 0.028642 0.165750
vt 0.007913 0.167712
vt 0.014740 0.842379
vt 0.034931 0.842533
vt 0.007797 0.210718
vt 0.028369 0.210878
vt 0.027627 0.260036
vt 0.006700 0.259381
vt 0.026339 0.294821
vt 0.005650 0.294445
vt 0.026201 0.335163
vt 0.005531 0.335256
vt 0.012720 0.783738
vt 0.032580 0.783505
vt 0.007261 0.413414
vt 0.027719 0.412865
vt 0.006951 0.376915
vt 0.027404 0.375480
vt 0.209683 0.787425
vt 0.217052 0.731337
vt 0.169887 0.783780
vt 0.140231 0.766218
vt 0.354121 0.735977
vt 0.325604 0.765871
vt 0.169515 0.602721
vt 0.161702 0.662251
vt 0.143848 0.637779
vt 0.220253 0.494213
vt 0.219639 0.586879
vt 0.276744 0.497048
vt 0.267865 0.598096
vt 0.339814 0.544915
vt 0.309548 0.625400
vt 0.363133 0.593519
vt 0.364949 0.691725
vt 0.321921 0.683840
vt 0.371705 0.709843
vt 0.098133 0.690754
vt 0.081865 0.591533
vt 0.088940 0.598417
vt 0.162053 0.544249
vt 0.161885 0.552696
vt 0.220332 0.481484
vt 0.277892 0.480827
vt 0.277959 0.494064
vt 0.341511 0.531203
vt 0.341434 0.543412
vt 0.375106 0.584947
vt 0.365416 0.593175
vt 0.061257 0.000994
vt 0.063181 0.136144
vt 0.039638 0.004322
vt 0.005666 0.134628
vt 0.003764 0.007018
vt 0.041260 0.134080
vt 0.024081 0.004703
vt 0.690162 0.461213
vt 0.642875 0.427649
vt 0.772313 0.597424
vt 0.610211 0.595916
vt 0.786282 0.422102
vt 0.718367 0.671005
vt 0.624762 0.508831
vt 0.646626 0.481298
vt 0.721279 0.480964
vt 0.746542 0.508800
vt 0.641146 0.294808
vt 0.639874 0.422960
vt 0.631761 0.381161
vt 0.766940 0.287766
vt 0.687665 0.275387
vt 0.730563 0.274787
vt 0.796676 0.379413
vt 0.784331 0.423038
vt 0.744417 0.455022
vt 0.688983 0.461114
vt 0.371556 0.709887
vt 0.097528 0.708725
vn 0.226567 -0.393298 0.891058
vn 0.221416 -0.154681 0.962834
vn 0.596080 -0.126079 0.792965
vn 0.557587 -0.341686 0.756537
vn 0.077743 0.983966 -0.160524
vn 0.053376 0.978778 -0.197853
vn 0.001636 0.999998 -0.001083
vn 0.098034 0.955853 -0.277010
vn 0.636140 -0.212199 -0.741821
vn 0.076850 -0.328104 -0.941510
vn 0.114774 -0.336859 -0.934534
vn 0.602666 -0.400771 -0.690055
vn 0.921300 -0.260860 -0.288371
vn 0.940750 -0.167581 -0.294798
vn 0.796800 -0.191194 -0.573197
vn 0.772575 -0.346617 -0.531963
vn -0.196022 -0.312999 -0.929305
vn -0.653474 -0.315770 -0.687939
vn -0.663695 -0.316931 -0.677542
vn -0.209289 -0.313058 -0.926387
vn -0.118818 0.992893 0.006766
vn -0.018155 0.999155 0.036877
vn -0.020956 0.997169 -0.072213
vn -0.112870 0.991516 -0.064470
vn 0.975872 -0.212033 0.052122
vn 0.983973 -0.170182 0.053248
vn 0.978637 -0.198235 -0.054524
vn 0.978046 -0.202383 -0.049671
vn 0.023331 -0.997332 0.069174
vn -0.057777 -0.997878 0.030035
vn -0.104759 -0.993865 0.035469
vn 0.046105 -0.998403 0.032659
vn -0.872032 -0.343686 -0.348482
vn -0.868052 -0.343108 -0.358834
vn -0.868200 -0.136255 0.477140
vn -0.839295 -0.375583 0.393092
vn -0.002258 0.999948 0.009907
vn -0.011113 0.999114 0.040602
vn 0.073024 0.991873 0.104188
vn 0.053919 0.996378 0.065756
vn 0.746943 -0.186693 0.638140
vn 0.933886 -0.190475 0.302616
vn 0.900958 -0.317666 0.295574
vn 0.729173 -0.268198 0.629584
vn -0.706463 -0.380605 0.596699
vn -0.770366 -0.130285 0.624148
vn -0.303686 -0.180503 0.935518
vn -0.228959 -0.472705 0.850957
vn 0.021701 0.983565 -0.179245
vn -0.007712 0.999254 -0.037851
vn -0.033420 0.999045 -0.028159
vn -0.042782 0.995674 0.082482
vn 0.034395 0.999079 0.025663
vn 0.044137 0.998871 0.017586
vn -0.059633 0.995360 0.075518
vn -0.078709 0.994840 0.064018
vn -0.103241 0.977807 -0.182306
vn 0.005258 0.976427 -0.215783
vn 0.069979 -0.997114 -0.029436
vn -0.078867 -0.994802 -0.064419
vn 0.136015 0.973120 0.185842
vn 0.557971 0.694573 0.454132
vn 0.181987 0.980493 -0.074259
vn 0.200399 0.978786 0.042644
vn 0.121680 0.973899 -0.191609
vn 0.204956 0.952702 -0.224391
vn 0.672437 0.546230 -0.499461
vn 0.009034 0.964398 0.264300
vn -0.083988 0.988989 0.121848
vn 0.156683 0.960463 0.230133
vn 0.023490 -0.992874 0.116827
vn 0.149325 -0.949815 0.274870
vn -0.068907 0.996810 -0.040259
vn 0.005533 0.981743 -0.190131
vn 0.010209 0.999578 -0.027201
vn -0.016213 0.999391 -0.030898
vn -0.001820 0.999669 -0.025657
vn 0.034537 0.999327 -0.012394
vn -0.013934 0.986455 -0.163439
vn 0.011244 0.999424 0.032015
vn 0.012095 0.999713 0.020679
vn 0.017245 0.999430 -0.029033
vn 0.015472 0.999744 -0.016494
vn 0.003704 0.997678 0.068001
vn -0.001149 0.997416 0.071833
vn -0.015516 0.999166 0.037779
vn -0.184858 0.968494 0.166876
vn -0.030315 0.998999 -0.032886
vn -0.042913 0.996963 0.064990
vn 0.093991 0.987538 0.126236
vn 0.002287 0.991654 0.128911
vn -0.030119 0.999542 -0.002863
vn 0.033494 0.999233 -0.020269
vn 0.000000 0.000000 -0.000000
vn 0.561974 -0.008935 -0.827107
vn 0.402736 0.008860 0.915273
vn 0.260727 0.033205 0.964841
vn -0.321130 -0.003488 -0.947029
vn -0.670022 0.301859 -0.678197
vn -0.670189 0.302383 -0.677799
vn -0.772745 0.611191 -0.171206
vn -0.777029 0.517998 0.357636
vn -0.758858 0.466310 0.454632
vn -0.767422 0.587130 -0.257568
vn -0.189415 -0.005094 0.981884
vn -0.696201 0.177994 0.695430
vn 0.107392 0.980367 -0.165372
vn -0.714894 0.654516 -0.246038
vn -0.811043 0.529729 0.248187
vn -0.812399 0.470226 0.344814
vn -0.699656 0.640570 -0.316467
vn -0.557409 0.186254 0.809077
vn -0.558244 0.186533 0.808436
vn -0.086063 0.028757 0.995875
vn 0.091002 0.973817 -0.208324
vn 0.062894 0.946972 -0.315100
vn 0.055605 0.941576 -0.332180
vn -0.113133 0.984453 -0.134366
vn -0.145114 0.987414 -0.062894
vn -0.172343 0.980478 0.094661
vn -0.209140 0.943998 0.255201
vn -0.242966 0.965747 0.091111
vn -0.011515 0.995963 0.089022
vn -0.343675 -0.290013 0.893185
vn -0.345882 -0.290056 0.892319
vn -0.777363 -0.101802 0.620760
vn -0.752460 -0.250981 0.608943
vn 0.212759 -0.250863 0.944352
vn 0.206634 -0.250635 0.945772
vn 0.613196 -0.242666 0.751734
vn 0.607583 -0.243144 0.756124
vn -0.186755 -0.241876 -0.952165
vn -0.196261 -0.103460 -0.975078
vn 0.126258 -0.115957 -0.985197
vn 0.109677 -0.249631 -0.962110
vn -0.657620 -0.230902 -0.717092
vn -0.699502 -0.093417 -0.708498
vn 0.639053 -0.082695 -0.764705
vn 0.633065 -0.226210 -0.740309
vn -0.895110 -0.248921 -0.369888
vn -0.923944 -0.068229 -0.376393
vn 0.801858 -0.225924 -0.553156
vn 0.804350 -0.097276 -0.586138
vn 0.948793 -0.110855 -0.295809
vn 0.930394 -0.224000 -0.290156
vn 0.991955 -0.108278 -0.065584
vn 0.971100 -0.229192 -0.066610
vn 0.992600 -0.108064 0.055388
vn 0.969492 -0.238900 0.054881
vn -0.847916 -0.271302 0.455449
vn -0.880749 -0.095872 0.463778
vn 0.752585 -0.239602 0.613357
vn 0.759044 -0.239852 0.605246
vn 0.919204 -0.247537 0.306251
vn 0.923353 -0.247593 0.293458
vn 0.051310 -0.966863 -0.250088
vn 0.083166 -0.996127 0.028546
vn 0.059813 -0.995690 0.070873
vn 0.106985 -0.992627 0.056974
vn 0.105484 -0.994380 0.008985
vn -0.098609 -0.994877 0.022280
vn -0.089820 -0.993943 0.063328
vn -0.018327 -0.991342 0.130019
vn -0.039635 -0.991404 0.124688
vn -0.205544 -0.978645 -0.002628
vn -0.406314 -0.912948 -0.037885
vn -0.208224 -0.943953 -0.256115
vn 0.272685 -0.961959 -0.016669
vn 0.273037 -0.961749 -0.022125
vn 0.216089 -0.966654 -0.137425
vn 0.265460 -0.959867 -0.090482
vn 0.184550 -0.975113 0.122863
vn 0.169393 -0.975123 0.142976
vn 0.113407 -0.988589 0.099148
vn 0.112966 -0.993596 0.002473
vn 0.158745 -0.971552 -0.175744
vn 0.248283 -0.953499 -0.170865
vn -0.094899 -0.995425 0.011121
vn -0.307649 0.052928 0.950027
vn 0.223118 0.040599 0.973946
vn 0.601064 0.046460 0.797849
vn 0.757596 0.045128 0.651162
vn 0.944358 0.049236 0.325215
vn 0.153910 0.061001 -0.986200
vn -0.205345 0.060654 -0.976808
vn -0.702368 0.071507 -0.708213
vn -0.919299 0.095506 -0.381795
vn 0.020456 -0.982515 0.185059
vn -0.020418 -0.979435 0.200723
vn -0.083200 -0.996015 -0.032112
vn -0.088246 -0.995692 -0.028466
vn -0.073377 -0.997286 -0.006081
vn -0.072642 -0.997318 0.008900
vn -0.063758 -0.997822 0.016892
vn -0.046195 -0.996523 -0.069332
vn -0.017437 -0.986829 -0.160822
vn -0.035544 -0.991707 -0.123511
vn 0.020481 -0.984702 -0.173041
vn 0.087880 -0.982258 -0.165668
vn 0.980217 -0.188189 -0.061319
vn 0.990064 -0.139299 0.019239
vn 0.990064 -0.139299 0.019239
vn 0.980588 -0.186927 -0.059210
vn 0.946517 -0.262258 -0.187953
vn 0.946517 -0.262258 -0.187953
vn 0.329996 -0.138274 0.933800
vn 0.329996 -0.138274 0.933800
vn 0.329996 -0.138274 0.933800
vn 0.329996 -0.138274 0.933800
vn 0.439916 -0.508536 -0.740179
vn 0.439916 -0.508536 -0.740179
vn 0.439916 -0.508536 -0.740179
vn 0.439916 -0.508536 -0.740179
vn -0.999206 -0.013692 0.037417
vn -0.899208 -0.009164 -0.437425
vn -0.897267 -0.009598 -0.441383
vn -0.998955 -0.007231 -0.045135
vn -0.214069 -0.148666 -0.965439
vn -0.214069 -0.148666 -0.965439
vn -0.214069 -0.148666 -0.965439
vn -0.214069 -0.148666 -0.965439
vn -0.848444 -0.019417 -0.528930
vn -0.848444 -0.019417 -0.528930
vn -0.973082 -0.028375 0.228707
vn -0.973082 -0.028375 0.228707
vn 0.761824 -0.130739 0.634454
vn 0.531545 -0.097590 0.841390
vn 0.531545 -0.097590 0.841390
vn 0.771289 -0.132048 0.622636
vn -0.518971 -0.063299 0.852445
vn -0.518971 -0.063299 0.852445
vn -0.518971 -0.063299 0.852445
vn -0.518972 -0.063299 0.852445
vn 0.879055 -0.146409 0.453681
vn 0.879055 -0.146409 0.453681
vn -0.009588 -0.993827 0.110525
vn -0.031777 -0.998598 0.042345
vn -0.034821 -0.999097 0.024331
vn -0.065755 -0.997007 0.040669
vn -0.040827 -0.997656 0.054915
vn -0.096378 -0.994256 -0.046548
vn -0.092633 -0.995532 -0.018336
vn -0.089636 -0.995665 -0.024825
vn -0.083330 -0.996510 0.004928
vn -0.061852 -0.997540 0.032985
vn -0.022203 -0.998551 -0.049028
vn -0.029002 -0.999570 0.004401
vn -0.029002 -0.999570 0.004401
vn 0.004077 -0.994678 -0.102955
vn 0.004077 -0.994678 -0.102955
vn 0.121321 0.152180 0.980878
vn 0.121321 0.152180 0.980878
vn 0.121321 0.152180 0.980878
vn -0.843452 0.155314 0.514263
vn -0.799805 0.165018 0.577131
vn -0.801874 0.164602 0.574373
vn -0.843452 0.155314 0.514263
vn -0.667464 0.185221 0.721239
vn -0.994892 0.095926 -0.031434
vn -0.994892 0.095926 -0.031434
vn -0.994892 0.095926 -0.031434
vn -0.787410 0.113679 -0.605857
vn -0.677040 0.150531 -0.720387
vn -0.676006 0.150832 -0.721295
vn -0.787410 0.113679 -0.605857
vn -0.237743 0.242352 -0.940608
vn -0.014898 0.269308 -0.962939
vn -0.240430 0.241941 -0.940031
vn -0.042228 0.999100 -0.004014
vn 0.019485 0.998802 -0.044893
vn 0.019485 0.998802 -0.044893
vn -0.066855 0.973611 -0.218203
vn -0.028811 0.992032 0.122646
s 1
g RockX1_Bridge
usemtl lambert8SG
f 10/5/1 22/6/2 23/7/3 16/10/4
f 79/1/5 80/2/6 49/3/7 50/193/8
f 30/11/9 31/189/10 9/185/11 17/20/12
f 6/27/13 28/32/14 29/33/15 4/34/16
f 32/78/17 33/79/18 5/81/19 3/82/20
f 66/8/21 67/9/22 68/12/23 69/13/24
f 19/83/25 26/84/26 27/86/27 11/87/28
s 8
f 127/14/29 128/15/30 129/16/31 130/17/32
s 1
f 12/88/33 34/89/34 35/90/35 18/92/36
f 53/18/37 85/19/38 55/21/39 56/194/40
f 24/93/41 25/94/42 8/95/43 2/96/44
f 7/97/45 36/98/46 21/99/47 1/101/48
f 3/184/20 9/185/11 31/189/10 32/186/17
f 80/2/6 86/23/49 81/24/50 49/3/7
f 82/25/51 83/26/52 51/28/53 52/196/54
f 84/30/55 87/31/56 85/19/38 53/18/37
f 21/99/47 22/6/2 10/5/1 1/101/48
f 11/87/28 27/86/27 28/32/14 6/27/13
f 70/35/57 69/13/24 68/12/23 71/36/58
f 81/24/50 82/25/51 52/196/54 49/3/7
f 5/81/19 33/79/18 34/89/34 12/88/33
s 8
f 131/37/59 130/17/32 129/16/31 132/38/60
s 1
f 16/10/4 23/7/3 24/93/41 2/96/44
f 56/194/40 55/21/39 63/39/61 64/197/62
f 72/41/63 68/12/23 67/9/22 73/42/64
f 71/36/58 68/12/23 72/41/63 74/43/65
f 78/44/66 79/1/5 50/193/8 65/200/67
f 29/33/15 30/11/9 17/20/12 4/34/16
f 83/26/52 84/30/55 53/18/37 51/28/53
f 75/46/68 67/9/22 66/8/21 76/47/69
f 73/42/64 67/9/22 75/46/68 77/48/70
f 8/95/43 25/94/42 26/84/26 19/83/25
s 8
f 133/49/71 128/15/30 127/14/29 134/50/72
s 1
f 18/92/36 35/90/35 36/98/46 7/97/45
f 17/51/73 37/52/74 4/53/75
f 9/54/76 38/55/77 37/52/74 17/51/73
f 3/56/78 45/57/79 38/55/77 9/54/76
f 12/58/80 40/59/81 39/60/82 5/61/83
f 18/62/84 41/63/85 40/59/81 12/58/80
f 7/64/86 42/65/87 41/63/85 18/62/84
f 1/66/88 46/67/89 42/65/87 7/64/86
f 44/68/90 43/69/91 10/70/92 16/71/93
f 2/72/44 44/68/90 16/71/93
f 37/52/74 38/55/77 48/73/94 47/74/95
f 43/69/91 44/68/90 55/21/96 54/75/97
f 38/55/77 45/57/79 57/76/98 48/73/94
f 45/57/79 39/60/99 58/77/100 57/76/98
f 40/59/101 41/63/102 60/80/103 59/85/104
f 42/65/87 46/67/89 62/91/105 61/100/106
f 46/67/89 43/69/91 54/75/97 62/91/105
f 39/60/99 40/59/101 59/85/104 58/77/100
f 44/68/90 2/72/44 63/39/61 55/21/96
f 2/72/44 8/106/43 64/197/62 63/39/61
f 11/199/28 6/108/13 65/200/67
f 4/53/75 37/52/74 47/74/95
f 6/108/13 4/53/107 78/44/66 65/200/67
f 41/63/102 42/65/87 61/100/106 60/80/103
f 8/106/43 19/198/25 64/197/62
f 52/29/108 51/191/109 66/8/110 69/13/111
f 49/208/7 52/209/108 69/13/111 70/35/57
f 50/4/8 49/195/7 70/35/57 71/36/58
f 19/109/25 11/206/28 72/41/63 73/42/64
f 11/107/28 65/204/67 74/43/65 72/41/63
f 65/45/67 50/207/8 71/36/58 74/43/65
f 51/210/109 53/192/112 76/47/113 66/8/110
f 53/202/112 56/203/114 75/46/68 76/47/113
f 56/22/114 64/201/62 77/48/70 75/46/68
f 64/40/62 19/205/25 73/42/64 77/48/70
f 4/53/107 47/74/115 79/1/5 78/44/66
f 47/74/115 48/73/116 80/2/6 79/1/5
f 48/73/116 57/76/117 86/23/49 80/2/6
f 58/77/118 59/85/119 82/25/51 81/24/50
f 59/85/119 60/80/120 83/26/52 82/25/51
f 60/80/120 61/100/121 84/30/55 83/26/52
f 61/100/121 62/91/122 87/31/56 84/30/55
f 55/21/39 85/19/38 54/75/123
f 88/102/124 89/103/125 111/104/126 110/105/127
f 89/103/125 88/102/124 90/126/128 91/127/129
f 91/127/129 90/126/128 112/128/130 113/129/131
f 92/188/132 93/190/133 95/132/134 94/187/135
f 93/131/133 92/130/132 97/133/136 96/134/137
f 94/187/135 95/132/134 115/135/138 114/136/139
f 96/134/137 97/133/136 104/137/140 105/138/141
f 98/139/142 99/140/143 101/141/144 100/142/145
f 99/140/143 98/139/142 114/136/139 115/135/138
f 100/142/145 101/141/144 102/143/146 103/144/147
f 103/144/147 102/143/146 117/145/148 116/146/149
f 105/138/141 104/137/140 118/147/150 119/148/151
f 106/149/152 107/150/153 113/129/131 112/128/130
f 107/150/153 106/149/152 108/151/154 109/152/155
f 109/152/155 108/151/154 116/146/149 117/145/148
f 110/105/127 111/104/126 119/148/151 118/147/150
s 8
f 132/38/60 135/110/156 131/37/59
s 19
f 90/212/157 121/112/158 15/113/159 112/114/160
f 150/115/161 120/116/162 122/117/163 151/118/164
s 8
f 136/119/165 137/120/166 129/16/31 128/15/30
f 138/121/167 135/110/156 132/38/60
f 137/120/166 138/121/167 132/38/60 129/16/31
s 19
f 103/122/168 14/123/169 13/124/170 100/125/171
f 116/153/172 20/154/173 14/123/169 103/122/168
f 112/114/160 15/113/159 108/155/174 106/156/175
f 13/124/170 114/157/176 98/158/177 100/125/171
f 15/113/159 20/154/173 116/153/172 108/155/174
s 8
f 139/159/178 136/119/165 128/15/30 133/49/71
s 1
f 89/103/179 91/127/180 22/6/2 21/99/47
f 23/7/3 22/6/2 91/127/180 113/129/181
f 24/93/41 23/7/3 113/129/181 107/150/182
f 107/150/182 109/152/183 25/94/42 24/93/41
f 26/84/26 25/94/42 109/152/183 117/145/148
f 27/86/27 26/84/26 117/145/148 102/143/146
f 28/32/14 27/86/27 102/143/146 101/141/144
f 29/33/15 28/32/14 101/141/144 99/140/143
f 115/135/138 30/11/9 29/33/15 99/140/143
f 95/132/134 31/189/184 30/11/9 115/135/138
f 32/186/185 31/189/184 95/132/134 93/190/133
f 93/131/133 96/134/137 33/79/186 32/78/185
f 34/89/187 33/79/186 96/134/137 105/138/141
f 35/90/35 34/89/187 105/138/141 119/148/151
f 36/98/46 35/90/35 119/148/151 111/104/126
f 21/99/47 36/98/46 111/104/126 89/103/179
s 8
f 141/160/188 140/161/189 139/159/178 133/49/71
f 134/50/72 141/160/188 133/49/71
s 19
f 145/162/190 123/163/191 120/116/162 150/115/161
f 152/164/192 124/165/193 123/163/191 145/162/190
f 153/166/194 125/167/195 124/165/193 152/164/192
f 154/168/196 148/169/197 126/170/198 125/167/195
f 13/124/170 126/170/198 94/171/199 114/157/176
s 23
f 14/123/200 20/154/201 127/14/202 130/17/203
f 13/124/204 14/123/200 130/17/203 131/37/205
s off
f 20/154/206 15/113/207 134/50/208 127/14/209
f 126/170/210 13/124/211 131/37/212 135/110/213
s 24
f 123/163/214 124/165/215 137/120/216 136/119/217
s off
f 125/167/218 126/170/219 135/110/220 138/121/221
s 24
f 124/165/215 125/167/222 138/121/223 137/120/216
f 120/116/224 123/163/214 136/119/217 139/159/225
s 25
f 121/112/226 122/117/227 140/161/228 141/160/229
s off
f 122/117/230 120/116/231 139/159/232 140/161/233
s 25
f 15/113/234 121/112/226 141/160/229 134/50/235
s 19
f 121/112/158 90/212/157 143/172/236
f 90/111/157 88/173/237 144/174/238 143/172/236
f 88/173/237 110/175/239 142/176/240 144/174/238
f 110/175/239 118/177/241 145/162/242 142/176/240
f 118/177/241 104/178/243 146/179/244 145/162/242
f 104/178/243 97/180/245 147/181/246 146/179/244
f 92/182/247 94/211/199 148/169/197 149/183/248
f 94/171/199 126/170/198 148/169/197
f 97/180/245 92/182/249 149/183/250 147/181/246
s off
f 143/172/251 144/174/252 151/118/253
s 26
f 144/174/254 142/176/255 150/115/256 151/118/257
f 142/176/255 145/162/258 150/115/256
s off
f 145/162/259 146/179/260 152/164/261
s 27
f 146/179/262 147/181/263 153/166/264 152/164/265
f 149/183/266 148/169/267 154/168/268
f 147/181/263 149/183/266 154/168/268 153/166/264
s 1
f 1/66/269 10/70/92 43/69/91 46/67/89
f 5/61/83 39/60/82 45/57/270 3/56/271
s 19
f 151/118/164 122/117/163 121/112/158 143/172/236
f 154/168/196 125/167/195 153/166/194
s 1
f 86/23/49 57/76/272 58/77/118 81/24/50
f 87/31/56 62/91/273 54/75/123 85/19/38
