# This file uses centimeters as units for non-parametric coordinates.

mtllib RockX3_Bridge.mtl
g default
v -0.134073 0.184041 -0.190665
v -0.240941 0.162587 -0.280782
v 0.402048 0.162587 -0.318568
v 0.138131 0.212445 -0.267866
v -0.117702 0.195934 -0.020380
v -0.344570 0.162587 0.223287
v 0.004272 0.175472 0.078058
v -0.158405 0.133857 0.418696
v 0.096324 0.202098 -0.020194
v 0.214548 0.184556 0.431334
v 0.196162 0.200503 -0.120782
v 0.402048 0.133857 0.244373
v -0.232985 -0.169163 0.007135
v -0.340257 -0.143307 -0.109321
v 0.309977 -0.169163 -0.201534
v 0.402048 -0.143307 -0.318568
v -0.160332 -0.199957 0.243382
v -0.348519 -0.143307 0.244373
v 0.383088 -0.193163 -0.021808
v 0.402048 -0.114578 0.244373
v -0.062993 -0.206649 0.340065
v -0.160893 -0.114578 0.431995
v 0.237713 -0.197389 0.287844
v 0.214426 -0.165277 0.431995
v 0.387767 0.162587 -0.331110
v -0.375574 0.097140 -0.345622
v 0.387767 -0.143307 -0.331110
v -0.375574 -0.077860 -0.345622
v -0.402044 -0.087750 0.199230
v -0.400100 0.160938 0.188820
v -0.007091 0.194812 -0.298765
v -0.068831 0.162587 -0.372208
v -0.120352 0.117209 -0.439785
v -0.121806 -0.097929 -0.431995
v -0.085111 -0.143307 -0.285225
v 0.000433 -0.169163 -0.201534
v -0.177155 -0.034078 0.475657
v -0.160454 0.053358 0.427967
v 0.215269 0.053358 0.433694
v 0.236095 -0.034078 0.475657
v 0.403628 0.053358 0.245334
v 0.442680 -0.034078 0.269072
v 0.403628 0.053358 -0.319821
v 0.442680 -0.034078 -0.350765
v 0.389288 0.053358 -0.332411
v 0.426959 -0.034078 -0.364575
v -0.121856 0.053358 -0.435990
v -0.134117 -0.034078 -0.475657
v -0.377050 0.053385 -0.346981
v -0.413534 -0.034106 -0.380556
v -0.402793 0.081938 0.195545
v -0.442680 -0.008750 0.219365
v -0.348459 0.053358 0.237709
v -0.383741 -0.034078 0.269072
v 0.097529 0.221474 -0.014823
v -0.032905 0.251236 -0.103980
v -0.141237 0.202695 -0.193069
v 0.200402 0.212906 -0.116647
v 0.074571 0.238709 -0.207855
v 0.138509 0.224316 -0.269618
v 0.000073 -0.186693 -0.202769
v -0.233345 -0.176415 0.005899
v 0.309617 -0.176415 -0.202769
v -0.160691 -0.217487 0.242147
v 0.075338 -0.229071 -0.097912
v -0.031756 -0.251236 0.214638
vt 0.811474 0.508743
vt 0.775549 0.537481
vt 0.745367 0.370100
vt 0.819798 0.453304
vt 0.852222 0.542579
vt 0.830712 0.568293
vt 0.987055 0.557173
vt 0.899946 0.532994
vt 0.921571 0.487365
vt 0.999002 0.369438
vt 0.808949 0.304953
vt 0.861282 0.420503
vt 0.935157 0.304985
vt 0.892252 0.452705
vt 0.887805 0.456283
vt 0.848893 0.481526
vt 0.890584 0.151823
vt 0.925779 0.191784
vt 0.841867 0.250498
vt 0.814210 0.220718
vt 0.867871 0.072831
vt 0.934885 0.072204
vt 0.713120 0.216297
vt 0.678997 0.253032
vt 0.673576 0.072800
vt 0.695563 0.158357
vt 0.833919 0.042641
vt 0.870642 0.000972
vt 0.741189 0.009278
vt 0.735629 0.059430
vt 0.888579 0.151249
vt 0.812435 0.215836
vt 0.714228 0.214620
vt 0.789066 0.180612
vt 0.045228 0.613562
vt 0.077752 0.613630
vt 0.078428 0.705320
vt 0.046605 0.706036
vt 0.812284 0.594507
vt 0.046820 0.481212
vt 0.726450 0.560215
vt 0.078991 0.483264
vt 0.853364 0.302957
vt 0.047309 0.393216
vt 0.079127 0.389137
vt 0.942820 0.273801
vt 0.045411 0.193048
vt 0.960846 0.089286
vt 0.076883 0.197292
vt 0.726411 0.381049
vt 0.982152 0.561138
vt 0.077073 0.188155
vt 0.683507 0.257579
vt 0.049450 0.971600
vt 0.815885 0.506995
vt 0.077830 0.971799
vt 0.050981 0.896183
vt 0.077560 0.892013
vt 0.054989 0.725237
vt 0.084649 0.730148
vt 0.105989 0.614305
vt 0.125147 0.483351
vt 0.879116 0.512686
vt 0.918259 0.487045
vt 0.090558 0.891828
vt 0.096794 0.972656
vt 0.106956 0.388834
vt 0.897965 0.530816
vt 0.863180 0.075284
vt 0.114621 0.196480
vt 0.822686 0.083848
vt 0.109276 0.732207
vt 0.114947 0.709599
vt 0.020981 0.007799
vt 0.045357 0.192254
vt 0.114891 0.189157
vt 0.102020 0.008465
vt 0.079818 0.007974
vt 0.047131 0.000972
vt 0.006777 0.705348
vt 0.028905 0.730647
vt 0.034203 0.891742
vt 0.026550 0.970200
vt 0.006676 0.187425
vt 0.007192 0.198302
vt 0.015336 0.612857
vt 0.000998 0.482778
vt 0.017240 0.388939
vn -0.172967 0.982482 -0.069362
vn -0.234432 0.957631 -0.167288
vn -0.101696 0.993775 0.045497
vn -0.080204 0.995497 0.050529
vn -0.019660 0.917396 -0.397489
vn -0.077962 0.910954 -0.405073
vn 0.193432 0.979756 -0.051606
vn 0.155082 0.971378 -0.179927
vn 0.211259 0.976871 0.033048
vn 0.203524 0.978744 0.025252
vn -0.072666 0.992263 0.100662
vn -0.092881 0.991445 0.091703
vn -0.001684 0.998880 0.047275
vn 0.078869 0.996188 0.037267
vn -0.200423 0.918246 0.341547
vn -0.118124 0.907979 0.402020
vn 0.043266 0.974860 0.218576
vn -0.105541 0.992403 0.063232
vn -0.206950 -0.975994 -0.067873
vn -0.417943 -0.900573 -0.119549
vn -0.098736 -0.969360 -0.224929
vn -0.052417 -0.976796 -0.207658
vn -0.302806 -0.927580 0.218871
vn -0.435879 -0.897774 0.063338
vn 0.291630 -0.935953 -0.197344
vn 0.152997 -0.961056 -0.230139
vn 0.505857 -0.835959 0.212794
vn 0.679960 -0.733202 0.008333
vn -0.118020 -0.889969 0.440484
vn -0.194534 -0.884576 0.423888
vn 0.126911 -0.904444 0.407277
vn 0.332114 -0.888332 0.317121
vn -0.212526 -0.965384 -0.151217
vn -0.115281 -0.946959 -0.299966
vn 0.070291 -0.977396 -0.199391
vn 0.006226 -0.993537 -0.113338
vn -0.159299 0.879360 -0.448720
vn -0.274127 0.944779 -0.179574
vn -0.116226 -0.960381 -0.253300
vn -0.230707 -0.945572 -0.229494
vn -0.763020 -0.645339 -0.036597
vn -0.287243 0.953234 -0.094006
vn 0.046910 0.852160 -0.521175
vn -0.025830 -0.963573 -0.266197
vn -0.699382 0.020920 0.714442
vn -0.674603 0.316731 0.666778
vn -0.642874 0.305729 0.702312
vn -0.698621 0.006655 0.715461
vn -0.017233 0.270255 0.962635
vn -0.017753 0.007630 0.999813
vn -0.017978 -0.003175 0.999833
vn -0.017109 0.272526 0.961996
vn 0.685071 0.249773 0.684319
vn 0.722381 -0.015318 0.691326
vn 0.722209 -0.007114 0.691638
vn 0.685608 0.246837 0.684845
vn 0.971403 0.237437 0.000194
vn 0.999977 -0.004211 0.005358
vn 0.999864 -0.015583 0.005493
vn 0.970502 0.241093 0.000190
vn 0.636441 0.263952 -0.724756
vn 0.659856 -0.011633 -0.751302
vn 0.659878 -0.008130 -0.751329
vn 0.638678 0.251227 -0.727307
vn 0.194553 0.229550 -0.953654
vn 0.185574 -0.022732 -0.982367
vn 0.016223 -0.008410 -0.999833
vn 0.047393 0.249330 -0.967258
vn -0.334443 0.014894 -0.942298
vn -0.313959 0.304073 -0.899428
vn -0.956505 0.285606 -0.059386
vn -0.998194 0.017879 -0.057349
vn -0.998366 0.004210 -0.056997
vn -0.959334 0.276023 -0.059066
vn -0.505330 0.261170 0.822455
vn -0.620887 0.121700 0.774395
vn -0.028209 0.055012 0.998087
vn -0.028209 0.055012 0.998087
vn -0.337336 -0.011964 -0.941308
vn 0.087532 -0.013972 -0.996064
vn 0.999861 0.016655 0.000424
vn 0.999861 0.016655 0.000424
vn -0.998278 0.031750 -0.049318
vn -0.998278 0.031750 -0.049318
vn -0.709358 0.109159 0.696345
vn -0.676925 0.110230 0.727751
vn 0.707742 0.018771 0.706222
vn 0.707742 0.018771 0.706222
vn 0.659703 0.018150 -0.751307
vn 0.659703 0.018150 -0.751307
vn -0.549830 0.112214 0.827704
vn 0.204450 -0.014080 -0.978776
vn -0.024475 -0.380678 0.924384
vn -0.024475 -0.380678 0.924384
vn 0.673503 -0.399117 0.622172
vn 0.673503 -0.399117 0.622172
vn 0.919326 -0.393381 0.009555
vn 0.919326 -0.393381 0.009555
vn 0.597940 -0.423107 -0.680770
vn 0.597940 -0.423107 -0.680770
vn 0.060722 -0.486336 -0.871660
vn 0.158781 -0.422340 -0.892422
vn -0.267435 -0.646697 -0.714326
vn -0.839858 -0.541772 -0.033483
vn -0.839858 -0.541772 -0.033483
vn -0.645193 -0.411299 0.643863
vn -0.742392 -0.422949 0.519585
vn -0.630238 -0.408837 0.660040
vn -0.241955 0.945045 -0.219880
vn 0.013460 0.992709 -0.119780
vn 0.170130 0.983619 0.059569
vn 0.073988 0.985444 -0.153059
vn -0.171677 0.938424 -0.299812
vn 0.740847 -0.221817 0.633990
vn 0.691040 -0.284062 0.664660
vn 0.692705 -0.282110 0.663757
vn -0.932294 -0.343394 0.113614
vn -0.932294 -0.343394 0.113614
vn -0.932294 -0.343394 0.113614
vn 0.916067 -0.137247 -0.376808
vn 0.916067 -0.137247 -0.376808
vn 0.916067 -0.137247 -0.376808
vn 0.916067 -0.137247 -0.376808
vn 0.223087 -0.149282 -0.963300
vn 0.223087 -0.149282 -0.963300
vn 0.223087 -0.149282 -0.963300
vn 0.662241 -0.316603 0.679116
vn 0.662241 -0.316603 0.679116
vn -0.597197 -0.323900 -0.733788
vn -0.597197 -0.323900 -0.733788
vn -0.597197 -0.323900 -0.733788
vn -0.662423 0.093370 -0.743289
vn -0.662423 0.093370 -0.743289
vn -0.662423 0.093370 -0.743289
vn -0.662423 0.093370 -0.743289
vn -0.001648 0.099257 -0.995061
vn -0.001648 0.099257 -0.995061
vn -0.001648 0.099257 -0.995061
vn -0.001648 0.099257 -0.995061
vn 0.926972 0.017771 -0.374710
vn 0.926972 0.017771 -0.374710
vn 0.926972 0.017771 -0.374710
vn -0.705493 -0.035466 0.707829
vn -0.908549 -0.011165 0.417630
vn -0.909079 -0.011073 0.416477
vn -0.955888 -0.001569 0.293727
vn -0.955888 -0.001569 0.293727
vn -0.018116 -0.999835 -0.001305
vn -0.226368 -0.969417 -0.094808
vn 0.016737 -0.940783 0.338596
vn 0.149621 -0.988716 -0.007368
vn 0.146482 -0.988597 0.034923
s 1
g RockX3_Bridge
usemtl lambert8SG
f 1/1/1 2/2/2 6/3/3 5/4/4
f 2/2/2 1/1/1 31/5/5 32/6/6
f 3/7/7 4/8/8 11/9/9 12/10/10
f 5/4/4 6/3/3 8/11/11 7/12/12
f 7/12/12 8/11/11 10/13/13 9/14/14
f 9/14/14 10/13/13 12/10/10 11/9/9
s 2
f 5/4/15 7/12/16 55/15/17 56/16/18
s 3
f 13/17/19 14/18/20 35/19/21 36/20/22
f 14/18/20 13/17/19 17/21/23 18/22/24
f 15/23/25 16/24/26 20/25/27 19/26/28
f 18/22/24 17/21/23 21/27/29 22/28/30
f 19/26/28 20/25/27 24/29/31 23/30/32
f 22/28/30 21/27/29 23/30/32 24/29/31
s 4
f 62/31/33 61/32/34 63/33/35 65/34/36
s 1
f 2/2/2 32/6/6 33/39/37 26/41/38
s 3
f 34/43/39 35/19/21 14/18/20 28/46/40
f 14/18/20 18/22/24 29/48/41 28/46/40
s 1
f 6/3/3 2/2/2 26/41/38 30/50/42
f 32/6/6 31/5/5 4/8/8 3/7/7
f 33/39/37 32/6/6 3/7/7 25/51/43
s 3
f 16/24/26 35/19/21 34/43/39 27/53/44
f 36/20/22 35/19/21 16/24/26 15/23/25
s 5
f 37/35/45 38/36/46 53/37/47 54/38/48
s 6
f 38/36/49 37/35/50 40/40/51 39/42/52
s 7
f 39/42/53 40/40/54 42/44/55 41/45/56
s 8
f 41/45/57 42/44/58 44/47/59 43/49/60
s 9
f 43/49/61 44/47/62 46/75/63 45/52/64
s 10
f 45/52/65 46/75/66 48/79/67 47/78/68
f 47/56/68 48/54/67 50/57/69 49/58/70
s 11
f 49/58/71 50/57/72 52/59/73 51/60/74
s 5
f 51/60/75 52/59/76 54/38/48 53/37/47
s 6
f 8/61/77 38/36/49 39/42/52 10/62/78
s 10
f 26/65/79 33/66/80 47/56/68 49/58/70
s 8
f 12/67/81 41/45/57 43/49/60 3/70/82
s 11
f 49/58/71 51/60/74 30/72/83 26/65/84
s 5
f 53/37/47 38/36/46 8/61/85 6/73/86
s 7
f 39/42/53 41/45/56 12/67/87 10/62/88
s 9
f 3/70/89 43/49/61 45/52/64 25/76/90
s 5
f 51/60/75 53/37/47 6/73/86 30/72/91
s 10
f 45/52/65 47/78/68 33/77/80 25/76/92
s 6
f 40/40/51 37/35/50 22/86/93 24/87/94
s 7
f 24/87/95 20/88/96 42/44/55 40/40/54
s 8
f 44/47/59 42/44/58 20/88/97 16/85/98
s 9
f 46/75/63 44/47/62 16/85/99 27/84/100
s 10
f 34/74/101 48/79/67 46/75/66 27/84/102
f 50/57/69 48/54/67 34/83/101 28/82/103
s 11
f 28/82/104 29/81/105 52/59/73 50/57/72
s 5
f 18/80/106 54/38/48 52/59/76 29/81/107
f 18/80/106 22/86/108 37/35/45 54/38/48
s 2
f 5/4/15 56/16/18 57/55/109
f 59/63/110 58/64/111 60/68/112
f 31/5/113 59/63/110 60/68/112
f 56/16/18 55/15/17 58/64/111 59/63/110
f 57/55/109 56/16/18 59/63/110 31/5/113
s 12
f 7/12/114 9/14/115 55/15/116
s off
f 1/1/117 5/4/118 57/55/119
f 11/9/120 4/8/121 60/68/122 58/64/123
f 4/8/124 31/5/125 60/68/126
s 12
f 9/14/115 11/9/127 58/64/128 55/15/116
s off
f 31/5/129 1/1/130 57/55/131
f 13/17/132 36/20/133 61/32/134 62/31/135
f 36/20/136 15/23/137 63/33/138 61/32/139
f 15/23/140 19/26/141 63/33/142
s 13
f 21/27/143 17/21/144 64/69/145
f 17/21/144 13/17/146 62/31/147 64/69/145
s 4
f 62/31/33 65/34/36 66/71/148 64/69/149
f 64/69/149 66/71/148 21/27/150
f 65/34/36 63/33/35 19/26/151
f 66/71/148 65/34/36 19/26/151 23/30/152
f 21/27/150 66/71/148 23/30/152
