# This file uses centimeters as units for non-parametric coordinates.

mtllib FountainWater.mtl
g default
v 0.951057 1.000000 -0.309017
v 0.809018 1.000000 -0.587786
v 0.587786 1.000000 -0.809017
v 0.309017 1.000000 -0.951057
v 0.000000 1.000000 -1.000000
v -0.309017 1.000000 -0.951057
v -0.587785 1.000000 -0.809017
v -0.809017 1.000000 -0.587785
v -0.951057 1.000000 -0.309017
v -1.000000 1.000000 0.000000
v -0.951057 1.000000 0.309017
v -0.809017 1.000000 0.587785
v -0.587785 1.000000 0.809017
v -0.309017 1.000000 0.951057
v -0.000000 1.000000 1.000000
v 0.309017 1.000000 0.951057
v 0.587785 1.000000 0.809017
v 0.809017 1.000000 0.587785
v 0.951057 1.000000 0.309017
v 1.000000 1.000000 0.000000
v 0.000000 1.000000 0.000000
v 0.904508 1.000000 0.293893
v 0.850651 1.000000 0.000000
v 0.769421 1.000000 0.250000
v 0.688191 1.000000 0.500000
v 0.427051 1.000000 0.587786
v 0.500000 1.000000 0.363272
v 0.559017 1.000000 0.181636
v 0.618035 1.000000 0.000000
v 0.690983 1.000000 -0.224514
v 0.425326 1.000000 -0.309017
v 0.363271 1.000000 -0.118034
v 0.324920 1.000000 0.000000
v 0.293893 1.000000 0.095492
v 0.262866 1.000000 0.190983
v 0.224514 1.000000 0.309017
v 0.162460 1.000000 0.500000
v -0.425325 1.000000 0.309017
v -0.363271 1.000000 0.118034
v -0.324920 1.000000 0.000000
v -0.293893 1.000000 -0.095492
v -0.262866 1.000000 -0.190983
v -0.224514 1.000000 -0.309017
v -0.162460 1.000000 -0.500000
v -0.690983 1.000000 0.224514
v -0.618034 1.000000 0.000000
v -0.559017 1.000000 -0.181636
v -0.500000 1.000000 -0.363272
v -0.427051 1.000000 -0.587786
v -0.850651 1.000000 0.000000
v -0.769421 1.000000 -0.250000
v -0.688191 1.000000 -0.500000
v -0.904509 1.000000 -0.293893
v 0.293893 1.000000 -0.904509
v -0.293893 1.000000 0.904509
vt 0.648603 0.795466
vt 0.626409 0.751908
vt 0.591842 0.717341
vt 0.548284 0.695147
vt 0.500000 0.687500
vt 0.451716 0.695147
vt 0.408159 0.717341
vt 0.373591 0.751909
vt 0.351397 0.795466
vt 0.343750 0.843750
vt 0.351397 0.892034
vt 0.373591 0.935591
vt 0.408159 0.970159
vt 0.451716 0.992353
vt 0.500000 1.000000
vt 0.548284 0.992353
vt 0.591841 0.970159
vt 0.626409 0.935591
vt 0.648603 0.892034
vt 0.656250 0.843750
vt 0.500000 0.837500
vt 0.641330 0.797523
vt 0.632914 0.842817
vt 0.620222 0.803494
vt 0.607530 0.764691
vt 0.566727 0.750199
vt 0.578125 0.784602
vt 0.587347 0.812793
vt 0.596568 0.841363
vt 0.607966 0.877121
vt 0.566457 0.889070
vt 0.556761 0.858330
vt 0.550769 0.839531
vt 0.545921 0.824511
vt 0.541073 0.809690
vt 0.535080 0.791603
vt 0.525384 0.762661
vt 0.433543 0.792502
vt 0.443239 0.821444
vt 0.449231 0.839531
vt 0.454079 0.854352
vt 0.458927 0.869372
vt 0.464920 0.888171
vt 0.474616 0.918911
vt 0.392034 0.806961
vt 0.403432 0.841363
vt 0.412654 0.869554
vt 0.421875 0.898124
vt 0.433273 0.933882
vt 0.367086 0.842817
vt 0.379778 0.881619
vt 0.392470 0.920942
vt 0.358671 0.889365
vt 0.545921 0.984774
vt 0.454079 0.702115
vn 0.000000 1.000000 0.000000
vn 0.000000 1.000000 0.000000
vn 0.000000 1.000000 0.000000
vn 0.000000 1.000000 0.000000
vn 0.000000 1.000000 0.000000
vn 0.000000 1.000000 0.000000
vn 0.000000 1.000000 0.000000
vn 0.000000 1.000000 0.000000
vn 0.000000 1.000000 0.000000
vn 0.000000 1.000000 0.000000
vn 0.000000 1.000000 0.000000
vn 0.000000 1.000000 0.000000
vn 0.000000 1.000000 0.000000
vn 0.000000 1.000000 0.000000
vn 0.000000 1.000000 0.000000
vn 0.000000 1.000000 0.000000
vn 0.000000 1.000000 0.000000
vn 0.000000 1.000000 0.000000
vn 0.000000 1.000000 0.000000
vn 0.000000 1.000000 0.000000
vn 0.000000 1.000000 0.000000
vn 0.000000 1.000000 0.000000
vn 0.000000 1.000000 0.000000
vn 0.000000 1.000000 0.000000
vn 0.000000 1.000000 0.000000
vn 0.000000 1.000000 0.000000
vn 0.000000 1.000000 0.000000
vn 0.000000 1.000000 0.000000
vn 0.000000 1.000000 0.000000
vn 0.000000 1.000000 0.000000
vn 0.000000 1.000000 0.000000
vn 0.000000 1.000000 0.000000
vn 0.000000 1.000000 0.000000
vn 0.000000 1.000000 0.000000
vn 0.000000 1.000000 0.000000
vn 0.000000 1.000000 0.000000
vn 0.000000 1.000000 0.000000
vn 0.000000 1.000000 0.000000
vn 0.000000 1.000000 0.000000
vn 0.000000 1.000000 0.000000
vn 0.000000 1.000000 0.000000
vn 0.000000 1.000000 0.000000
vn 0.000000 1.000000 0.000000
vn 0.000000 1.000000 0.000000
vn 0.000000 1.000000 0.000000
vn 0.000000 1.000000 0.000000
vn 0.000000 1.000000 0.000000
vn 0.000000 1.000000 0.000000
vn 0.000000 1.000000 0.000000
vn 0.000000 1.000000 0.000000
vn 0.000000 1.000000 0.000000
vn 0.000000 1.000000 0.000000
vn 0.000000 1.000000 0.000000
vn 0.000000 1.000000 0.000000
vn 0.000000 1.000000 0.000000
s 1
g pCylinder1
usemtl initialShadingGroup
f 30/30/1 2/18/2 31/31/3 32/32/4
f 2/18/2 3/17/5 31/31/3
f 3/17/5 54/54/6 21/21/7
f 54/54/6 5/15/8 21/21/7
f 5/15/8 6/14/9 44/44/10
f 6/14/9 7/13/11 49/49/12
f 7/13/11 8/12/13 52/52/14
f 8/12/13 9/11/15 53/53/16
f 9/11/15 10/10/17 53/53/16
f 10/10/17 11/9/18 50/50/19
f 11/9/18 12/8/20 45/45/21
f 12/8/20 13/7/22 38/38/23
f 13/7/22 14/6/24 55/55/25
f 14/6/24 15/5/26 55/55/25
f 15/5/26 16/4/27 37/37/28
f 16/4/27 26/26/29 36/36/30 37/37/28
f 17/3/31 18/2/32 25/25/33
f 18/2/32 19/1/34 22/22/35
f 19/1/34 20/20/36 22/22/35
f 20/20/36 1/19/37 23/23/38
f 22/22/35 20/20/36 23/23/38 24/24/39
f 18/2/32 22/22/35 24/24/39 25/25/33
f 29/29/40 30/30/1 32/32/4 33/33/41
f 28/28/42 29/29/40 33/33/41 34/34/43
f 27/27/44 28/28/42 34/34/43 35/35/45
f 26/26/29 27/27/44 35/35/45 36/36/30
f 16/4/27 17/3/31 26/26/29
f 17/3/31 25/25/33 27/27/44 26/26/29
f 25/25/33 24/24/39 28/28/42 27/27/44
f 24/24/39 23/23/38 29/29/40 28/28/42
f 23/23/38 1/19/37 30/30/1 29/29/40
f 1/19/37 2/18/2 30/30/1
f 31/31/3 3/17/5 21/21/7
f 32/32/4 31/31/3 21/21/7
f 33/33/41 32/32/4 21/21/7
f 34/34/43 33/33/41 21/21/7
f 35/35/45 34/34/43 21/21/7
f 36/36/30 35/35/45 21/21/7
f 37/37/28 36/36/30 21/21/7
f 15/5/26 37/37/28 21/21/7
f 38/38/23 13/7/22 21/21/7
f 39/39/46 38/38/23 21/21/7
f 40/40/47 39/39/46 21/21/7
f 41/41/48 40/40/47 21/21/7
f 42/42/49 41/41/48 21/21/7
f 43/43/50 42/42/49 21/21/7
f 44/44/10 43/43/50 21/21/7
f 5/15/8 44/44/10 21/21/7
f 45/45/21 12/8/20 38/38/23 39/39/46
f 46/46/51 45/45/21 39/39/46 40/40/47
f 47/47/52 46/46/51 40/40/47 41/41/48
f 48/48/53 47/47/52 41/41/48 42/42/49
f 49/49/12 48/48/53 42/42/49 43/43/50
f 6/14/9 49/49/12 43/43/50 44/44/10
f 50/50/19 11/9/18 45/45/21 46/46/51
f 51/51/54 50/50/19 46/46/51 47/47/52
f 52/52/14 51/51/54 47/47/52 48/48/53
f 7/13/11 52/52/14 48/48/53 49/49/12
f 53/53/16 10/10/17 50/50/19 51/51/54
f 8/12/13 53/53/16 51/51/54 52/52/14
f 3/17/5 4/16/55 54/54/6
f 4/16/55 5/15/8 54/54/6
f 55/55/25 15/5/26 21/21/7
f 13/7/22 55/55/25 21/21/7
