# This file uses centimeters as units for non-parametric coordinates.

mtllib Trellis_LeafV_One.mtl
g default
v -0.500000 -0.000000 0.500000
v 0.500000 -0.000000 0.500000
v -0.500000 0.000000 -0.500000
v 0.500000 0.000000 -0.500000
vt 0.500000 0.500000
vt 1.000000 0.500000
vt 0.500000 1.000000
vt 1.000000 1.000000
vn 0.000000 1.000000 0.000000
vn 0.000000 1.000000 0.000000
vn 0.000000 1.000000 0.000000
vn 0.000000 1.000000 0.000000
s off
g Trellis_LeafV_one
usemtl lambert7SG
f 1/1/1 2/2/2 4/4/3 3/3/4
