# This file uses centimeters as units for non-parametric coordinates.

mtllib Trellis_Frame.mtl
g default
v -0.123707 2.112685 -0.983652
v 0.105779 2.112685 -0.983652
v -0.123707 2.112685 -1.160060
v -0.123707 -1.936277 -1.160060
v -0.123707 -1.936277 -0.983652
v 0.105779 -1.936277 -0.983652
v 0.017584 2.112685 -1.160060
v 0.105779 2.112685 -1.071865
v 0.105779 -1.936277 -1.071865
v 0.017584 -1.936277 -1.160060
v -0.123707 -2.112684 1.158384
v -0.123707 -1.936277 1.158384
v 0.123707 -1.936277 1.158384
v -0.123707 -1.936277 -1.148127
v 0.123707 -1.936277 -1.148127
v -0.123707 -2.112684 -1.148127
v 0.123707 -2.024490 1.158384
v 0.035513 -2.112684 1.158384
v 0.035513 -2.112684 -1.148127
v 0.123707 -2.024490 -1.148127
v -0.123707 2.112685 1.160060
v -0.123707 2.112685 0.983652
v 0.105779 2.112685 0.983652
v -0.123707 -1.936277 0.983652
v 0.105779 -1.936277 0.983652
v -0.123707 -1.936277 1.160060
v 0.105779 2.112685 1.071865
v 0.017584 2.112685 1.160060
v 0.017584 -1.936277 1.160060
v 0.105779 -1.936277 1.071865
vt 0.812865 0.057562
vt 0.856346 0.022736
vt 0.192828 0.998998
vt 0.345361 0.998998
vt 0.192828 0.000998
vt 0.856346 0.057562
vt 0.861249 0.057562
vt 0.861249 0.022736
vt 0.904730 0.057562
vt 0.882988 0.000998
vt 0.904730 0.000998
vt 0.236310 0.000998
vt 0.292875 0.000998
vt 0.812865 0.000998
vt 0.834608 0.000998
vt 0.292875 0.998998
vt 0.236310 0.998998
vt 0.314618 0.000998
vt 0.314618 0.998998
vt 0.380187 0.998998
vt 0.345361 0.000998
vt 0.380187 0.000998
vt 0.699968 0.061982
vt 0.699968 0.022737
vt 0.743450 0.061982
vt 0.428137 0.001004
vt 0.489121 0.001013
vt 0.489039 0.569529
vt 0.428056 0.569521
vt 0.601237 0.065546
vt 0.585279 0.006687
vt 0.606265 0.000998
vt 0.632934 0.016291
vt 0.580770 0.569542
vt 0.541525 0.569537
vt 0.541606 0.001020
vt 0.580852 0.001026
vt 0.510864 0.001016
vt 0.510782 0.569533
vt 0.384574 0.569515
vt 0.384655 0.000998
vt 0.721707 0.000998
vt 0.743450 0.000998
vt 0.643203 0.054169
vt 0.695438 0.057132
vt 0.648000 0.027925
vt 0.666896 0.003675
vt 0.688473 0.000998
vt 0.188262 0.999002
vt 0.131697 0.999001
vt 0.131698 0.000998
vt 0.188262 0.000998
vt 0.767408 0.061580
vt 0.748353 0.008323
vt 0.768824 0.000998
vt 0.796615 0.014142
vt 0.044385 0.000999
vt 0.079212 0.000998
vt 0.079211 0.999001
vt 0.044385 0.999002
vt 0.109954 0.999002
vt 0.109954 0.000999
vt 0.000904 0.999002
vt 0.000904 0.000998
vt 0.808348 0.046932
vt 0.652288 0.062485
vn 0.000000 1.000000 0.000000
vn 0.000000 1.000000 0.000000
vn 0.000000 1.000000 0.000000
vn 0.000000 0.000000 -1.000000
vn 0.000000 0.000000 -1.000000
vn 0.000000 0.000000 -1.000000
vn 0.000000 0.000000 -1.000000
vn 0.000000 -1.000000 0.000000
vn 0.000000 -1.000000 0.000000
vn 0.000000 -1.000000 0.000000
vn 0.000000 0.000000 1.000000
vn 0.000000 0.000000 1.000000
vn 0.000000 0.000000 1.000000
vn 0.000000 0.000000 1.000000
vn 1.000000 0.000000 0.000000
vn 1.000000 0.000000 0.000000
vn 1.000000 0.000000 0.000000
vn 1.000000 0.000000 0.000000
vn -1.000000 0.000000 0.000000
vn -1.000000 0.000000 0.000000
vn -1.000000 0.000000 0.000000
vn -1.000000 0.000000 0.000000
vn 0.707107 0.000000 -0.707106
vn 0.707107 0.000000 -0.707106
vn 0.707107 0.000000 -0.707106
vn 0.707107 0.000000 -0.707106
vn 0.000000 -1.000000 0.000000
vn 0.000000 -1.000000 0.000000
vn 0.000000 1.000000 0.000000
vn 0.000000 1.000000 0.000000
vn 0.000000 0.000000 1.000000
vn 0.000000 0.000000 1.000000
vn 0.000000 0.000000 1.000000
vn 0.000000 1.000000 0.000000
vn 0.000000 1.000000 0.000000
vn 0.000000 1.000000 0.000000
vn 0.000000 1.000000 0.000000
vn -0.000000 0.000000 -1.000000
vn -0.000001 0.000000 -1.000000
vn -0.000001 0.000000 -1.000000
vn -0.000000 0.000000 -1.000000
vn 0.000000 -1.000000 0.000000
vn 0.000000 -1.000000 0.000000
vn 0.000000 -1.000000 0.000000
vn 0.000000 -1.000000 0.000000
vn 1.000000 0.000000 0.000000
vn 1.000000 0.000000 0.000000
vn 1.000000 0.000000 0.000000
vn 1.000000 0.000000 0.000000
vn -1.000000 0.000000 0.000000
vn -1.000000 0.000000 0.000000
vn -1.000000 0.000000 0.000000
vn -1.000000 0.000000 0.000000
vn 0.707107 -0.707107 0.000000
vn 0.707107 -0.707107 0.000000
vn 0.707107 -0.707107 0.000000
vn 0.707107 -0.707107 0.000000
vn 0.000000 0.000000 1.000000
vn 0.000000 0.000000 1.000000
vn 0.000000 0.000000 -1.000000
vn 0.000000 1.000000 0.000000
vn 0.000000 1.000000 0.000000
vn 0.000000 1.000000 0.000000
vn 0.000000 1.000000 0.000000
vn 0.000000 0.000000 -1.000000
vn 0.000000 0.000000 -1.000000
vn 0.000000 0.000000 -1.000000
vn 0.000000 0.000000 -1.000000
vn 0.000000 -1.000000 0.000000
vn 0.000000 -1.000000 0.000000
vn 0.000000 -1.000000 0.000000
vn 0.000000 -1.000000 0.000000
vn 0.000000 0.000000 1.000000
vn 0.000000 0.000000 1.000000
vn 0.000000 0.000000 1.000000
vn 0.000000 0.000000 1.000000
vn 1.000000 0.000000 0.000000
vn 1.000000 0.000000 0.000000
vn 1.000000 0.000000 0.000000
vn 1.000000 0.000000 0.000000
vn -1.000000 0.000000 0.000000
vn -1.000000 0.000000 0.000000
vn -1.000000 0.000000 0.000000
vn -1.000000 0.000000 0.000000
vn 0.707107 0.000000 0.707106
vn 0.707107 0.000000 0.707106
vn 0.707107 0.000000 0.707106
vn 0.707107 0.000000 0.707106
vn 0.000000 -1.000000 0.000000
vn 0.000000 1.000000 0.000000
s 1
g Trellis_Frame
usemtl lambert6SG
f 1/1/1 7/2/2 3/6/3
s off
f 3/20/4 7/4/5 10/21/6 4/22/7
s 2
f 4/7/8 10/8/9 5/9/10
s off
f 5/12/11 6/13/12 2/16/13 1/17/14
f 2/16/15 6/13/16 9/18/17 8/19/18
f 5/12/19 1/17/20 3/3/21 4/5/22
f 7/4/23 8/19/24 9/18/25 10/21/26
s 2
f 5/9/10 10/8/9 9/10/27 6/11/28
s 1
f 1/1/1 2/14/29 8/15/30 7/2/2
s 3
f 11/23/31 18/24/32 12/25/33
s off
f 12/26/34 13/27/35 15/28/36 14/29/37
s 4
f 14/30/38 15/31/39 20/32/40 19/33/41
s off
f 16/34/42 19/35/43 18/36/44 11/37/45
f 17/38/46 20/39/47 15/28/48 13/27/49
f 16/40/50 11/41/51 12/26/52 14/29/53
f 17/38/54 18/36/55 19/35/56 20/39/57
s 3
f 12/25/33 18/24/32 17/42/58 13/43/59
s 4
f 14/30/38 19/33/41 16/44/60
s 5
f 22/45/61 28/46/62 27/47/63 23/48/64
s off
f 22/49/65 23/50/66 25/51/67 24/52/68
s 6
f 24/53/69 25/54/70 30/55/71 29/56/72
s off
f 26/57/73 29/58/74 28/59/75 21/60/76
f 27/61/77 30/62/78 25/51/79 23/50/80
f 26/57/81 21/60/82 22/63/83 24/64/84
f 27/61/85 28/59/86 29/58/87 30/62/88
s 6
f 24/53/69 29/56/72 26/65/89
s 5
f 21/66/90 28/46/62 22/45/61
